<svg width="1611" height="733" viewBox="0 0 1611 733" fill="none" xmlns="http://www.w3.org/2000/svg">
<rect width="1610.92" height="732.893" fill="white"/>
<path d="M762.431 183.943C760.07 183.943 757.376 184.32 757.376 187.431C757.376 192.004 761.449 184.968 761.79 184.085C763.212 180.404 761.22 184.705 761.22 186.399C761.22 188.054 762.431 185.294 762.431 184.583" stroke="black" stroke-width="20" stroke-linecap="round"/>
<path d="M832.11 176.38C833.212 177.619 832.985 179.993 834.312 180.958C836.929 182.862 837.847 178.486 837.847 176.901" stroke="black" stroke-width="20" stroke-linecap="round"/>
<path d="M904.613 167.512C902.837 167.512 900.739 167.136 899.426 168.613C898.055 170.155 897.885 173.22 899.918 174.293C903.143 175.995 907.742 174.689 907.742 170.642" stroke="black" stroke-width="20" stroke-linecap="round"/>
<path d="M822.214 275.227C816.077 276.532 809.627 276.703 803.4 277.323C781.909 279.462 761.124 280.439 739.648 277.425C720.573 274.748 697.835 270.909 682.797 257.64C672.589 248.633 668.957 233.196 667.255 220.242C664.14 196.536 670.101 173.562 682.924 153.55C689.225 143.718 697.432 133.682 705.687 125.624C713.05 118.436 720.635 112.413 728.441 105.705C739.243 96.4229 758.441 84.666 772.441 77.5871C795.941 65.7048 819.623 60.5033 829.441 58.1408C855.941 53.5781 866.941 54.2048 891.949 58.6107C905.401 62.1716 919.33 66.664 931.468 73.5903C939.447 78.1432 947.168 83.6047 954.321 89.3624C962.724 96.1255 970.28 103.877 974.924 113.723C979.278 122.954 982.495 132.499 983.513 142.686C985.188 159.438 984.944 176.206 979.628 192.353C973.041 212.356 963.38 238.514 940.262 243.836C933.193 245.463 916.932 242.217 909.715 241.624C907.35 241.43 914.187 245.114 910.251 243.478C909.169 242.806 909.562 245.061 909.715 246.735C911.081 261.77 908.918 274.917 907.67 289.9C907.402 293.112 906.289 327.356 900.18 324.818C890.568 320.826 881.532 314.196 873.186 308.1C863.189 300.8 833.292 283.045 823.687 275.227" stroke="black" stroke-width="20" stroke-linecap="round"/>
<path d="M256.995 344.735C257.415 334.559 257.589 325.004 257.362 314.628C257.046 300.16 256.282 285.914 255.462 271.735" stroke="black" stroke-width="30" stroke-linecap="round"/>
<path d="M179.939 374.193C160.531 353.609 137.818 337.116 114.659 321.019" stroke="black" stroke-width="30" stroke-linecap="round"/>
<path d="M151.406 451.145C131.6 451.828 111.896 450.73 92.1069 449.896C82.464 449.49 72.8139 449.085 63.1659 448.815C60.4475 448.739 57.7062 448.645 55 448.983" stroke="black" stroke-width="30" stroke-linecap="round"/>
<mask id="path-8-outside-1_11_118" maskUnits="userSpaceOnUse" x="207.925" y="341.893" width="1361" height="335" fill="black">
<rect fill="white" x="207.925" y="341.893" width="1361" height="335"/>
<path d="M279.825 468.793C281.458 464.593 283.558 460.393 286.125 456.193C288.691 451.993 291.841 448.143 295.575 444.643C299.308 440.91 303.625 437.643 308.525 434.843C313.658 432.043 319.375 430.06 325.675 428.893C331.275 427.96 337.691 427.96 344.925 428.893C352.158 429.593 358.691 431.46 364.525 434.493C370.591 437.526 375.025 441.843 377.825 447.443C380.625 453.043 380.508 460.043 377.475 468.443C375.608 474.043 372.108 478.826 366.975 482.793C362.075 486.526 356.241 488.16 349.475 487.693C339.441 487.226 331.275 488.276 324.975 490.843C318.908 493.176 314.125 496.793 310.625 501.693C307.358 506.593 305.141 512.543 303.975 519.543C302.808 526.543 301.991 534.243 301.525 542.643C301.291 550.81 301.175 559.56 301.175 568.893C301.408 578.226 301.058 587.793 300.125 597.593C299.191 606.926 296.858 614.976 293.125 621.743C289.391 628.51 283.325 632.01 274.925 632.243C267.225 632.476 261.391 629.793 257.425 624.193C253.691 618.36 251.358 611.71 250.425 604.243C249.025 593.043 247.858 581.376 246.925 569.243C246.225 557.11 245.291 544.86 244.125 532.493C243.191 520.126 241.675 507.993 239.575 496.093C237.708 484.193 234.791 472.993 230.825 462.493C228.725 456.893 228.025 451.293 228.725 445.693C229.425 440.093 232.108 435.543 236.775 432.043C242.375 427.843 247.741 426.093 252.875 426.793C258.241 427.493 262.908 429.826 266.875 433.793C271.075 437.76 274.341 442.893 276.675 449.193C279.008 455.493 280.058 462.026 279.825 468.793ZM457.431 539.493C453.464 549.293 452.064 558.043 453.231 565.743C454.397 573.443 456.964 579.393 460.931 583.593C465.131 587.56 470.381 589.426 476.681 589.193C482.981 588.726 489.514 585.46 496.281 579.393C499.314 576.593 501.881 573.21 503.981 569.243C506.081 565.276 508.764 560.96 512.031 556.293C516.464 549.993 522.181 545.91 529.181 544.043C536.414 542.176 543.297 543.576 549.831 548.243C554.497 551.743 557.647 555.593 559.281 559.793C561.147 563.76 561.731 567.96 561.031 572.393C560.331 576.826 558.581 581.376 555.781 586.043C552.981 590.476 549.481 594.793 545.281 598.993C534.547 609.493 523.464 617.31 512.031 622.443C500.597 627.576 489.397 630.376 478.431 630.843C467.697 631.31 457.431 629.56 447.631 625.593C437.831 621.626 429.314 615.793 422.081 608.093C414.847 600.16 409.014 590.593 404.581 579.393C400.381 567.96 398.397 555.126 398.631 540.893C398.864 527.126 401.431 513.71 406.331 500.643C411.231 487.576 417.997 475.793 426.631 465.293C435.264 454.793 445.297 446.16 456.731 439.393C468.397 432.393 480.881 428.193 494.181 426.793C504.681 425.626 514.597 426.443 523.931 429.243C533.497 432.043 541.081 436.943 546.681 443.943C552.981 451.876 556.364 460.51 556.831 469.843C557.531 478.943 556.131 487.926 552.631 496.793C549.131 505.426 543.881 513.476 536.881 520.943C530.114 528.41 522.297 534.36 513.431 538.793C504.797 543.226 495.581 545.793 485.781 546.493C476.214 546.96 466.764 544.626 457.431 539.493ZM466.881 515.343C473.414 517.91 479.597 518.726 485.431 517.793C491.497 516.86 496.747 514.993 501.181 512.193C505.614 509.393 509.231 506.01 512.031 502.043C514.831 498.076 516.464 494.46 516.931 491.193C517.397 487.926 516.464 485.476 514.131 483.843C512.031 481.976 508.297 481.743 502.931 483.143C499.197 484.076 495.464 485.71 491.731 488.043C488.231 490.143 484.847 492.71 481.581 495.743C478.547 498.776 475.747 502.043 473.181 505.543C470.614 508.81 468.514 512.076 466.881 515.343ZM691.742 513.943C693.142 502.976 691.159 494.693 685.792 489.093C680.659 483.26 672.492 481.743 661.292 484.543C656.159 485.943 651.492 487.693 647.292 489.793C643.325 491.66 639.475 493.876 635.742 496.443C632.242 498.776 628.625 501.343 624.892 504.143C621.159 506.71 617.192 509.276 612.992 511.843C608.325 514.643 604.009 515.81 600.042 515.343C596.309 514.876 592.342 513.126 588.142 510.093C582.309 505.893 579.392 500.76 579.392 494.693C579.392 488.393 581.492 481.976 585.692 475.443C590.125 468.676 596.075 462.026 603.542 455.493C611.242 448.726 619.759 442.893 629.092 437.993C638.659 432.86 648.575 428.893 658.842 426.093C669.109 423.293 679.025 422.36 688.592 423.293C698.159 423.993 706.909 427.026 714.842 432.393C723.009 437.76 729.425 445.926 734.092 456.893C738.759 467.626 740.859 478.243 740.392 488.743C740.159 499.243 738.992 509.743 736.892 520.243C734.792 530.51 732.575 541.01 730.242 551.743C727.909 562.243 726.975 572.86 727.442 583.593C727.675 589.893 728.842 593.743 730.942 595.143C733.042 596.31 735.375 596.893 737.942 596.893C740.509 596.66 742.842 596.893 744.942 597.593C747.275 598.293 748.792 601.326 749.492 606.693C750.192 612.76 748.442 618.243 744.242 623.143C740.042 628.043 734.675 631.076 728.142 632.243C721.842 633.41 715.075 632.01 707.842 628.043C700.609 624.076 694.309 616.376 688.942 604.943C688.009 603.076 687.192 601.326 686.492 599.693C686.025 597.826 685.442 595.96 684.742 594.093C679.842 600.626 674.125 606.926 667.592 612.993C661.292 619.06 654.292 623.493 646.592 626.293C640.292 628.626 633.992 629.56 627.692 629.093C621.392 628.626 615.675 626.993 610.542 624.193C605.642 621.393 601.442 617.543 597.942 612.643C594.442 607.51 592.225 601.443 591.292 594.443C590.125 585.81 590.942 576.71 593.742 567.143C596.542 557.343 600.742 548.243 606.342 539.843C611.942 531.443 618.709 524.326 626.642 518.493C634.575 512.426 643.092 508.81 652.192 507.643C659.425 506.71 666.075 506.943 672.142 508.343C678.442 509.51 684.975 511.376 691.742 513.943ZM643.792 556.293C640.292 563.293 638.192 568.893 637.492 573.093C637.025 577.293 637.609 580.093 639.242 581.493C641.109 582.893 643.909 582.776 647.642 581.143C651.375 579.276 655.925 575.66 661.292 570.293C669.692 561.893 674.242 555.01 674.942 549.643C675.642 544.043 674.359 540.426 671.092 538.793C667.825 537.16 663.392 537.743 657.792 540.543C652.425 543.11 647.759 548.36 643.792 556.293ZM789.488 391.093C793.221 382.46 798.588 376.16 805.588 372.193C812.588 368.226 819.471 366.593 826.238 367.293C833.238 367.76 839.071 370.56 843.738 375.693C848.404 380.593 850.154 387.593 848.988 396.693C846.888 414.66 843.854 432.276 839.888 449.543C835.921 466.576 832.304 483.726 829.038 500.993C826.004 518.026 824.021 535.06 823.088 552.093C822.154 569.126 823.671 586.393 827.638 603.893C828.571 608.326 828.921 612.41 828.688 616.143C828.454 619.643 826.471 623.026 822.738 626.293C818.771 629.793 814.688 631.66 810.488 631.893C806.521 632.126 802.671 630.493 798.938 626.993C790.771 619.293 784.471 608.793 780.038 595.493C775.604 581.96 772.571 567.26 770.938 551.393C769.538 535.526 769.188 519.193 769.888 502.393C770.821 485.36 772.338 469.376 774.438 454.443C776.538 439.51 778.871 426.443 781.438 415.243C784.238 403.81 786.921 395.76 789.488 391.093ZM905.956 526.193C900.122 525.726 894.289 525.493 888.456 525.493C882.622 525.26 876.906 524.21 871.306 522.343C865.006 520.476 860.456 517.326 857.656 512.893C855.089 508.46 854.039 503.91 854.506 499.243C854.972 494.576 856.956 490.376 860.456 486.643C864.189 482.676 869.206 480.343 875.506 479.643C880.639 479.176 885.656 479.06 890.556 479.293C895.689 479.526 900.822 479.643 905.956 479.643C905.956 475.21 906.189 469.143 906.656 461.443C907.122 453.51 907.939 445.11 909.106 436.243C910.272 427.143 912.022 418.043 914.356 408.943C916.689 399.61 919.722 391.443 923.456 384.443C927.189 377.443 931.622 372.076 936.756 368.343C942.122 364.61 948.539 363.56 956.006 365.193C961.839 366.593 966.622 369.276 970.356 373.243C974.322 376.976 976.889 381.76 978.056 387.593C979.222 394.126 979.689 401.593 979.456 409.993C979.222 418.393 978.639 427.026 977.706 435.893C976.772 444.76 975.722 453.51 974.556 462.143C973.622 470.776 972.922 478.593 972.456 485.593H989.956C995.556 485.593 999.989 486.993 1003.26 489.793C1006.52 492.36 1008.39 495.393 1008.86 498.893C1009.56 502.393 1008.74 505.893 1006.41 509.393C1004.07 512.893 1000.22 515.343 994.856 516.743C990.422 517.91 985.989 518.96 981.556 519.893C977.356 520.593 973.039 521.293 968.606 521.993C967.439 527.36 966.272 535.176 965.106 545.443C964.172 555.476 963.472 565.976 963.006 576.943C962.772 587.91 962.889 598.41 963.356 608.443C963.822 618.476 964.756 626.06 966.156 631.193C968.489 639.593 965.922 646.593 958.456 652.193C950.989 657.56 943.056 657.793 934.656 652.893C930.222 650.56 926.489 646.36 923.456 640.293C920.422 634.46 917.856 627.693 915.756 619.993C913.889 612.06 912.372 603.66 911.206 594.793C910.039 585.693 909.106 576.943 908.406 568.543C907.706 559.91 907.122 551.86 906.656 544.393C906.422 536.926 906.189 530.86 905.956 526.193ZM1139.15 513.943C1140.55 502.976 1138.57 494.693 1133.2 489.093C1128.07 483.26 1119.9 481.743 1108.7 484.543C1103.57 485.943 1098.9 487.693 1094.7 489.793C1090.74 491.66 1086.89 493.876 1083.15 496.443C1079.65 498.776 1076.04 501.343 1072.3 504.143C1068.57 506.71 1064.6 509.276 1060.4 511.843C1055.74 514.643 1051.42 515.81 1047.45 515.343C1043.72 514.876 1039.75 513.126 1035.55 510.093C1029.72 505.893 1026.8 500.76 1026.8 494.693C1026.8 488.393 1028.9 481.976 1033.1 475.443C1037.54 468.676 1043.49 462.026 1050.95 455.493C1058.65 448.726 1067.17 442.893 1076.5 437.993C1086.07 432.86 1095.99 428.893 1106.25 426.093C1116.52 423.293 1126.44 422.36 1136 423.293C1145.57 423.993 1154.32 427.026 1162.25 432.393C1170.42 437.76 1176.84 445.926 1181.5 456.893C1186.17 467.626 1188.27 478.243 1187.8 488.743C1187.57 499.243 1186.4 509.743 1184.3 520.243C1182.2 530.51 1179.99 541.01 1177.65 551.743C1175.32 562.243 1174.39 572.86 1174.85 583.593C1175.09 589.893 1176.25 593.743 1178.35 595.143C1180.45 596.31 1182.79 596.893 1185.35 596.893C1187.92 596.66 1190.25 596.893 1192.35 597.593C1194.69 598.293 1196.2 601.326 1196.9 606.693C1197.6 612.76 1195.85 618.243 1191.65 623.143C1187.45 628.043 1182.09 631.076 1175.55 632.243C1169.25 633.41 1162.49 632.01 1155.25 628.043C1148.02 624.076 1141.72 616.376 1136.35 604.943C1135.42 603.076 1134.6 601.326 1133.9 599.693C1133.44 597.826 1132.85 595.96 1132.15 594.093C1127.25 600.626 1121.54 606.926 1115 612.993C1108.7 619.06 1101.7 623.493 1094 626.293C1087.7 628.626 1081.4 629.56 1075.1 629.093C1068.8 628.626 1063.09 626.993 1057.95 624.193C1053.05 621.393 1048.85 617.543 1045.35 612.643C1041.85 607.51 1039.64 601.443 1038.7 594.443C1037.54 585.81 1038.35 576.71 1041.15 567.143C1043.95 557.343 1048.15 548.243 1053.75 539.843C1059.35 531.443 1066.12 524.326 1074.05 518.493C1081.99 512.426 1090.5 508.81 1099.6 507.643C1106.84 506.71 1113.49 506.943 1119.55 508.343C1125.85 509.51 1132.39 511.376 1139.15 513.943ZM1091.2 556.293C1087.7 563.293 1085.6 568.893 1084.9 573.093C1084.44 577.293 1085.02 580.093 1086.65 581.493C1088.52 582.893 1091.32 582.776 1095.05 581.143C1098.79 579.276 1103.34 575.66 1108.7 570.293C1117.1 561.893 1121.65 555.01 1122.35 549.643C1123.05 544.043 1121.77 540.426 1118.5 538.793C1115.24 537.16 1110.8 537.743 1105.2 540.543C1099.84 543.11 1095.17 548.36 1091.2 556.293ZM1236.9 391.093C1240.63 382.46 1246 376.16 1253 372.193C1260 368.226 1266.88 366.593 1273.65 367.293C1280.65 367.76 1286.48 370.56 1291.15 375.693C1295.82 380.593 1297.57 387.593 1296.4 396.693C1294.3 414.66 1291.27 432.276 1287.3 449.543C1283.33 466.576 1279.72 483.726 1276.45 500.993C1273.42 518.026 1271.43 535.06 1270.5 552.093C1269.57 569.126 1271.08 586.393 1275.05 603.893C1275.98 608.326 1276.33 612.41 1276.1 616.143C1275.87 619.643 1273.88 623.026 1270.15 626.293C1266.18 629.793 1262.1 631.66 1257.9 631.893C1253.93 632.126 1250.08 630.493 1246.35 626.993C1238.18 619.293 1231.88 608.793 1227.45 595.493C1223.02 581.96 1219.98 567.26 1218.35 551.393C1216.95 535.526 1216.6 519.193 1217.3 502.393C1218.23 485.36 1219.75 469.376 1221.85 454.443C1223.95 439.51 1226.28 426.443 1228.85 415.243C1231.65 403.81 1234.33 395.76 1236.9 391.093ZM1318.37 526.193C1318.37 519.893 1318.25 512.426 1318.02 503.793C1317.78 494.926 1317.67 485.71 1317.67 476.143C1317.9 466.343 1318.37 456.426 1319.07 446.393C1319.77 436.36 1320.93 426.793 1322.57 417.693C1324.2 408.36 1326.42 399.96 1329.22 392.493C1332.02 384.793 1335.75 378.493 1340.42 373.593C1343.68 370.093 1347.42 367.76 1351.62 366.593C1356.05 365.193 1360.25 364.843 1364.22 365.543C1368.18 366.243 1371.68 368.11 1374.72 371.143C1377.75 373.943 1379.62 377.793 1380.32 382.693C1381.25 389.46 1381.13 398.326 1379.97 409.293C1379.03 420.026 1377.75 431.226 1376.12 442.893C1374.72 454.56 1373.32 465.993 1371.92 477.193C1370.52 488.16 1370.05 497.143 1370.52 504.143C1380.55 499.243 1390 493.526 1398.87 486.993C1407.73 480.226 1417.07 474.393 1426.87 469.493C1431.3 467.393 1435.62 466.693 1439.82 467.393C1444.25 467.86 1447.87 469.376 1450.67 471.943C1453.47 474.276 1455.33 477.543 1456.27 481.743C1457.2 485.71 1456.62 490.026 1454.52 494.693C1451.72 500.526 1447.75 506.126 1442.62 511.493C1437.48 516.626 1431.77 521.526 1425.47 526.193C1419.4 530.626 1412.98 534.71 1406.22 538.443C1399.68 541.943 1393.5 544.86 1387.67 547.193C1390.93 548.36 1395.02 549.876 1399.92 551.743C1405.05 553.376 1410.18 555.126 1415.32 556.993C1420.68 558.86 1425.7 560.843 1430.37 562.943C1435.03 564.81 1438.65 566.676 1441.22 568.543C1446.82 572.51 1449.97 577.526 1450.67 583.593C1451.6 589.66 1450.78 595.26 1448.22 600.393C1445.88 605.526 1442.03 609.61 1436.67 612.643C1431.53 615.676 1425.7 616.26 1419.17 614.393C1414.5 612.993 1410.07 611.126 1405.87 608.793C1401.9 606.226 1397.82 603.66 1393.62 601.093C1389.65 598.293 1385.68 595.61 1381.72 593.043C1377.75 590.476 1373.55 588.493 1369.12 587.093C1367.72 590.593 1367.6 594.676 1368.77 599.343C1370.17 604.01 1371.33 608.676 1372.27 613.343C1373.2 617.776 1373.2 621.976 1372.27 625.943C1371.57 629.91 1368.42 632.943 1362.82 635.043C1358.38 636.91 1354.42 637.026 1350.92 635.393C1347.65 633.993 1344.62 631.543 1341.82 628.043C1339.25 624.543 1336.92 620.46 1334.82 615.793C1332.95 610.893 1331.32 605.993 1329.92 601.093C1328.52 595.96 1327.35 591.176 1326.42 586.743C1325.72 582.31 1325.13 578.693 1324.67 575.893C1324.43 573.793 1323.03 571.693 1320.47 569.593C1318.13 567.493 1315.57 565.276 1312.77 562.943C1309.97 560.376 1307.28 557.81 1304.72 555.243C1302.38 552.443 1301.1 549.526 1300.87 546.493C1300.63 543.46 1301.68 540.31 1304.02 537.043C1306.58 533.543 1311.37 529.926 1318.37 526.193ZM1505.33 371.843C1510.23 366.476 1515.37 363.443 1520.73 362.743C1526.33 362.043 1531.35 362.976 1535.78 365.543C1540.22 368.11 1543.6 372.076 1545.93 377.443C1548.5 382.81 1549.32 388.876 1548.38 395.643C1546.52 407.776 1544.3 419.793 1541.73 431.693C1539.17 443.593 1536.48 455.61 1533.68 467.743C1530.88 479.643 1528.32 491.66 1525.98 503.793C1523.65 515.693 1521.9 527.71 1520.73 539.843C1520.27 545.21 1518.4 549.41 1515.13 552.443C1512.1 555.243 1508.6 556.876 1504.63 557.343C1500.9 557.576 1497.28 556.643 1493.78 554.543C1490.28 552.443 1487.95 549.06 1486.78 544.393C1484.92 537.393 1483.4 529.11 1482.23 519.543C1481.07 509.976 1480.25 499.826 1479.78 489.093C1479.55 478.126 1479.78 467.043 1480.48 455.843C1481.18 444.41 1482.47 433.443 1484.33 422.943C1486.43 412.443 1489.12 402.76 1492.38 393.893C1495.88 385.026 1500.2 377.676 1505.33 371.843ZM1520.38 611.593C1520.38 620.46 1518.05 627.11 1513.38 631.543C1508.72 635.743 1503.47 637.726 1497.63 637.493C1492.03 637.26 1486.9 635.043 1482.23 630.843C1477.57 626.41 1475.23 620.11 1475.23 611.943C1475.23 604.243 1477.57 598.176 1482.23 593.743C1486.9 589.31 1492.03 586.976 1497.63 586.743C1503.47 586.276 1508.72 588.143 1513.38 592.343C1518.05 596.31 1520.38 602.726 1520.38 611.593Z"/>
</mask>
<path d="M279.825 468.793L259.837 468.104L298.465 476.042L279.825 468.793ZM286.125 456.193L269.059 445.764L269.059 445.764L286.125 456.193ZM295.575 444.643L309.254 459.234L309.489 459.013L309.717 458.785L295.575 444.643ZM308.525 434.843L298.948 417.285L298.774 417.38L298.602 417.478L308.525 434.843ZM325.675 428.893L322.387 409.165L322.21 409.195L322.033 409.227L325.675 428.893ZM344.925 428.893L342.365 448.729L342.681 448.769L342.998 448.8L344.925 428.893ZM364.525 434.493L355.298 452.237L355.439 452.311L355.581 452.382L364.525 434.493ZM377.475 468.443L358.664 461.65L358.58 461.883L358.501 462.119L377.475 468.443ZM366.975 482.793L379.096 498.702L379.15 498.66L379.204 498.619L366.975 482.793ZM349.475 487.693L350.851 467.74L350.628 467.725L350.404 467.715L349.475 487.693ZM324.975 490.843L332.154 509.51L332.338 509.439L332.521 509.365L324.975 490.843ZM310.625 501.693L294.35 490.068L294.163 490.331L293.984 490.599L310.625 501.693ZM303.975 519.543L323.703 522.831L323.703 522.831L303.975 519.543ZM301.525 542.643L281.556 541.534L281.541 541.803L281.533 542.072L301.525 542.643ZM301.175 568.893H281.175V569.143L281.181 569.393L301.175 568.893ZM300.125 597.593L320.026 599.583L320.03 599.536L320.035 599.489L300.125 597.593ZM274.925 632.243L274.369 612.251L274.344 612.251L274.319 612.252L274.925 632.243ZM257.425 624.193L240.579 634.974L240.833 635.37L241.104 635.753L257.425 624.193ZM250.425 604.243L230.579 606.724L230.579 606.724L250.425 604.243ZM246.925 569.243L226.958 570.395L226.969 570.586L226.984 570.777L246.925 569.243ZM244.125 532.493L224.182 533.998L224.196 534.185L224.213 534.372L244.125 532.493ZM239.575 496.093L219.816 499.192L219.846 499.381L219.879 499.569L239.575 496.093ZM230.825 462.493L212.098 469.516L212.107 469.538L212.115 469.561L230.825 462.493ZM228.725 445.693L248.57 448.174L248.57 448.174L228.725 445.693ZM236.775 432.043L248.775 448.043L248.775 448.043L236.775 432.043ZM252.875 426.793L250.173 446.61L250.23 446.618L250.288 446.625L252.875 426.793ZM266.875 433.793L252.733 447.935L252.935 448.137L253.142 448.333L266.875 433.793ZM276.675 449.193L257.92 456.139L257.92 456.139L276.675 449.193ZM298.465 476.042C299.631 473.042 301.186 469.902 303.19 466.622L269.059 445.764C265.931 450.884 263.285 456.144 261.185 461.544L298.465 476.042ZM303.19 466.622C304.784 464.015 306.779 461.554 309.254 459.234L281.896 430.052C276.904 434.732 272.599 439.971 269.059 445.764L303.19 466.622ZM309.717 458.785C312.11 456.392 314.985 454.187 318.448 452.208L298.602 417.478C292.265 421.1 286.506 425.427 281.433 430.501L309.717 458.785ZM318.102 452.401C321.212 450.705 324.896 449.377 329.317 448.559L322.033 409.227C313.854 410.742 306.104 413.381 298.948 417.285L318.102 452.401ZM328.963 448.621C332.17 448.086 336.553 447.979 342.365 448.729L347.484 409.057C338.83 407.941 330.379 407.833 322.387 409.165L328.963 448.621ZM342.998 448.8C347.951 449.279 351.965 450.504 355.298 452.237L373.752 416.749C365.418 412.415 356.365 409.907 346.851 408.986L342.998 448.8ZM355.581 452.382C358.119 453.651 359.236 454.986 359.936 456.387L395.713 438.499C390.814 428.7 383.064 421.402 373.469 416.605L355.581 452.382ZM359.936 456.387C359.734 455.983 359.851 455.891 359.84 456.56C359.827 457.344 359.628 458.98 358.664 461.65L396.286 475.236C400.374 463.916 401.852 450.776 395.713 438.499L359.936 456.387ZM358.501 462.119C358.014 463.581 357.062 465.178 354.746 466.967L379.204 498.619C387.154 492.475 393.203 484.505 396.448 474.768L358.501 462.119ZM354.854 466.884C354.214 467.372 353.304 467.91 350.851 467.74L348.099 507.646C359.179 508.41 369.936 505.681 379.096 498.702L354.854 466.884ZM350.404 467.715C338.739 467.172 327.382 468.266 317.429 472.321L332.521 509.365C335.168 508.287 340.144 507.281 348.546 507.671L350.404 467.715ZM317.795 472.176C308.376 475.799 300.309 481.726 294.35 490.068L326.899 513.318C327.941 511.86 329.44 510.554 332.154 509.51L317.795 472.176ZM293.984 490.599C288.86 498.285 285.785 507.026 284.247 516.255L323.703 522.831C324.498 518.06 325.857 514.901 327.266 512.787L293.984 490.599ZM284.247 516.255C282.94 524.094 282.056 532.533 281.556 541.534L321.494 543.752C321.927 535.953 322.676 528.992 323.703 522.831L284.247 516.255ZM281.533 542.072C281.293 550.453 281.175 559.395 281.175 568.893H321.175C321.175 559.724 321.289 551.166 321.517 543.214L281.533 542.072ZM281.181 569.393C281.393 577.885 281.076 586.65 280.215 595.697L320.035 599.489C321.04 588.936 321.423 578.568 321.169 568.393L281.181 569.393ZM280.224 595.603C279.504 602.806 277.792 608.133 275.613 612.082L310.636 631.405C315.925 621.82 318.879 611.047 320.026 599.583L280.224 595.603ZM275.613 612.082C275.439 612.398 275.356 612.464 275.42 612.396C275.493 612.319 275.624 612.209 275.78 612.119C275.93 612.033 275.964 612.045 275.79 612.09C275.601 612.139 275.153 612.229 274.369 612.251L275.48 652.235C290.213 651.826 303.133 645.005 310.636 631.405L275.613 612.082ZM274.319 612.252C273.626 612.273 273.227 612.221 273.063 612.191C272.91 612.163 272.958 612.156 273.133 612.236C273.315 612.319 273.505 612.44 273.66 612.572C273.811 612.698 273.829 612.751 273.745 612.633L241.104 635.753C249.47 647.564 262.096 652.641 275.531 652.234L274.319 612.252ZM274.27 613.412C272.278 610.299 270.867 606.533 270.27 601.762L230.579 606.724C231.85 616.886 235.105 626.42 240.579 634.974L274.27 613.412ZM270.27 601.762C268.913 590.9 267.777 579.55 266.866 567.709L226.984 570.777C227.94 583.202 229.137 595.186 230.579 606.724L270.27 601.762ZM266.892 568.091C266.177 555.71 265.225 543.218 264.036 530.615L224.213 534.372C225.358 546.502 226.272 558.509 226.958 570.395L266.892 568.091ZM264.068 530.988C263.086 517.978 261.489 505.187 259.27 492.617L219.879 499.569C221.861 510.8 223.297 522.275 224.182 533.998L264.068 530.988ZM259.333 492.994C257.269 479.836 254.02 467.298 249.534 455.425L212.115 469.561C215.563 478.688 218.147 488.55 219.816 499.192L259.333 492.994ZM249.551 455.471C248.518 452.715 248.296 450.37 248.57 448.174L208.879 443.212C207.754 452.216 208.932 461.071 212.098 469.516L249.551 455.471ZM248.57 448.174C248.591 448.009 248.611 447.967 248.595 448.014C248.588 448.036 248.576 448.069 248.556 448.112C248.537 448.155 248.514 448.198 248.49 448.24C248.465 448.282 248.443 448.314 248.427 448.336C248.411 448.357 248.406 448.362 248.416 448.35C248.436 448.329 248.538 448.22 248.775 448.043L224.775 416.043C215.931 422.676 210.277 432.028 208.879 443.212L248.57 448.174ZM248.775 448.043C250.224 446.956 251.034 446.649 251.2 446.595C251.269 446.573 251.186 446.607 250.971 446.628C250.751 446.65 250.473 446.651 250.173 446.61L255.577 406.976C243.614 405.345 233.067 409.824 224.775 416.043L248.775 448.043ZM250.288 446.625C251.112 446.733 251.762 446.965 252.733 447.935L281.017 419.651C274.054 412.688 265.371 408.254 255.462 406.961L250.288 446.625ZM253.142 448.333C254.769 449.87 256.481 452.254 257.92 456.139L295.43 442.247C292.202 433.532 287.38 425.65 280.607 419.253L253.142 448.333ZM257.92 456.139C259.342 459.979 259.981 463.917 259.837 468.104L299.813 469.482C300.135 460.135 298.674 451.007 295.43 442.247L257.92 456.139ZM457.431 539.493L467.069 521.969L447.34 511.118L438.892 531.989L457.431 539.493ZM460.931 583.593L446.39 597.326L446.783 597.741L447.198 598.133L460.931 583.593ZM476.681 589.193L477.421 609.179L477.79 609.166L478.158 609.138L476.681 589.193ZM496.281 579.393L509.632 594.284L509.74 594.188L509.846 594.089L496.281 579.393ZM512.031 556.293L495.675 544.783L495.66 544.803L495.646 544.824L512.031 556.293ZM529.181 544.043L524.183 524.678L524.105 524.698L524.027 524.718L529.181 544.043ZM549.831 548.243L561.831 532.243L561.645 532.104L561.455 531.968L549.831 548.243ZM559.281 559.793L540.641 567.042L540.891 567.685L541.184 568.309L559.281 559.793ZM561.031 572.393L580.786 575.512L580.786 575.512L561.031 572.393ZM555.781 586.043L572.69 596.723L572.813 596.529L572.931 596.333L555.781 586.043ZM545.281 598.993L559.267 613.29L559.345 613.213L559.423 613.135L545.281 598.993ZM512.031 622.443L503.839 604.198L503.839 604.198L512.031 622.443ZM478.431 630.843L477.58 610.861L477.571 610.862L477.562 610.862L478.431 630.843ZM447.631 625.593L440.127 644.132L440.127 644.132L447.631 625.593ZM422.081 608.093L407.302 621.568L407.402 621.678L407.504 621.787L422.081 608.093ZM404.581 579.393L385.807 586.289L385.893 586.523L385.985 586.754L404.581 579.393ZM398.631 540.893L378.634 540.554L378.633 540.565L398.631 540.893ZM406.331 500.643L387.604 493.621L387.604 493.621L406.331 500.643ZM426.631 465.293L442.079 477.995L442.079 477.995L426.631 465.293ZM456.731 439.393L466.917 456.605L466.969 456.574L467.021 456.543L456.731 439.393ZM494.181 426.793L496.274 446.683L496.332 446.677L496.389 446.671L494.181 426.793ZM523.931 429.243L518.184 448.4L518.248 448.419L518.313 448.438L523.931 429.243ZM546.681 443.943L562.343 431.505L562.321 431.477L562.298 431.449L546.681 443.943ZM556.831 469.843L536.856 470.842L536.869 471.11L536.89 471.377L556.831 469.843ZM552.631 496.793L571.165 504.307L571.2 504.222L571.234 504.136L552.631 496.793ZM536.881 520.943L522.29 507.264L522.174 507.387L522.061 507.513L536.881 520.943ZM513.431 538.793L504.486 520.905L504.39 520.953L504.295 521.002L513.431 538.793ZM485.781 546.493L486.755 566.469L486.981 566.458L487.206 566.442L485.781 546.493ZM466.881 515.343L448.992 506.399L439.211 525.961L459.568 533.958L466.881 515.343ZM485.431 517.793L482.39 498.026L482.33 498.035L482.271 498.044L485.431 517.793ZM512.031 502.043L495.691 490.509L495.691 490.509L512.031 502.043ZM516.931 491.193L497.132 488.365L497.132 488.365L516.931 491.193ZM514.131 483.843L500.843 498.791L501.711 499.562L502.661 500.228L514.131 483.843ZM502.931 483.143L507.781 502.546L507.88 502.521L507.979 502.495L502.931 483.143ZM491.731 488.043L502.021 505.193L502.176 505.099L502.331 505.003L491.731 488.043ZM481.581 495.743L467.972 481.087L467.7 481.339L467.439 481.601L481.581 495.743ZM473.181 505.543L488.907 517.899L489.112 517.638L489.309 517.37L473.181 505.543ZM438.892 531.989C434.042 543.97 431.593 556.443 433.456 568.739L473.005 562.747C472.535 559.644 472.886 554.616 475.97 546.997L438.892 531.989ZM433.456 568.739C435.025 579.093 438.803 589.292 446.39 597.326L475.471 569.861C475.125 569.494 473.77 567.793 473.005 562.747L433.456 568.739ZM447.198 598.133C455.673 606.138 466.302 609.591 477.421 609.179L475.94 569.207C474.99 569.242 474.665 569.105 474.718 569.124C474.73 569.128 474.76 569.141 474.783 569.156C474.805 569.169 474.764 569.148 474.663 569.053L447.198 598.133ZM478.158 609.138C490.43 608.229 500.973 602.047 509.632 594.284L482.93 564.502C478.055 568.872 475.531 569.223 475.203 569.248L478.158 609.138ZM509.846 594.089C514.681 589.627 518.59 584.392 521.656 578.601L486.305 559.885C485.171 562.027 483.947 563.56 482.715 564.697L509.846 594.089ZM521.656 578.601C523.284 575.527 525.503 571.923 528.415 567.762L495.646 544.824C492.025 549.996 488.878 555.025 486.305 559.885L521.656 578.601ZM528.387 567.803C530.304 565.079 532.171 563.945 534.334 563.368L524.027 524.718C512.191 527.875 502.624 534.907 495.675 544.783L528.387 567.803ZM534.178 563.409C535.216 563.141 536.074 562.995 538.206 564.518L561.455 531.968C550.52 524.158 537.612 521.212 524.183 524.678L534.178 563.409ZM537.831 564.243C540.375 566.152 540.705 567.208 540.641 567.042L577.921 552.544C574.59 543.979 568.619 537.335 561.831 532.243L537.831 564.243ZM541.184 568.309C541.289 568.53 541.303 568.633 541.308 568.669C541.314 568.71 541.337 568.887 541.275 569.274L580.786 575.512C582.095 567.222 580.992 558.959 577.377 551.277L541.184 568.309ZM541.275 569.274C541.051 570.695 540.384 572.832 538.631 575.753L572.931 596.333C576.778 589.921 579.61 582.958 580.786 575.512L541.275 569.274ZM538.871 575.363C536.959 578.391 534.426 581.563 531.139 584.851L559.423 613.135C564.535 608.023 569.003 602.562 572.69 596.723L538.871 575.363ZM531.295 584.696C521.921 593.867 512.745 600.199 503.839 604.198L520.222 640.688C534.183 634.42 547.174 625.119 559.267 613.29L531.295 584.696ZM503.839 604.198C494.395 608.438 485.678 610.517 477.58 610.861L479.281 650.825C493.116 650.236 506.8 646.715 520.222 640.688L503.839 604.198ZM477.562 610.862C469.643 611.206 462.235 609.928 455.135 607.054L440.127 644.132C452.626 649.191 465.752 651.413 479.299 650.824L477.562 610.862ZM455.135 607.054C448.013 604.172 441.91 599.991 436.658 594.4L407.504 621.787C416.718 631.596 427.649 639.081 440.127 644.132L455.135 607.054ZM436.86 594.618C431.445 588.68 426.827 581.253 423.177 572.032L385.985 586.754C391.201 599.933 398.249 611.64 407.302 621.568L436.86 594.618ZM423.354 572.497C420.134 563.73 418.428 553.4 418.628 541.221L378.633 540.565C378.366 556.853 380.628 572.189 385.807 586.289L423.354 572.497ZM418.628 541.232C418.822 529.781 420.948 518.623 425.057 507.666L387.604 493.621C381.913 508.797 378.906 524.472 378.634 540.554L418.628 541.232ZM425.057 507.666C429.205 496.604 434.881 486.75 442.079 477.995L411.182 452.591C401.114 464.836 393.256 478.549 387.604 493.621L425.057 507.666ZM442.079 477.995C449.269 469.251 457.533 462.158 466.917 456.605L446.544 422.182C433.061 430.161 421.259 440.335 411.182 452.591L442.079 477.995ZM467.021 456.543C476.232 451.016 485.925 447.773 496.274 446.683L492.087 406.903C475.836 408.614 460.562 413.77 446.441 422.243L467.021 456.543ZM496.389 446.671C504.443 445.776 511.637 446.436 518.184 448.4L529.678 410.087C517.558 406.451 504.918 405.477 491.972 406.915L496.389 446.671ZM518.313 448.438C524.398 450.219 528.314 453 531.063 456.437L562.298 431.449C553.848 420.886 542.597 413.867 529.549 410.048L518.313 448.438ZM531.018 456.381C534.952 461.334 536.615 466.033 536.856 470.842L576.806 468.844C576.113 454.987 571.009 442.418 562.343 431.505L531.018 456.381ZM536.89 471.377C537.347 477.32 536.465 483.274 534.028 489.45L571.234 504.136C575.796 492.579 577.715 480.566 576.772 468.309L536.89 471.377ZM534.096 489.279C531.607 495.418 527.773 501.415 522.29 507.264L551.471 534.622C559.988 525.538 566.654 515.435 571.165 504.307L534.096 489.279ZM522.061 507.513C516.931 513.173 511.098 517.599 504.486 520.905L522.375 556.682C533.497 551.121 543.297 543.647 551.7 534.373L522.061 507.513ZM504.295 521.002C498.09 524.188 491.5 526.034 484.356 526.544L487.206 566.442C499.661 565.553 511.505 562.265 522.567 556.584L504.295 521.002ZM484.806 526.517C479.341 526.783 473.534 525.525 467.069 521.969L447.792 557.017C459.994 563.728 473.087 567.136 486.755 566.469L484.806 526.517ZM459.568 533.958C468.798 537.584 478.614 539.138 488.59 537.542L482.271 498.044C480.58 498.315 478.03 498.235 474.194 496.728L459.568 533.958ZM488.472 537.56C496.796 536.28 504.742 533.599 511.861 529.103L490.501 495.283C488.753 496.387 486.199 497.44 482.39 498.026L488.472 537.56ZM511.861 529.103C518.336 525.013 523.937 519.856 528.37 513.577L495.691 490.509C494.524 492.163 492.892 493.773 490.501 495.283L511.861 529.103ZM528.37 513.577C532.201 508.15 535.654 501.55 536.73 494.021L497.132 488.365C497.212 487.799 497.321 487.698 497.128 488.124C496.935 488.551 496.514 489.344 495.691 490.509L528.37 513.577ZM536.73 494.021C537.321 489.884 537.218 484.897 535.27 479.786C533.255 474.495 529.75 470.363 525.6 467.458L502.661 500.228C500.845 498.956 498.973 496.866 497.891 494.025C496.877 491.364 497.007 489.235 497.132 488.365L536.73 494.021ZM527.418 468.895C517.061 459.689 503.847 462.235 497.882 463.791L507.979 502.495C509.502 502.098 509.516 502.292 508.508 502.229C507.39 502.159 504.093 501.679 500.843 498.791L527.418 468.895ZM498.08 463.74C492.045 465.249 486.389 467.796 481.131 471.083L502.331 505.003C504.539 503.623 506.349 502.904 507.781 502.546L498.08 463.74ZM481.441 470.893C476.648 473.769 472.163 477.195 467.972 481.087L495.19 510.399C497.532 508.224 499.814 506.517 502.021 505.193L481.441 470.893ZM467.439 481.601C463.677 485.363 460.214 489.404 457.053 493.716L489.309 517.37C491.28 514.682 493.418 512.19 495.723 509.885L467.439 481.601ZM457.454 493.187C454.165 497.373 451.305 501.773 448.992 506.399L484.769 524.287C485.723 522.38 487.063 520.247 488.907 517.899L457.454 493.187ZM691.742 513.943L684.649 532.643L708.369 541.64L711.581 516.476L691.742 513.943ZM685.792 489.093L670.778 502.306L671.058 502.624L671.352 502.931L685.792 489.093ZM661.292 484.543L656.441 465.14L656.235 465.192L656.03 465.248L661.292 484.543ZM647.292 489.793L655.808 507.889L656.023 507.788L656.236 507.682L647.292 489.793ZM635.742 496.443L646.836 513.084L646.955 513.005L647.073 512.924L635.742 496.443ZM624.892 504.143L636.223 520.624L636.562 520.39L636.892 520.143L624.892 504.143ZM612.992 511.843L623.282 528.993L623.352 528.951L623.421 528.909L612.992 511.843ZM600.042 515.343L597.561 535.189L597.633 535.198L597.705 535.206L600.042 515.343ZM588.142 510.093L599.852 493.879L599.84 493.871L599.828 493.862L588.142 510.093ZM585.692 475.443L568.963 464.483L568.915 464.555L568.868 464.628L585.692 475.443ZM603.542 455.493L616.712 470.545L616.728 470.53L616.744 470.516L603.542 455.493ZM629.092 437.993L638.389 455.701L638.469 455.659L638.548 455.616L629.092 437.993ZM658.842 426.093L664.104 445.388L664.104 445.388L658.842 426.093ZM688.592 423.293L686.65 443.199L686.891 443.222L687.133 443.24L688.592 423.293ZM714.842 432.393L703.636 448.959L703.747 449.034L703.858 449.107L714.842 432.393ZM734.092 456.893L715.689 464.724L715.719 464.796L715.751 464.868L734.092 456.893ZM740.392 488.743L720.412 487.855L720.402 488.077L720.397 488.299L740.392 488.743ZM736.892 520.243L756.486 524.251L756.495 524.208L756.504 524.165L736.892 520.243ZM730.242 551.743L749.766 556.082L749.776 556.037L749.786 555.992L730.242 551.743ZM727.442 583.593L747.428 582.853L747.426 582.789L747.423 582.724L727.442 583.593ZM730.942 595.143L719.848 611.784L720.522 612.233L721.229 612.626L730.942 595.143ZM737.942 596.893V616.893H738.849L739.753 616.811L737.942 596.893ZM744.942 597.593L738.617 616.567L738.905 616.663L739.195 616.75L744.942 597.593ZM749.492 606.693L769.36 604.401L769.343 604.253L769.324 604.106L749.492 606.693ZM744.242 623.143L729.057 610.127L729.057 610.127L744.242 623.143ZM728.142 632.243L724.626 612.555L724.563 612.566L724.5 612.577L728.142 632.243ZM707.842 628.043L698.225 645.579L698.225 645.579L707.842 628.043ZM688.942 604.943L707.047 596.445L706.941 596.221L706.831 595.999L688.942 604.943ZM686.492 599.693L667.089 604.544L667.478 606.098L668.109 607.571L686.492 599.693ZM684.742 594.093L703.469 587.071L690.649 552.884L668.742 582.093L684.742 594.093ZM667.592 612.993L653.983 598.337L653.85 598.461L653.719 598.587L667.592 612.993ZM646.592 626.293L639.757 607.497L639.701 607.517L639.646 607.538L646.592 626.293ZM627.692 629.093L626.215 649.038L626.215 649.038L627.692 629.093ZM610.542 624.193L600.619 641.558L600.791 641.656L600.965 641.751L610.542 624.193ZM597.942 612.643L581.417 623.91L581.54 624.09L581.667 624.268L597.942 612.643ZM591.292 594.443L611.117 591.8L611.114 591.782L611.112 591.765L591.292 594.443ZM593.742 567.143L612.937 572.761L612.955 572.699L612.972 572.637L593.742 567.143ZM606.342 539.843L622.983 550.937L622.983 550.937L606.342 539.843ZM626.642 518.493L638.49 534.606L638.641 534.495L638.791 534.38L626.642 518.493ZM652.192 507.643L654.735 527.481L654.743 527.48L654.751 527.479L652.192 507.643ZM672.142 508.343L667.645 527.831L668.071 527.929L668.5 528.009L672.142 508.343ZM643.792 556.293L625.903 547.349L625.903 547.349L643.792 556.293ZM637.492 573.093L617.764 569.805L617.675 570.343L617.614 570.884L637.492 573.093ZM639.242 581.493L626.226 596.678L626.721 597.102L627.242 597.493L639.242 581.493ZM647.642 581.143L655.658 599.466L656.128 599.261L656.586 599.032L647.642 581.143ZM661.292 570.293L675.434 584.435L675.434 584.435L661.292 570.293ZM674.942 549.643L694.774 552.23L694.781 552.177L694.788 552.124L674.942 549.643ZM657.792 540.543L666.421 558.586L666.579 558.51L666.736 558.432L657.792 540.543ZM711.581 516.476C713.406 502.178 711.335 486.841 700.232 475.255L671.352 502.931C671.397 502.978 671.443 503.034 671.507 503.154C671.576 503.284 671.717 503.59 671.854 504.163C672.142 505.366 672.383 507.648 671.903 511.41L711.581 516.476ZM700.806 475.881C688.53 461.93 670.971 461.508 656.441 465.14L666.143 503.946C669.976 502.988 671.776 503.172 672.165 503.244C672.293 503.268 672.082 503.244 671.7 503.032C671.302 502.813 670.979 502.535 670.778 502.306L700.806 475.881ZM656.03 465.248C649.79 466.949 643.869 469.144 638.348 471.905L656.236 507.682C659.115 506.242 662.527 504.937 666.554 503.838L656.03 465.248ZM638.776 471.697C633.797 474.04 629.008 476.802 624.411 479.962L647.073 512.924C649.943 510.951 652.854 509.28 655.808 507.889L638.776 471.697ZM624.648 479.802C620.809 482.361 616.89 485.145 612.892 488.143L636.892 520.143C640.361 517.541 643.675 515.191 646.836 513.084L624.648 479.802ZM613.561 487.662C610.147 490.009 606.483 492.382 602.563 494.777L623.421 528.909C627.901 526.171 632.17 523.41 636.223 520.624L613.561 487.662ZM602.702 494.693C601.622 495.341 601.076 495.5 601.036 495.511C601.028 495.513 601.153 495.479 601.398 495.458C601.648 495.437 601.983 495.433 602.379 495.48L597.705 535.206C607.416 536.348 616.182 533.253 623.282 528.993L602.702 494.693ZM602.523 495.498C603.142 495.575 602.306 495.652 599.852 493.879L576.432 526.307C582.378 530.601 589.475 534.178 597.561 535.189L602.523 495.498ZM599.828 493.862C598.75 493.086 598.73 492.794 598.969 493.213C599.086 493.419 599.208 493.701 599.293 494.028C599.378 494.351 599.392 494.591 599.392 494.693H559.392C559.392 508.434 566.5 519.155 576.456 526.324L599.828 493.862ZM599.392 494.693C599.392 493.035 599.905 490.319 602.516 486.258L568.868 464.628C563.079 473.634 559.392 483.752 559.392 494.693H599.392ZM602.421 486.404C605.665 481.453 610.316 476.141 616.712 470.545L590.372 440.442C581.835 447.911 574.586 455.9 568.963 464.483L602.421 486.404ZM616.744 470.516C623.22 464.826 630.419 459.885 638.389 455.701L619.795 420.285C609.098 425.901 599.264 432.627 590.34 440.47L616.744 470.516ZM638.548 455.616C646.812 451.182 655.324 447.783 664.104 445.388L653.58 406.798C641.827 410.003 630.506 414.537 619.636 420.37L638.548 455.616ZM664.104 445.388C672.277 443.159 679.748 442.525 686.65 443.199L690.534 403.388C678.303 402.194 665.94 403.427 653.58 406.798L664.104 445.388ZM687.133 443.24C693.216 443.685 698.604 445.555 703.636 448.959L726.048 415.827C715.213 408.498 703.101 404.301 690.051 403.346L687.133 443.24ZM703.858 449.107C708.069 451.874 712.224 456.581 715.689 464.724L752.495 449.062C746.627 435.272 737.948 423.645 725.826 415.679L703.858 449.107ZM715.751 464.868C719.343 473.13 720.729 480.726 720.412 487.855L760.372 489.631C760.989 475.76 758.174 462.123 752.433 448.919L715.751 464.868ZM720.397 488.299C720.19 497.608 719.156 506.944 717.28 516.321L756.504 524.165C758.828 512.542 760.127 500.878 760.387 489.187L720.397 488.299ZM717.298 516.235C715.215 526.418 713.015 536.837 710.698 547.494L749.786 555.992C752.135 545.182 754.369 534.602 756.486 524.251L717.298 516.235ZM710.718 547.404C708.006 559.611 706.918 571.978 707.461 584.462L747.423 582.724C747.033 573.741 747.812 564.875 749.766 556.082L710.718 547.404ZM707.456 584.333C707.604 588.347 708.072 592.784 709.352 597.006C710.53 600.896 713.232 607.373 719.848 611.784L742.036 578.502C744.356 580.048 745.756 581.835 746.523 583.068C747.269 584.267 747.56 585.165 747.632 585.405C747.745 585.777 747.513 585.139 747.428 582.853L707.456 584.333ZM721.229 612.626C726.503 615.556 732.216 616.893 737.942 616.893V576.893C738.185 576.893 738.595 576.922 739.118 577.053C739.647 577.185 740.173 577.392 740.655 577.66L721.229 612.626ZM739.753 616.811C740.019 616.787 739.53 616.871 738.617 616.567L751.267 578.619C746.154 576.915 740.999 576.533 736.131 576.975L739.753 616.811ZM739.195 616.75C733.275 614.973 730.656 610.767 729.941 609.337C729.287 608.03 729.448 607.654 729.66 609.28L769.324 604.106C768.836 600.366 767.888 595.789 765.718 591.449C763.487 586.986 758.943 580.913 750.689 578.437L739.195 616.75ZM729.624 608.986C729.65 609.212 729.64 609.315 729.64 609.323C729.639 609.327 729.643 609.302 729.651 609.275C729.659 609.249 729.65 609.293 729.58 609.415C729.507 609.542 729.353 609.782 729.057 610.127L759.427 636.159C767.02 627.301 770.738 616.343 769.36 604.401L729.624 608.986ZM729.057 610.127C727.952 611.417 726.756 612.174 724.626 612.555L731.658 651.932C742.594 649.979 752.132 644.669 759.427 636.159L729.057 610.127ZM724.5 612.577C723.901 612.688 721.831 612.904 717.459 610.507L698.225 645.579C708.32 651.115 719.783 654.131 731.784 651.909L724.5 612.577ZM717.459 610.507C715.443 609.402 711.511 605.957 707.047 596.445L670.837 613.441C677.106 626.796 685.774 638.751 698.225 645.579L717.459 610.507ZM706.831 595.999C706.043 594.424 705.397 593.032 704.875 591.815L668.109 607.571C668.987 609.62 669.974 611.729 671.053 613.887L706.831 595.999ZM705.895 594.842C705.238 592.214 704.425 589.622 703.469 587.071L666.015 601.116C666.459 602.297 666.813 603.439 667.089 604.544L705.895 594.842ZM668.742 582.093C664.62 587.589 659.721 593.009 653.983 598.337L681.201 627.649C688.53 620.843 695.064 613.664 700.742 606.093L668.742 582.093ZM653.719 598.587C649.295 602.847 644.656 605.716 639.757 607.497L653.427 645.089C663.928 641.27 673.289 635.272 681.465 627.399L653.719 598.587ZM639.646 607.538C635.862 608.94 632.429 609.389 629.169 609.148L626.215 649.038C635.555 649.73 644.722 648.313 653.538 645.048L639.646 607.538ZM629.169 609.148C625.477 608.874 622.557 607.965 620.119 606.635L600.965 641.751C608.793 646.021 617.307 648.379 626.215 649.038L629.169 609.148ZM620.465 606.828C618.237 605.555 616.153 603.729 614.217 601.018L581.667 624.268C586.731 631.357 593.047 637.231 600.619 641.558L620.465 606.828ZM614.467 601.376C612.951 599.153 611.694 596.133 611.117 591.8L571.467 597.086C572.756 606.754 575.933 615.866 581.417 623.91L614.467 601.376ZM611.112 591.765C610.371 586.283 610.811 580.023 612.937 572.761L574.547 561.525C571.073 573.396 569.88 585.336 571.472 597.121L611.112 591.765ZM612.972 572.637C615.21 564.807 618.542 557.599 622.983 550.937L589.701 528.749C582.942 538.887 577.874 549.879 574.512 561.649L612.972 572.637ZM622.983 550.937C627.323 544.427 632.482 539.024 638.49 534.606L614.794 502.38C604.935 509.629 596.561 518.459 589.701 528.749L622.983 550.937ZM638.791 534.38C644.182 530.258 649.435 528.16 654.735 527.481L649.649 487.805C636.749 489.459 624.969 494.595 614.493 502.606L638.791 534.38ZM654.751 527.479C660.026 526.798 664.25 527.048 667.645 527.831L676.639 488.855C667.9 486.839 658.825 486.621 649.633 487.808L654.751 527.479ZM668.5 528.009C673.484 528.932 678.86 530.447 684.649 532.643L698.835 495.243C691.09 492.305 683.4 490.088 675.784 488.677L668.5 528.009ZM625.903 547.349C622.126 554.904 618.96 562.633 617.764 569.805L657.22 576.381C657.424 575.153 658.458 571.682 661.681 565.237L625.903 547.349ZM617.614 570.884C617.073 575.757 616.313 588.181 626.226 596.678L652.258 566.308C655.753 569.304 656.846 572.76 657.159 574.264C657.451 575.664 657.269 576.206 657.37 575.302L617.614 570.884ZM627.242 597.493C638.219 605.726 650.347 601.79 655.658 599.466L639.626 562.82C639.088 563.055 639.979 562.553 641.909 562.473C644.155 562.379 647.781 562.898 651.242 565.493L627.242 597.493ZM656.586 599.032C663.215 595.717 669.577 590.292 675.434 584.435L647.15 556.151C642.274 561.027 639.536 562.835 638.698 563.255L656.586 599.032ZM675.434 584.435C680.208 579.661 684.428 574.792 687.689 569.859C690.842 565.089 693.878 559.097 694.774 552.23L655.11 547.056C655.306 545.556 655.717 545.689 654.32 547.802C653.031 549.753 650.776 552.525 647.15 556.151L675.434 584.435ZM694.788 552.124C695.868 543.484 694.799 528.286 680.036 520.905L662.148 556.682C660.736 555.976 659.297 554.92 658.056 553.489C656.828 552.072 656.082 550.619 655.656 549.419C654.882 547.237 655.228 546.112 655.096 547.162L694.788 552.124ZM680.036 520.905C668.116 514.944 656.144 519.007 648.848 522.655L666.736 558.432C668.281 557.659 668.602 557.746 667.926 557.835C667.081 557.946 664.817 558.016 662.148 556.682L680.036 520.905ZM649.163 522.5C638.237 527.726 630.925 537.306 625.903 547.349L661.681 565.237C664.593 559.413 666.614 558.494 666.421 558.586L649.163 522.5ZM789.488 391.093L807.012 400.731L807.469 399.901L807.845 399.031L789.488 391.093ZM805.588 372.193L795.727 354.793L805.588 372.193ZM826.238 367.293L824.18 387.187L824.543 387.224L824.907 387.249L826.238 367.293ZM843.738 375.693L828.939 389.147L829.095 389.318L829.255 389.486L843.738 375.693ZM848.988 396.693L829.15 394.15L829.136 394.26L829.123 394.371L848.988 396.693ZM839.888 449.543L859.366 454.079L859.373 454.05L859.38 454.021L839.888 449.543ZM829.038 500.993L809.386 497.275L809.366 497.381L809.347 497.487L829.038 500.993ZM823.088 552.093L803.118 550.999L803.118 550.999L823.088 552.093ZM827.638 603.893L847.209 599.773L847.177 599.622L847.143 599.472L827.638 603.893ZM828.688 616.143L848.643 617.473L848.646 617.432L848.649 617.391L828.688 616.143ZM822.738 626.293L809.568 611.242L809.536 611.269L809.505 611.296L822.738 626.293ZM810.488 631.893L809.378 611.924L809.346 611.926L809.313 611.928L810.488 631.893ZM798.938 626.993L785.217 641.545L785.238 641.564L785.259 641.584L798.938 626.993ZM780.038 595.493L761.032 601.719L761.048 601.768L761.064 601.818L780.038 595.493ZM770.938 551.393L751.015 553.151L751.028 553.296L751.043 553.441L770.938 551.393ZM769.888 502.393L749.918 501.299L749.91 501.43L749.905 501.56L769.888 502.393ZM781.438 415.243L762.012 410.486L761.976 410.63L761.943 410.776L781.438 415.243ZM807.845 399.031C810.154 393.692 812.849 391.066 815.448 389.593L795.727 354.793C784.327 361.253 776.288 371.228 771.131 383.155L807.845 399.031ZM815.448 389.593C819.51 387.292 822.262 386.988 824.18 387.187L828.296 347.399C816.68 346.198 805.666 349.161 795.727 354.793L815.448 389.593ZM824.907 387.249C826.811 387.376 827.795 387.889 828.939 389.147L858.536 362.24C850.347 353.231 839.665 348.144 827.568 347.337L824.907 387.249ZM829.255 389.486C829.044 389.265 829.054 389.095 829.147 389.469C829.279 389.995 829.499 391.428 829.15 394.15L868.825 399.236C870.468 386.422 868.391 372.579 858.22 361.9L829.255 389.486ZM829.123 394.371C827.106 411.628 824.195 428.525 820.395 445.065L859.38 454.021C863.513 436.028 866.67 417.691 868.852 399.015L829.123 394.371ZM820.409 445.007C816.379 462.313 812.705 479.736 809.386 497.275L848.689 504.711C851.904 487.717 855.463 470.84 859.366 454.079L820.409 445.007ZM809.347 497.487C806.174 515.306 804.096 533.145 803.118 550.999L843.058 553.187C843.946 536.974 845.835 520.747 848.728 504.5L809.347 497.487ZM803.118 550.999C802.078 569.977 803.777 589.1 808.132 608.314L847.143 599.472C843.565 583.686 842.231 568.276 843.058 553.187L803.118 550.999ZM808.067 608.013C808.704 611.041 808.827 613.292 808.727 614.895L848.649 617.391C849.015 611.527 848.438 605.612 847.209 599.773L808.067 608.013ZM808.732 614.813C808.845 613.115 809.38 611.859 809.771 611.191C810.111 610.612 810.225 610.666 809.568 611.242L835.908 641.345C841.961 636.048 847.933 628.133 848.643 617.473L808.732 614.813ZM809.505 611.296C808.74 611.971 808.355 612.142 808.385 612.129C808.404 612.12 808.512 612.073 808.701 612.025C808.893 611.977 809.124 611.938 809.378 611.924L811.597 651.862C821.332 651.321 829.52 646.981 835.97 641.29L809.505 611.296ZM809.313 611.928C810.566 611.854 811.679 612.11 812.436 612.431C813.1 612.713 813.138 612.891 812.617 612.402L785.259 641.584C791.781 647.698 800.75 652.5 811.662 651.859L809.313 611.928ZM812.658 612.441C807.421 607.504 802.656 600.101 799.011 589.169L761.064 601.818C766.286 617.485 774.121 631.082 785.217 641.545L812.658 612.441ZM799.044 589.267C795.104 577.241 792.337 563.958 790.833 549.345L751.043 553.441C752.805 570.561 756.104 586.678 761.032 601.719L799.044 589.267ZM790.86 549.635C789.54 534.676 789.204 519.209 789.87 503.226L749.905 501.56C749.171 519.177 749.535 536.377 751.015 553.151L790.86 549.635ZM789.858 503.487C790.764 486.948 792.231 471.533 794.243 457.228L754.633 451.658C752.444 467.219 750.878 483.772 749.918 501.299L789.858 503.487ZM794.243 457.228C796.286 442.697 798.525 430.214 800.932 419.711L761.943 410.776C759.217 422.672 756.789 436.323 754.633 451.658L794.243 457.228ZM800.864 420C803.625 408.726 805.814 402.91 807.012 400.731L771.963 381.455C768.028 388.609 764.851 398.893 762.012 410.486L800.864 420ZM905.956 526.193L925.931 525.194L925.054 507.657L907.551 506.257L905.956 526.193ZM888.456 525.493L887.656 545.477L888.056 545.493H888.456V525.493ZM871.306 522.343L877.63 503.369L877.311 503.263L876.987 503.167L871.306 522.343ZM857.656 512.893L840.347 522.914L840.54 523.247L840.746 523.573L857.656 512.893ZM854.506 499.243L874.406 501.233L874.406 501.233L854.506 499.243ZM860.456 486.643L845.892 472.936L845.878 472.95L845.865 472.964L860.456 486.643ZM875.506 479.643L873.695 459.725L873.496 459.743L873.297 459.765L875.506 479.643ZM890.556 479.293L889.604 499.27L889.626 499.271L889.648 499.272L890.556 479.293ZM905.956 479.643V499.643H925.956V479.643H905.956ZM906.656 461.443L926.619 462.653L926.62 462.635L926.621 462.618L906.656 461.443ZM909.106 436.243L928.935 438.852L928.939 438.819L928.943 438.786L909.106 436.243ZM914.356 408.943L933.729 413.911L933.744 413.852L933.759 413.794L914.356 408.943ZM923.456 384.443L941.103 393.855L941.103 393.855L923.456 384.443ZM936.756 368.343L925.334 351.925L925.162 352.045L924.992 352.168L936.756 368.343ZM956.006 365.193L960.673 345.745L960.477 345.698L960.28 345.655L956.006 365.193ZM970.356 373.243L955.792 386.95L956.207 387.392L956.648 387.807L970.356 373.243ZM978.056 387.593L997.744 384.077L997.708 383.874L997.667 383.671L978.056 387.593ZM979.456 409.993L959.463 409.438L959.463 409.438L979.456 409.993ZM977.706 435.893L997.596 437.987L997.596 437.987L977.706 435.893ZM974.556 462.143L954.736 459.465L954.7 459.729L954.672 459.993L974.556 462.143ZM972.456 485.593L952.5 484.263L951.078 505.593H972.456V485.593ZM1003.26 489.793L990.24 504.978L990.564 505.256L990.899 505.519L1003.26 489.793ZM1008.86 498.893L989.031 501.536L989.117 502.179L989.244 502.815L1008.86 498.893ZM1006.41 509.393L1023.05 520.487L1023.05 520.487L1006.41 509.393ZM994.856 516.743L989.807 497.391L989.787 497.396L989.766 497.402L994.856 516.743ZM981.556 519.893L984.844 539.621L985.261 539.551L985.676 539.464L981.556 519.893ZM968.606 521.993L965.486 502.238L951.969 504.372L949.062 517.744L968.606 521.993ZM965.106 545.443L945.234 543.185L945.211 543.388L945.192 543.591L965.106 545.443ZM963.006 576.943L943.024 576.093L943.015 576.305L943.01 576.518L963.006 576.943ZM963.356 608.443L943.377 609.372L943.377 609.372L963.356 608.443ZM966.156 631.193L946.86 636.455L946.873 636.501L946.885 636.546L966.156 631.193ZM958.456 652.193L970.128 668.433L970.293 668.315L970.456 668.193L958.456 652.193ZM934.656 652.893L944.733 635.617L944.356 635.398L943.971 635.195L934.656 652.893ZM923.456 640.293L941.344 631.349L941.273 631.207L941.2 631.066L923.456 640.293ZM915.756 619.993L896.287 624.574L896.368 624.916L896.46 625.255L915.756 619.993ZM911.206 594.793L891.368 597.336L891.372 597.369L891.377 597.402L911.206 594.793ZM908.406 568.543L888.471 570.159L888.473 570.182L888.475 570.204L908.406 568.543ZM906.656 544.393L886.665 545.018L886.675 545.329L886.695 545.641L906.656 544.393ZM907.551 506.257C901.188 505.748 894.823 505.493 888.456 505.493V545.493C893.755 545.493 899.056 545.705 904.361 546.129L907.551 506.257ZM889.255 505.509C885.323 505.352 881.465 504.648 877.63 503.369L864.981 541.317C872.346 543.772 879.922 545.168 887.656 545.477L889.255 505.509ZM876.987 503.167C875.501 502.727 874.792 502.303 874.552 502.137C874.363 502.006 874.451 502.032 874.565 502.213L840.746 523.573C846.741 533.065 855.893 538.636 865.624 541.519L876.987 503.167ZM874.964 502.872C874.296 501.719 874.396 501.335 874.406 501.233L834.605 497.253C833.682 506.484 835.882 515.201 840.347 522.914L874.964 502.872ZM874.406 501.233C874.41 501.201 874.413 501.18 874.415 501.17C874.416 501.165 874.417 501.162 874.417 501.16C874.417 501.159 874.417 501.158 874.417 501.158C874.418 501.157 874.418 501.157 874.418 501.157C874.418 501.157 874.418 501.157 874.418 501.157C874.418 501.158 874.418 501.158 874.417 501.158C874.417 501.158 874.417 501.158 874.418 501.157C874.418 501.155 874.421 501.148 874.428 501.133C874.444 501.099 874.578 500.822 875.046 500.322L845.865 472.964C839.649 479.594 835.549 487.808 834.605 497.253L874.406 501.233ZM875.02 500.35C875.115 500.249 875.213 500.164 875.453 500.052C875.731 499.923 876.412 499.665 877.714 499.521L873.297 459.765C863.092 460.899 853.401 464.957 845.892 472.936L875.02 500.35ZM877.316 499.561C881.578 499.174 885.67 499.083 889.604 499.27L891.507 459.316C885.641 459.036 879.7 459.179 873.695 459.725L877.316 499.561ZM889.648 499.272C895.083 499.519 900.519 499.643 905.956 499.643V459.643C901.125 459.643 896.295 459.533 891.464 459.314L889.648 499.272ZM925.956 479.643C925.956 475.802 926.162 470.197 926.619 462.653L886.692 460.233C886.216 468.089 885.956 474.617 885.956 479.643H925.956ZM926.621 462.618C927.056 455.219 927.823 447.3 928.935 438.852L889.277 433.634C888.055 442.919 887.188 451.801 886.69 460.269L926.621 462.618ZM928.943 438.786C930.003 430.522 931.595 422.232 933.729 413.911L894.982 403.976C892.449 413.854 890.542 423.764 889.268 433.7L928.943 438.786ZM933.759 413.794C935.776 405.724 938.281 399.145 941.103 393.855L905.809 375.031C901.163 383.741 897.602 393.496 894.953 404.092L933.759 413.794ZM941.103 393.855C943.759 388.875 946.367 386.083 948.519 384.518L924.992 352.168C916.878 358.07 910.619 366.011 905.809 375.031L941.103 393.855ZM948.177 384.761C948.425 384.588 948.575 384.534 948.823 384.493C949.144 384.441 950.039 384.361 951.732 384.731L960.28 345.655C948.38 343.052 936.051 344.47 925.334 351.925L948.177 384.761ZM951.338 384.641C953.783 385.228 954.996 386.105 955.792 386.95L984.92 359.536C978.249 352.448 969.895 347.959 960.673 345.745L951.338 384.641ZM956.648 387.807C957.309 388.429 958.013 389.362 958.444 391.515L997.667 383.671C995.765 374.157 991.336 365.524 984.063 358.679L956.648 387.807ZM958.367 391.109C959.24 396 959.668 402.06 959.463 409.438L999.448 410.548C999.71 401.126 999.204 392.253 997.744 384.077L958.367 391.109ZM959.463 409.438C959.245 417.294 958.698 425.413 957.816 433.799L997.596 437.987C998.58 428.64 999.2 419.492 999.448 410.548L959.463 409.438ZM957.816 433.799C956.902 442.475 955.876 451.03 954.736 459.465L994.376 464.821C995.569 455.989 996.642 447.044 997.596 437.987L957.816 433.799ZM954.672 459.993C953.715 468.838 952.989 476.934 952.5 484.263L992.411 486.923C992.856 480.252 993.529 472.714 994.44 464.293L954.672 459.993ZM972.456 505.593H989.956V465.593H972.456V505.593ZM989.956 505.593C991.116 505.593 991.541 505.741 991.458 505.715C991.409 505.699 991.246 505.642 991.01 505.513C990.77 505.383 990.504 505.204 990.24 504.978L1016.27 474.608C1008.4 467.864 998.863 465.593 989.956 465.593V505.593ZM990.899 505.519C990.98 505.583 990.563 505.273 990.073 504.475C989.549 503.625 989.172 502.591 989.031 501.536L1028.68 496.25C1027.4 486.68 1022.2 479.244 1015.61 474.067L990.899 505.519ZM989.244 502.815C989.03 501.746 989.056 500.609 989.291 499.598C989.512 498.652 989.823 498.211 989.765 498.299L1023.05 520.487C1027.76 513.422 1030.39 504.593 1028.47 494.971L989.244 502.815ZM989.765 498.299C989.999 497.947 990.256 497.648 990.504 497.41C990.748 497.174 990.941 497.039 991.031 496.982C991.192 496.88 990.895 497.107 989.807 497.391L999.904 536.095C1008.48 533.859 1017.22 529.223 1023.05 520.487L989.765 498.299ZM989.766 497.402C985.65 498.485 981.54 499.458 977.435 500.322L985.676 539.464C990.438 538.461 995.195 537.335 999.946 536.085L989.766 497.402ZM978.268 500.165C974.127 500.855 969.866 501.546 965.486 502.238L971.725 541.748C976.212 541.04 980.585 540.331 984.844 539.621L978.268 500.165ZM949.062 517.744C947.678 524.11 946.423 532.722 945.234 543.185L984.978 547.701C986.122 537.631 987.2 530.609 988.149 526.242L949.062 517.744ZM945.192 543.591C944.225 553.985 943.503 564.821 943.024 576.093L982.988 577.793C983.441 567.132 984.12 556.968 985.02 547.296L945.192 543.591ZM943.01 576.518C942.768 587.895 942.888 598.849 943.377 609.372L983.334 607.514C982.89 597.971 982.777 587.924 983.001 577.368L943.01 576.518ZM943.377 609.372C943.863 619.823 944.872 629.165 946.86 636.455L985.451 625.931C984.639 622.955 983.781 617.13 983.334 607.514L943.377 609.372ZM946.885 636.546C947.024 637.044 946.986 637.146 946.989 636.928C946.991 636.821 947.002 636.66 947.039 636.461C947.075 636.261 947.131 636.056 947.203 635.858C947.275 635.661 947.352 635.505 947.414 635.396C947.476 635.288 947.51 635.248 947.491 635.272C947.449 635.325 947.172 635.656 946.456 636.193L970.456 668.193C976.504 663.657 981.845 657.574 984.758 649.628C987.714 641.566 987.517 633.367 985.426 625.84L946.885 636.546ZM946.783 635.953C946.225 636.354 945.941 636.457 945.933 636.46C945.927 636.462 945.968 636.447 946.049 636.431C946.131 636.415 946.224 636.404 946.318 636.402C946.528 636.396 946.567 636.433 946.363 636.375C946.136 636.31 945.596 636.121 944.733 635.617L924.578 670.169C931.28 674.078 939.026 676.633 947.494 676.384C956.05 676.133 963.684 673.065 970.128 668.433L946.783 635.953ZM943.971 635.195C944.349 635.394 943.157 634.974 941.344 631.349L905.567 649.237C909.821 657.745 916.096 665.726 925.341 670.591L943.971 635.195ZM941.2 631.066C938.945 626.729 936.853 621.338 935.051 614.731L896.46 625.255C898.858 634.048 901.9 642.19 905.711 649.52L941.2 631.066ZM935.224 615.412C933.524 608.189 932.123 600.451 931.035 592.184L891.377 597.402C892.622 606.869 894.254 615.931 896.287 624.574L935.224 615.412ZM931.043 592.25C929.911 583.418 929.01 574.963 928.337 566.882L888.475 570.204C889.201 578.923 890.167 587.968 891.368 597.336L931.043 592.25ZM928.34 566.927C927.649 558.398 927.075 550.472 926.617 543.145L886.695 545.641C887.17 553.248 887.763 561.422 888.471 570.159L928.34 566.927ZM926.646 543.768C926.411 536.241 926.173 530.036 925.931 525.194L885.981 527.192C886.205 531.683 886.434 537.612 886.665 545.018L926.646 543.768ZM1139.15 513.943L1132.06 532.643L1155.78 541.64L1158.99 516.476L1139.15 513.943ZM1133.2 489.093L1118.19 502.306L1118.47 502.624L1118.76 502.931L1133.2 489.093ZM1108.7 484.543L1103.85 465.14L1103.65 465.192L1103.44 465.248L1108.7 484.543ZM1094.7 489.793L1103.22 507.889L1103.44 507.788L1103.65 507.682L1094.7 489.793ZM1083.15 496.443L1094.25 513.084L1094.37 513.005L1094.48 512.924L1083.15 496.443ZM1072.3 504.143L1083.63 520.624L1083.97 520.39L1084.3 520.143L1072.3 504.143ZM1060.4 511.843L1070.69 528.993L1070.76 528.951L1070.83 528.909L1060.4 511.843ZM1047.45 515.343L1044.97 535.189L1045.05 535.198L1045.12 535.206L1047.45 515.343ZM1035.55 510.093L1047.26 493.879L1047.25 493.871L1047.24 493.862L1035.55 510.093ZM1033.1 475.443L1016.37 464.483L1016.33 464.555L1016.28 464.628L1033.1 475.443ZM1050.95 455.493L1064.12 470.545L1064.14 470.53L1064.16 470.516L1050.95 455.493ZM1076.5 437.993L1085.8 455.701L1085.88 455.659L1085.96 455.616L1076.5 437.993ZM1106.25 426.093L1111.52 445.388L1111.52 445.388L1106.25 426.093ZM1136 423.293L1134.06 443.199L1134.3 443.222L1134.54 443.24L1136 423.293ZM1162.25 432.393L1151.05 448.959L1151.16 449.034L1151.27 449.107L1162.25 432.393ZM1181.5 456.893L1163.1 464.724L1163.13 464.796L1163.16 464.868L1181.5 456.893ZM1187.8 488.743L1167.82 487.855L1167.81 488.077L1167.81 488.299L1187.8 488.743ZM1184.3 520.243L1203.9 524.251L1203.91 524.208L1203.92 524.165L1184.3 520.243ZM1177.65 551.743L1197.18 556.082L1197.19 556.037L1197.2 555.992L1177.65 551.743ZM1174.85 583.593L1194.84 582.853L1194.84 582.789L1194.84 582.724L1174.85 583.593ZM1178.35 595.143L1167.26 611.784L1167.93 612.233L1168.64 612.626L1178.35 595.143ZM1185.35 596.893V616.893H1186.26L1187.16 616.811L1185.35 596.893ZM1192.35 597.593L1186.03 616.567L1186.32 616.663L1186.61 616.75L1192.35 597.593ZM1196.9 606.693L1216.77 604.401L1216.76 604.253L1216.74 604.106L1196.9 606.693ZM1191.65 623.143L1176.47 610.127L1176.47 610.127L1191.65 623.143ZM1175.55 632.243L1172.04 612.555L1171.98 612.566L1171.91 612.577L1175.55 632.243ZM1155.25 628.043L1145.64 645.579L1145.64 645.579L1155.25 628.043ZM1136.35 604.943L1154.46 596.445L1154.35 596.221L1154.24 595.999L1136.35 604.943ZM1133.9 599.693L1114.5 604.544L1114.89 606.098L1115.52 607.571L1133.9 599.693ZM1132.15 594.093L1150.88 587.071L1138.06 552.884L1116.15 582.093L1132.15 594.093ZM1115 612.993L1101.4 598.337L1101.26 598.461L1101.13 598.587L1115 612.993ZM1094 626.293L1087.17 607.497L1087.11 607.517L1087.06 607.538L1094 626.293ZM1075.1 629.093L1073.63 649.038L1073.63 649.038L1075.1 629.093ZM1057.95 624.193L1048.03 641.558L1048.2 641.656L1048.38 641.751L1057.95 624.193ZM1045.35 612.643L1028.83 623.91L1028.95 624.09L1029.08 624.268L1045.35 612.643ZM1038.7 594.443L1058.53 591.8L1058.53 591.782L1058.52 591.765L1038.7 594.443ZM1041.15 567.143L1060.35 572.761L1060.37 572.699L1060.38 572.637L1041.15 567.143ZM1053.75 539.843L1070.4 550.937L1070.4 550.937L1053.75 539.843ZM1074.05 518.493L1085.9 534.606L1086.05 534.495L1086.2 534.38L1074.05 518.493ZM1099.6 507.643L1102.15 527.481L1102.16 527.48L1102.16 527.479L1099.6 507.643ZM1119.55 508.343L1115.06 527.831L1115.48 527.929L1115.91 528.009L1119.55 508.343ZM1091.2 556.293L1073.32 547.349L1073.32 547.349L1091.2 556.293ZM1084.9 573.093L1065.18 569.805L1065.09 570.343L1065.03 570.884L1084.9 573.093ZM1086.65 581.493L1073.64 596.678L1074.13 597.102L1074.65 597.493L1086.65 581.493ZM1095.05 581.143L1103.07 599.466L1103.54 599.261L1104 599.032L1095.05 581.143ZM1108.7 570.293L1122.85 584.435L1122.85 584.435L1108.7 570.293ZM1122.35 549.643L1142.19 552.23L1142.19 552.177L1142.2 552.124L1122.35 549.643ZM1105.2 540.543L1113.83 558.586L1113.99 558.51L1114.15 558.432L1105.2 540.543ZM1158.99 516.476C1160.82 502.178 1158.75 486.841 1147.64 475.255L1118.76 502.931C1118.81 502.978 1118.86 503.034 1118.92 503.154C1118.99 503.284 1119.13 503.59 1119.27 504.163C1119.55 505.366 1119.8 507.648 1119.32 511.41L1158.99 516.476ZM1148.22 475.881C1135.94 461.93 1118.38 461.508 1103.85 465.14L1113.55 503.946C1117.39 502.988 1119.19 503.172 1119.58 503.244C1119.7 503.268 1119.49 503.244 1119.11 503.032C1118.71 502.813 1118.39 502.535 1118.19 502.306L1148.22 475.881ZM1103.44 465.248C1097.2 466.949 1091.28 469.144 1085.76 471.905L1103.65 507.682C1106.53 506.242 1109.94 504.937 1113.97 503.838L1103.44 465.248ZM1086.19 471.697C1081.21 474.04 1076.42 476.802 1071.82 479.962L1094.48 512.924C1097.35 510.951 1100.27 509.28 1103.22 507.889L1086.19 471.697ZM1072.06 479.802C1068.22 482.361 1064.3 485.145 1060.3 488.143L1084.3 520.143C1087.77 517.541 1091.09 515.191 1094.25 513.084L1072.06 479.802ZM1060.97 487.662C1057.56 490.009 1053.9 492.382 1049.98 494.777L1070.83 528.909C1075.31 526.171 1079.58 523.41 1083.63 520.624L1060.97 487.662ZM1050.11 494.693C1049.03 495.341 1048.49 495.5 1048.45 495.511C1048.44 495.513 1048.57 495.479 1048.81 495.458C1049.06 495.437 1049.39 495.433 1049.79 495.48L1045.12 535.206C1054.83 536.348 1063.59 533.253 1070.69 528.993L1050.11 494.693ZM1049.93 495.498C1050.55 495.575 1049.72 495.652 1047.26 493.879L1023.84 526.307C1029.79 530.601 1036.89 534.178 1044.97 535.189L1049.93 495.498ZM1047.24 493.862C1046.16 493.086 1046.14 492.794 1046.38 493.213C1046.5 493.419 1046.62 493.701 1046.71 494.028C1046.79 494.351 1046.8 494.591 1046.8 494.693H1006.8C1006.8 508.434 1013.91 519.155 1023.87 526.324L1047.24 493.862ZM1046.8 494.693C1046.8 493.035 1047.32 490.319 1049.93 486.258L1016.28 464.628C1010.49 473.634 1006.8 483.752 1006.8 494.693H1046.8ZM1049.83 486.404C1053.08 481.453 1057.73 476.141 1064.12 470.545L1037.78 440.442C1029.25 447.911 1022 455.9 1016.37 464.483L1049.83 486.404ZM1064.16 470.516C1070.63 464.826 1077.83 459.885 1085.8 455.701L1067.21 420.285C1056.51 425.901 1046.68 432.627 1037.75 440.47L1064.16 470.516ZM1085.96 455.616C1094.22 451.182 1102.74 447.783 1111.52 445.388L1100.99 406.798C1089.24 410.003 1077.92 414.537 1067.05 420.37L1085.96 455.616ZM1111.52 445.388C1119.69 443.159 1127.16 442.525 1134.06 443.199L1137.95 403.388C1125.72 402.194 1113.35 403.427 1100.99 406.798L1111.52 445.388ZM1134.54 443.24C1140.63 443.685 1146.02 445.555 1151.05 448.959L1173.46 415.827C1162.63 408.498 1150.51 404.301 1137.46 403.346L1134.54 443.24ZM1151.27 449.107C1155.48 451.874 1159.64 456.581 1163.1 464.724L1199.91 449.062C1194.04 435.272 1185.36 423.645 1173.24 415.679L1151.27 449.107ZM1163.16 464.868C1166.76 473.13 1168.14 480.726 1167.82 487.855L1207.78 489.631C1208.4 475.76 1205.59 462.123 1199.85 448.919L1163.16 464.868ZM1167.81 488.299C1167.6 497.608 1166.57 506.944 1164.69 516.321L1203.92 524.165C1206.24 512.542 1207.54 500.878 1207.8 489.187L1167.81 488.299ZM1164.71 516.235C1162.63 526.418 1160.43 536.837 1158.11 547.494L1197.2 555.992C1199.55 545.182 1201.78 534.602 1203.9 524.251L1164.71 516.235ZM1158.13 547.404C1155.42 559.611 1154.33 571.978 1154.87 584.462L1194.84 582.724C1194.44 573.741 1195.22 564.875 1197.18 556.082L1158.13 547.404ZM1154.87 584.333C1155.02 588.347 1155.48 592.784 1156.76 597.006C1157.94 600.896 1160.64 607.373 1167.26 611.784L1189.45 578.502C1191.77 580.048 1193.17 581.835 1193.94 583.068C1194.68 584.267 1194.97 585.165 1195.04 585.405C1195.16 585.777 1194.93 585.139 1194.84 582.853L1154.87 584.333ZM1168.64 612.626C1173.92 615.556 1179.63 616.893 1185.35 616.893V576.893C1185.6 576.893 1186.01 576.922 1186.53 577.053C1187.06 577.185 1187.59 577.392 1188.07 577.66L1168.64 612.626ZM1187.16 616.811C1187.43 616.787 1186.94 616.871 1186.03 616.567L1198.68 578.619C1193.57 576.915 1188.41 576.533 1183.54 576.975L1187.16 616.811ZM1186.61 616.75C1180.69 614.973 1178.07 610.767 1177.35 609.337C1176.7 608.03 1176.86 607.654 1177.07 609.28L1216.74 604.106C1216.25 600.366 1215.3 595.789 1213.13 591.449C1210.9 586.986 1206.35 580.913 1198.1 578.437L1186.61 616.75ZM1177.04 608.986C1177.06 609.212 1177.05 609.315 1177.05 609.323C1177.05 609.327 1177.05 609.302 1177.06 609.275C1177.07 609.249 1177.06 609.293 1176.99 609.415C1176.92 609.542 1176.76 609.782 1176.47 610.127L1206.84 636.159C1214.43 627.301 1218.15 616.343 1216.77 604.401L1177.04 608.986ZM1176.47 610.127C1175.36 611.417 1174.17 612.174 1172.04 612.555L1179.07 651.932C1190.01 649.979 1199.54 644.669 1206.84 636.159L1176.47 610.127ZM1171.91 612.577C1171.31 612.688 1169.24 612.904 1164.87 610.507L1145.64 645.579C1155.73 651.115 1167.2 654.131 1179.2 651.909L1171.91 612.577ZM1164.87 610.507C1162.86 609.402 1158.92 605.957 1154.46 596.445L1118.25 613.441C1124.52 626.796 1133.19 638.751 1145.64 645.579L1164.87 610.507ZM1154.24 595.999C1153.46 594.424 1152.81 593.032 1152.29 591.815L1115.52 607.571C1116.4 609.62 1117.39 611.729 1118.47 613.887L1154.24 595.999ZM1153.31 594.842C1152.65 592.214 1151.84 589.622 1150.88 587.071L1113.43 601.116C1113.87 602.297 1114.23 603.439 1114.5 604.544L1153.31 594.842ZM1116.15 582.093C1112.03 587.589 1107.13 593.009 1101.4 598.337L1128.61 627.649C1135.94 620.843 1142.48 613.664 1148.15 606.093L1116.15 582.093ZM1101.13 598.587C1096.71 602.847 1092.07 605.716 1087.17 607.497L1100.84 645.089C1111.34 641.27 1120.7 635.272 1128.88 627.399L1101.13 598.587ZM1087.06 607.538C1083.27 608.94 1079.84 609.389 1076.58 609.148L1073.63 649.038C1082.97 649.73 1092.13 648.313 1100.95 645.048L1087.06 607.538ZM1076.58 609.148C1072.89 608.874 1069.97 607.965 1067.53 606.635L1048.38 641.751C1056.21 646.021 1064.72 648.379 1073.63 649.038L1076.58 609.148ZM1067.88 606.828C1065.65 605.555 1063.57 603.729 1061.63 601.018L1029.08 624.268C1034.14 631.357 1040.46 637.231 1048.03 641.558L1067.88 606.828ZM1061.88 601.376C1060.36 599.153 1059.11 596.133 1058.53 591.8L1018.88 597.086C1020.17 606.754 1023.35 615.866 1028.83 623.91L1061.88 601.376ZM1058.52 591.765C1057.78 586.283 1058.22 580.023 1060.35 572.761L1021.96 561.525C1018.48 573.396 1017.29 585.336 1018.88 597.121L1058.52 591.765ZM1060.38 572.637C1062.62 564.807 1065.95 557.599 1070.4 550.937L1037.11 528.749C1030.35 538.887 1025.29 549.879 1021.92 561.649L1060.38 572.637ZM1070.4 550.937C1074.74 544.427 1079.89 539.024 1085.9 534.606L1062.21 502.38C1052.35 509.629 1043.97 518.459 1037.11 528.749L1070.4 550.937ZM1086.2 534.38C1091.59 530.258 1096.85 528.16 1102.15 527.481L1097.06 487.805C1084.16 489.459 1072.38 494.595 1061.91 502.606L1086.2 534.38ZM1102.16 527.479C1107.44 526.798 1111.66 527.048 1115.06 527.831L1124.05 488.855C1115.31 486.839 1106.24 486.621 1097.04 487.808L1102.16 527.479ZM1115.91 528.009C1120.9 528.932 1126.27 530.447 1132.06 532.643L1146.25 495.243C1138.5 492.305 1130.81 490.088 1123.2 488.677L1115.91 528.009ZM1073.32 547.349C1069.54 554.904 1066.37 562.633 1065.18 569.805L1104.63 576.381C1104.84 575.153 1105.87 571.682 1109.09 565.237L1073.32 547.349ZM1065.03 570.884C1064.49 575.757 1063.73 588.181 1073.64 596.678L1099.67 566.308C1103.16 569.304 1104.26 572.76 1104.57 574.264C1104.86 575.664 1104.68 576.206 1104.78 575.302L1065.03 570.884ZM1074.65 597.493C1085.63 605.726 1097.76 601.79 1103.07 599.466L1087.04 562.82C1086.5 563.055 1087.39 562.553 1089.32 562.473C1091.57 562.379 1095.19 562.898 1098.65 565.493L1074.65 597.493ZM1104 599.032C1110.63 595.717 1116.99 590.292 1122.85 584.435L1094.56 556.151C1089.69 561.027 1086.95 562.835 1086.11 563.255L1104 599.032ZM1122.85 584.435C1127.62 579.661 1131.84 574.792 1135.1 569.859C1138.25 565.089 1141.29 559.097 1142.19 552.23L1102.52 547.056C1102.72 545.556 1103.13 545.689 1101.73 547.802C1100.44 549.753 1098.19 552.525 1094.56 556.151L1122.85 584.435ZM1142.2 552.124C1143.28 543.484 1142.21 528.286 1127.45 520.905L1109.56 556.682C1108.15 555.976 1106.71 554.92 1105.47 553.489C1104.24 552.072 1103.49 550.619 1103.07 549.419C1102.29 547.237 1102.64 546.112 1102.51 547.162L1142.2 552.124ZM1127.45 520.905C1115.53 514.944 1103.56 519.007 1096.26 522.655L1114.15 558.432C1115.69 557.659 1116.01 557.746 1115.34 557.835C1114.49 557.946 1112.23 558.016 1109.56 556.682L1127.45 520.905ZM1096.57 522.5C1085.65 527.726 1078.34 537.306 1073.32 547.349L1109.09 565.237C1112 559.413 1114.03 558.494 1113.83 558.586L1096.57 522.5ZM1236.9 391.093L1254.42 400.731L1254.88 399.901L1255.26 399.031L1236.9 391.093ZM1253 372.193L1243.14 354.793L1253 372.193ZM1273.65 367.293L1271.59 387.187L1271.96 387.224L1272.32 387.249L1273.65 367.293ZM1291.15 375.693L1276.35 389.147L1276.51 389.318L1276.67 389.486L1291.15 375.693ZM1296.4 396.693L1276.56 394.15L1276.55 394.26L1276.54 394.371L1296.4 396.693ZM1287.3 449.543L1306.78 454.079L1306.79 454.05L1306.79 454.021L1287.3 449.543ZM1276.45 500.993L1256.8 497.275L1256.78 497.381L1256.76 497.487L1276.45 500.993ZM1270.5 552.093L1250.53 550.999L1250.53 550.999L1270.5 552.093ZM1275.05 603.893L1294.62 599.773L1294.59 599.622L1294.56 599.472L1275.05 603.893ZM1276.1 616.143L1296.06 617.473L1296.06 617.432L1296.06 617.391L1276.1 616.143ZM1270.15 626.293L1256.98 611.242L1256.95 611.269L1256.92 611.296L1270.15 626.293ZM1257.9 631.893L1256.79 611.924L1256.76 611.926L1256.73 611.928L1257.9 631.893ZM1246.35 626.993L1232.63 641.545L1232.65 641.564L1232.67 641.584L1246.35 626.993ZM1227.45 595.493L1208.44 601.719L1208.46 601.768L1208.48 601.818L1227.45 595.493ZM1218.35 551.393L1198.43 553.151L1198.44 553.296L1198.45 553.441L1218.35 551.393ZM1217.3 502.393L1197.33 501.299L1197.32 501.43L1197.32 501.56L1217.3 502.393ZM1228.85 415.243L1209.42 410.486L1209.39 410.63L1209.36 410.776L1228.85 415.243ZM1255.26 399.031C1257.57 393.692 1260.26 391.066 1262.86 389.593L1243.14 354.793C1231.74 361.253 1223.7 371.228 1218.54 383.155L1255.26 399.031ZM1262.86 389.593C1266.92 387.292 1269.67 386.988 1271.59 387.187L1275.71 347.399C1264.09 346.198 1253.08 349.161 1243.14 354.793L1262.86 389.593ZM1272.32 387.249C1274.22 387.376 1275.21 387.889 1276.35 389.147L1305.95 362.24C1297.76 353.231 1287.08 348.144 1274.98 347.337L1272.32 387.249ZM1276.67 389.486C1276.46 389.265 1276.47 389.095 1276.56 389.469C1276.69 389.995 1276.91 391.428 1276.56 394.15L1316.24 399.236C1317.88 386.422 1315.8 372.579 1305.63 361.9L1276.67 389.486ZM1276.54 394.371C1274.52 411.628 1271.61 428.525 1267.81 445.065L1306.79 454.021C1310.93 436.028 1314.08 417.691 1316.26 399.015L1276.54 394.371ZM1267.82 445.007C1263.79 462.313 1260.12 479.736 1256.8 497.275L1296.1 504.711C1299.32 487.717 1302.88 470.84 1306.78 454.079L1267.82 445.007ZM1256.76 497.487C1253.59 515.306 1251.51 533.145 1250.53 550.999L1290.47 553.187C1291.36 536.974 1293.25 520.747 1296.14 504.5L1256.76 497.487ZM1250.53 550.999C1249.49 569.977 1251.19 589.1 1255.54 608.314L1294.56 599.472C1290.98 583.686 1289.64 568.276 1290.47 553.187L1250.53 550.999ZM1255.48 608.013C1256.12 611.041 1256.24 613.292 1256.14 614.895L1296.06 617.391C1296.43 611.527 1295.85 605.612 1294.62 599.773L1255.48 608.013ZM1256.14 614.813C1256.26 613.115 1256.79 611.859 1257.18 611.191C1257.52 610.612 1257.64 610.666 1256.98 611.242L1283.32 641.345C1289.37 636.048 1295.34 628.133 1296.06 617.473L1256.14 614.813ZM1256.92 611.296C1256.15 611.971 1255.77 612.142 1255.8 612.129C1255.82 612.12 1255.92 612.073 1256.11 612.025C1256.3 611.977 1256.54 611.938 1256.79 611.924L1259.01 651.862C1268.74 651.321 1276.93 646.981 1283.38 641.29L1256.92 611.296ZM1256.73 611.928C1257.98 611.854 1259.09 612.11 1259.85 612.431C1260.51 612.713 1260.55 612.891 1260.03 612.402L1232.67 641.584C1239.19 647.698 1248.16 652.5 1259.07 651.859L1256.73 611.928ZM1260.07 612.441C1254.83 607.504 1250.07 600.101 1246.42 589.169L1208.48 601.818C1213.7 617.485 1221.53 631.082 1232.63 641.545L1260.07 612.441ZM1246.46 589.267C1242.52 577.241 1239.75 563.958 1238.24 549.345L1198.45 553.441C1200.22 570.561 1203.52 586.678 1208.44 601.719L1246.46 589.267ZM1238.27 549.635C1236.95 534.676 1236.62 519.209 1237.28 503.226L1197.32 501.56C1196.58 519.177 1196.95 536.377 1198.43 553.151L1238.27 549.635ZM1237.27 503.487C1238.18 486.948 1239.64 471.533 1241.65 457.228L1202.04 451.658C1199.86 467.219 1198.29 483.772 1197.33 501.299L1237.27 503.487ZM1241.65 457.228C1243.7 442.697 1245.94 430.214 1248.34 419.711L1209.36 410.776C1206.63 422.672 1204.2 436.323 1202.04 451.658L1241.65 457.228ZM1248.28 420C1251.04 408.726 1253.23 402.91 1254.42 400.731L1219.38 381.455C1215.44 388.609 1212.26 398.893 1209.42 410.486L1248.28 420ZM1318.37 526.193L1327.78 543.84L1338.37 538.193V526.193H1318.37ZM1318.02 503.793L1298.02 504.319L1298.02 504.326L1298.03 504.333L1318.02 503.793ZM1317.67 476.143L1297.67 475.667L1297.67 475.905V476.143H1317.67ZM1319.07 446.393L1299.12 445.001L1299.12 445.001L1319.07 446.393ZM1322.57 417.693L1342.25 421.226L1342.26 421.184L1342.27 421.141L1322.57 417.693ZM1329.22 392.493L1347.94 399.516L1347.98 399.422L1348.01 399.328L1329.22 392.493ZM1340.42 373.593L1354.9 387.386L1354.97 387.313L1355.04 387.239L1340.42 373.593ZM1351.62 366.593L1356.97 385.863L1357.31 385.77L1357.64 385.665L1351.62 366.593ZM1364.22 365.543L1360.74 385.239L1360.74 385.239L1364.22 365.543ZM1374.72 371.143L1360.58 385.285L1360.86 385.568L1361.15 385.839L1374.72 371.143ZM1380.32 382.693L1400.13 379.96L1400.12 379.912L1400.12 379.865L1380.32 382.693ZM1379.97 409.293L1360.08 407.177L1360.06 407.369L1360.04 407.56L1379.97 409.293ZM1376.12 442.893L1356.31 440.12L1356.28 440.315L1356.26 440.51L1376.12 442.893ZM1371.92 477.193L1391.76 479.726L1391.76 479.7L1391.76 479.674L1371.92 477.193ZM1370.52 504.143L1350.56 505.473L1352.54 535.179L1379.29 522.114L1370.52 504.143ZM1398.87 486.993L1410.73 503.094L1410.87 502.994L1411 502.892L1398.87 486.993ZM1426.87 469.493L1418.31 451.418L1418.11 451.509L1417.92 451.605L1426.87 469.493ZM1439.82 467.393L1436.53 487.121L1437.12 487.22L1437.72 487.283L1439.82 467.393ZM1450.67 471.943L1437.15 486.686L1437.5 487.005L1437.86 487.307L1450.67 471.943ZM1456.27 481.743L1436.74 486.082L1436.77 486.203L1436.8 486.324L1456.27 481.743ZM1454.52 494.693L1472.55 503.348L1472.65 503.125L1472.76 502.9L1454.52 494.693ZM1442.62 511.493L1456.76 525.635L1456.92 525.478L1457.07 525.318L1442.62 511.493ZM1425.47 526.193L1437.27 542.341L1437.32 542.303L1437.37 542.264L1425.47 526.193ZM1406.22 538.443L1415.66 556.073L1415.77 556.014L1415.88 555.955L1406.22 538.443ZM1387.67 547.193L1380.24 528.624L1331.17 548.252L1380.94 566.028L1387.67 547.193ZM1399.92 551.743L1392.8 570.433L1393.32 570.632L1393.85 570.802L1399.92 551.743ZM1415.32 556.993L1408.48 575.789L1408.61 575.837L1408.75 575.883L1415.32 556.993ZM1430.37 562.943L1422.16 581.181L1422.55 581.355L1422.94 581.513L1430.37 562.943ZM1441.22 568.543L1429.45 584.718L1429.56 584.791L1429.66 584.864L1441.22 568.543ZM1450.67 583.593L1430.8 585.886L1430.84 586.261L1430.9 586.634L1450.67 583.593ZM1448.22 600.393L1430.33 591.449L1430.16 591.78L1430.01 592.117L1448.22 600.393ZM1436.67 612.643L1426.83 595.232L1426.66 595.327L1426.49 595.425L1436.67 612.643ZM1419.17 614.393L1413.42 633.55L1413.55 633.587L1413.67 633.624L1419.17 614.393ZM1405.87 608.793L1395 625.584L1395.57 625.95L1396.15 626.276L1405.87 608.793ZM1393.62 601.093L1382.08 617.432L1382.62 617.814L1383.19 618.159L1393.62 601.093ZM1381.72 593.043L1370.85 609.834L1370.85 609.834L1381.72 593.043ZM1369.12 587.093L1375.14 568.021L1357.44 562.432L1350.55 579.665L1369.12 587.093ZM1368.77 599.343L1349.36 604.194L1349.48 604.645L1349.61 605.09L1368.77 599.343ZM1372.27 613.343L1352.66 617.265L1352.68 617.364L1352.7 617.463L1372.27 613.343ZM1372.27 625.943L1352.8 621.362L1352.67 621.912L1352.57 622.467L1372.27 625.943ZM1362.82 635.043L1355.8 616.316L1355.42 616.456L1355.06 616.61L1362.82 635.043ZM1350.92 635.393L1359.38 617.269L1359.09 617.135L1358.8 617.01L1350.92 635.393ZM1341.82 628.043L1325.69 639.87L1325.94 640.209L1326.2 640.537L1341.82 628.043ZM1334.82 615.793L1316.13 622.913L1316.34 623.463L1316.58 624L1334.82 615.793ZM1329.92 601.093L1310.62 606.355L1310.65 606.472L1310.69 606.587L1329.92 601.093ZM1326.42 586.743L1306.66 589.862L1306.74 590.365L1306.85 590.863L1326.42 586.743ZM1324.67 575.893L1304.79 578.102L1304.85 578.643L1304.94 579.181L1324.67 575.893ZM1320.47 569.593L1307.09 584.459L1307.44 584.774L1307.8 585.072L1320.47 569.593ZM1312.77 562.943L1299.25 577.686L1299.6 578.005L1299.96 578.307L1312.77 562.943ZM1304.72 555.243L1289.35 568.047L1289.93 568.744L1290.58 569.385L1304.72 555.243ZM1300.87 546.493L1320.81 544.959L1320.81 544.959L1300.87 546.493ZM1304.02 537.043L1287.89 525.216L1287.82 525.317L1287.74 525.418L1304.02 537.043ZM1338.37 526.193C1338.37 519.661 1338.25 512.005 1338.01 503.253L1298.03 504.333C1298.26 512.847 1298.37 520.125 1298.37 526.193H1338.37ZM1338.01 503.267C1337.78 494.589 1337.67 485.548 1337.67 476.143H1297.67C1297.67 485.872 1297.79 495.264 1298.02 504.319L1338.01 503.267ZM1337.66 476.619C1337.89 467.133 1338.34 457.521 1339.02 447.785L1299.12 445.001C1298.4 455.331 1297.91 465.554 1297.67 475.667L1337.66 476.619ZM1339.02 447.785C1339.67 438.408 1340.76 429.559 1342.25 421.226L1302.88 414.16C1301.11 424.027 1299.86 434.312 1299.12 445.001L1339.02 447.785ZM1342.27 421.141C1343.73 412.806 1345.65 405.631 1347.94 399.516L1310.49 385.471C1307.18 394.288 1304.68 403.913 1302.87 414.245L1342.27 421.141ZM1348.01 399.328C1350.07 393.685 1352.49 389.914 1354.9 387.386L1325.94 359.8C1319.01 367.072 1313.97 375.901 1310.42 385.658L1348.01 399.328ZM1355.04 387.239C1356.05 386.158 1356.66 385.949 1356.97 385.863L1346.26 347.323C1338.17 349.571 1331.32 354.028 1325.8 359.947L1355.04 387.239ZM1357.64 385.665C1359.48 385.084 1360.4 385.179 1360.74 385.239L1367.69 345.847C1360.1 344.507 1352.62 345.302 1345.6 347.521L1357.64 385.665ZM1360.74 385.239C1360.73 385.236 1360.68 385.226 1360.6 385.201C1360.53 385.175 1360.46 385.145 1360.41 385.115C1360.35 385.086 1360.33 385.071 1360.36 385.087C1360.38 385.104 1360.45 385.163 1360.58 385.285L1388.86 357.001C1383.12 351.265 1375.97 347.308 1367.69 345.847L1360.74 385.239ZM1361.15 385.839C1360.98 385.677 1360.81 385.495 1360.67 385.304C1360.53 385.114 1360.44 384.956 1360.4 384.856C1360.3 384.655 1360.42 384.804 1360.52 385.521L1400.12 379.865C1398.9 371.352 1395.34 362.958 1388.28 356.447L1361.15 385.839ZM1360.51 385.426C1361.12 389.911 1361.17 396.967 1360.08 407.177L1399.86 411.409C1401.1 399.685 1401.38 389.008 1400.13 379.96L1360.51 385.426ZM1360.04 407.56C1359.14 417.916 1357.9 428.768 1356.31 440.12L1395.92 445.666C1397.6 433.685 1398.93 422.137 1399.89 411.026L1360.04 407.56ZM1356.26 440.51C1354.86 452.146 1353.47 463.546 1352.07 474.712L1391.76 479.674C1393.17 468.44 1394.57 456.974 1395.98 445.276L1356.26 440.51ZM1352.08 474.66C1350.6 486.267 1349.98 496.67 1350.56 505.473L1390.47 502.813C1390.13 497.616 1390.44 490.053 1391.76 479.726L1352.08 474.66ZM1379.29 522.114C1390.4 516.693 1400.88 510.353 1410.73 503.094L1387 470.892C1379.12 476.7 1370.71 481.793 1361.74 486.172L1379.29 522.114ZM1411 502.892C1418.89 496.874 1427.16 491.71 1435.81 487.382L1417.92 451.605C1406.98 457.076 1396.58 463.579 1386.73 471.094L1411 502.892ZM1435.43 487.568C1436.15 487.226 1436.54 487.15 1436.63 487.135C1436.7 487.124 1436.64 487.139 1436.53 487.121L1443.11 447.665C1434.29 446.196 1425.85 447.845 1418.31 451.418L1435.43 487.568ZM1437.72 487.283C1438.26 487.34 1438.34 487.416 1438.12 487.324C1438.01 487.28 1437.86 487.204 1437.68 487.088C1437.49 486.972 1437.32 486.835 1437.15 486.686L1464.18 457.2C1457.7 451.259 1449.84 448.338 1441.91 447.503L1437.72 487.283ZM1437.86 487.307C1437.37 486.898 1437.01 486.436 1436.8 486.066C1436.61 485.727 1436.65 485.665 1436.74 486.082L1475.79 477.404C1474.08 469.695 1470.25 462.231 1463.47 456.579L1437.86 487.307ZM1436.8 486.324C1436.74 486.068 1436.71 485.83 1436.7 485.628C1436.69 485.429 1436.71 485.306 1436.71 485.277C1436.72 485.227 1436.67 485.611 1436.28 486.486L1472.76 502.9C1476.19 495.265 1477.91 486.405 1475.74 477.162L1436.8 486.324ZM1436.49 486.038C1434.72 489.713 1432.05 493.605 1428.16 497.669L1457.07 525.318C1463.45 518.648 1468.71 511.339 1472.55 503.348L1436.49 486.038ZM1428.48 497.351C1424.09 501.734 1419.13 505.996 1413.56 510.122L1437.37 542.264C1444.4 537.057 1450.88 531.519 1456.76 525.635L1428.48 497.351ZM1413.67 510.045C1408.3 513.965 1402.6 517.595 1396.56 520.932L1415.88 555.955C1423.37 551.824 1430.5 547.288 1437.27 542.341L1413.67 510.045ZM1396.77 520.813C1390.78 524.023 1385.27 526.61 1380.24 528.624L1395.1 565.763C1401.73 563.11 1408.59 559.863 1415.66 556.073L1396.77 520.813ZM1380.94 566.028C1384.03 567.13 1387.97 568.594 1392.8 570.433L1407.04 533.053C1402.07 531.159 1397.84 529.589 1394.39 528.358L1380.94 566.028ZM1393.85 570.802C1398.72 572.351 1403.6 574.014 1408.48 575.789L1422.15 538.197C1416.77 536.239 1411.38 534.401 1405.98 532.685L1393.85 570.802ZM1408.75 575.883C1413.62 577.577 1418.08 579.347 1422.16 581.181L1438.58 544.705C1433.32 542.339 1427.75 540.142 1421.89 538.103L1408.75 575.883ZM1422.94 581.513C1426.85 583.077 1428.77 584.221 1429.45 584.718L1452.98 552.368C1448.53 549.132 1443.22 546.543 1437.8 544.374L1422.94 581.513ZM1429.66 584.864C1430.65 585.563 1430.87 585.963 1430.84 585.916C1430.83 585.903 1430.81 585.858 1430.79 585.803C1430.77 585.749 1430.79 585.764 1430.8 585.886L1470.54 581.301C1469.1 568.858 1462.38 559.021 1452.78 552.223L1429.66 584.864ZM1430.9 586.634C1431.25 588.908 1430.91 590.283 1430.33 591.449L1466.11 609.337C1470.66 600.237 1471.95 590.411 1470.44 580.552L1430.9 586.634ZM1430.01 592.117C1429.59 593.034 1428.87 594.077 1426.83 595.232L1446.51 630.054C1455.2 625.143 1462.18 618.018 1466.43 608.669L1430.01 592.117ZM1426.49 595.425C1426.41 595.476 1426.39 595.477 1426.42 595.465C1426.46 595.453 1426.48 595.452 1426.45 595.455C1426.42 595.458 1425.88 595.511 1424.66 595.163L1413.67 633.624C1424.68 636.767 1436.31 636.088 1446.84 629.862L1426.49 595.425ZM1424.91 595.237C1421.61 594.244 1418.51 592.935 1415.58 591.31L1396.15 626.276C1401.63 629.318 1407.4 631.742 1413.42 633.55L1424.91 595.237ZM1416.73 592.002C1412.62 589.338 1408.39 586.68 1404.05 584.027L1383.19 618.159C1387.25 620.64 1391.19 623.115 1395 625.584L1416.73 592.002ZM1405.15 584.754C1400.97 581.803 1396.78 578.968 1392.58 576.252L1370.85 609.834C1374.59 612.251 1378.33 614.783 1382.08 617.432L1405.15 584.754ZM1392.58 576.252C1387.14 572.727 1381.31 569.97 1375.14 568.021L1363.1 606.165C1365.79 607.016 1368.37 608.225 1370.85 609.834L1392.58 576.252ZM1350.55 579.665C1347.2 588.027 1347.46 596.579 1349.36 604.194L1388.17 594.492C1387.95 593.626 1387.97 593.278 1387.97 593.352C1387.97 593.394 1387.96 593.533 1387.92 593.75C1387.88 593.969 1387.8 594.233 1387.69 594.521L1350.55 579.665ZM1349.61 605.09C1350.84 609.17 1351.85 613.228 1352.66 617.265L1391.88 609.421C1390.82 604.125 1389.5 598.849 1387.92 593.596L1349.61 605.09ZM1352.7 617.463C1353.09 619.348 1352.99 620.559 1352.8 621.362L1391.74 630.524C1393.41 623.394 1393.31 616.205 1391.84 609.223L1352.7 617.463ZM1352.57 622.467C1352.77 621.318 1353.17 620.167 1353.76 619.105C1354.34 618.057 1354.98 617.293 1355.51 616.787C1356.48 615.852 1356.92 615.894 1355.8 616.316L1369.84 653.77C1378.57 650.495 1389.5 643.374 1391.96 629.419L1352.57 622.467ZM1355.06 616.61C1354.65 616.784 1354.98 616.567 1355.93 616.539C1356.98 616.508 1358.22 616.729 1359.38 617.269L1342.46 653.517C1352.29 658.104 1362.31 656.957 1370.58 653.476L1355.06 616.61ZM1358.8 617.01C1359.24 617.202 1358.7 617.136 1357.44 615.549L1326.2 640.537C1330.53 645.95 1336.06 650.784 1343.04 653.776L1358.8 617.01ZM1357.95 616.216C1356.34 614.025 1354.68 611.196 1353.06 607.586L1316.58 624C1319.15 629.724 1322.16 635.061 1325.69 639.87L1357.95 616.216ZM1353.51 608.673C1351.84 604.292 1350.39 599.934 1349.15 595.599L1310.69 606.587C1312.25 612.052 1314.06 617.494 1316.13 622.913L1353.51 608.673ZM1349.21 595.831C1347.9 591.012 1346.83 586.614 1345.99 582.623L1306.85 590.863C1307.87 595.739 1309.14 600.907 1310.62 606.355L1349.21 595.831ZM1346.17 583.624C1345.47 579.162 1344.88 575.484 1344.4 572.605L1304.94 579.181C1305.39 581.902 1305.97 585.457 1306.66 589.862L1346.17 583.624ZM1344.55 573.684C1343.48 564.097 1337.52 557.701 1333.13 554.114L1307.8 585.072C1308 585.236 1307.49 584.862 1306.8 583.837C1306.07 582.741 1305.09 580.792 1304.79 578.102L1344.55 573.684ZM1333.85 554.727C1331.3 552.433 1328.54 550.049 1325.57 547.579L1299.96 578.307C1302.6 580.503 1304.97 582.553 1307.09 584.459L1333.85 554.727ZM1326.28 548.2C1323.69 545.82 1321.21 543.454 1318.86 541.101L1290.58 569.385C1293.36 572.166 1296.25 574.933 1299.25 577.686L1326.28 548.2ZM1320.08 542.439C1319.94 542.275 1320.1 542.421 1320.31 542.901C1320.54 543.409 1320.74 544.12 1320.81 544.959L1280.93 548.027C1281.54 555.967 1284.9 562.702 1289.35 568.047L1320.08 542.439ZM1320.81 544.959C1320.91 546.334 1320.69 547.459 1320.45 548.18C1320.23 548.843 1320.05 549.006 1320.29 548.668L1287.74 525.418C1283.56 531.271 1280.23 538.996 1280.93 548.027L1320.81 544.959ZM1320.15 548.87C1319.94 549.154 1320.2 548.708 1321.59 547.659C1322.93 546.648 1324.93 545.36 1327.78 543.84L1308.96 508.546C1301.15 512.709 1293.15 518.043 1287.89 525.216L1320.15 548.87ZM1505.33 371.843L1490.56 358.358L1490.44 358.493L1490.32 358.63L1505.33 371.843ZM1520.73 362.743L1518.25 342.897L1518.2 342.904L1518.15 342.911L1520.73 362.743ZM1535.78 365.543L1545.8 348.235L1545.8 348.235L1535.78 365.543ZM1545.93 377.443L1527.59 385.418L1527.74 385.748L1527.89 386.072L1545.93 377.443ZM1548.38 395.643L1568.15 398.684L1568.17 398.53L1568.2 398.376L1548.38 395.643ZM1541.73 431.693L1522.18 427.476L1522.18 427.476L1541.73 431.693ZM1533.68 467.743L1553.15 472.324L1553.16 472.282L1553.17 472.24L1533.68 467.743ZM1525.98 503.793L1545.61 507.641L1545.62 507.606L1545.62 507.57L1525.98 503.793ZM1520.73 539.843L1500.83 537.929L1500.82 538.02L1500.81 538.11L1520.73 539.843ZM1515.13 552.443L1528.7 567.139L1528.72 567.119L1528.74 567.099L1515.13 552.443ZM1504.63 557.343L1505.88 577.304L1506.43 577.27L1506.97 577.206L1504.63 557.343ZM1493.78 554.543L1504.07 537.393L1504.07 537.393L1493.78 554.543ZM1486.78 544.393L1506.19 539.542L1506.15 539.391L1506.11 539.24L1486.78 544.393ZM1479.78 489.093L1459.79 489.518L1459.79 489.74L1459.8 489.962L1479.78 489.093ZM1480.48 455.843L1500.44 457.091L1500.45 457.078L1500.45 457.065L1480.48 455.843ZM1484.33 422.943L1464.72 419.021L1464.68 419.231L1464.64 419.442L1484.33 422.943ZM1492.38 393.893L1473.78 386.55L1473.7 386.763L1473.62 386.979L1492.38 393.893ZM1513.38 631.543L1526.76 646.409L1526.96 646.229L1527.16 646.043L1513.38 631.543ZM1497.63 637.493L1496.8 657.476L1496.82 657.476L1496.83 657.477L1497.63 637.493ZM1482.23 630.843L1468.46 645.343L1468.65 645.529L1468.85 645.709L1482.23 630.843ZM1482.23 593.743L1468.46 579.243L1468.46 579.243L1482.23 593.743ZM1497.63 586.743L1498.47 606.726L1498.85 606.71L1499.23 606.679L1497.63 586.743ZM1513.38 592.343L1500 607.209L1500.21 607.398L1500.43 607.582L1513.38 592.343ZM1520.1 385.328C1522.92 382.247 1524.03 382.482 1523.32 382.575L1518.15 342.911C1506.7 344.404 1497.55 350.705 1490.56 358.358L1520.1 385.328ZM1523.21 382.589C1524.95 382.372 1525.49 382.696 1525.76 382.852L1545.8 348.235C1537.21 343.256 1527.72 341.714 1518.25 342.897L1523.21 382.589ZM1525.76 382.852C1525.98 382.979 1526.71 383.39 1527.59 385.418L1564.27 369.469C1560.49 360.763 1554.45 353.241 1545.8 348.235L1525.76 382.852ZM1527.89 386.072C1528.53 387.404 1529.05 389.432 1528.57 392.91L1568.2 398.376C1569.58 388.321 1568.47 378.215 1563.98 368.814L1527.89 386.072ZM1528.62 392.602C1526.81 404.345 1524.66 415.969 1522.18 427.476L1561.28 435.91C1563.94 423.617 1566.22 411.208 1568.15 398.684L1528.62 392.602ZM1522.18 427.476C1519.64 439.281 1516.97 451.204 1514.2 463.246L1553.17 472.24C1555.99 460.016 1558.7 447.906 1561.28 435.91L1522.18 427.476ZM1514.22 463.162C1511.35 475.332 1508.73 487.617 1506.34 500.016L1545.62 507.57C1547.91 495.703 1550.42 483.954 1553.15 472.324L1514.22 463.162ZM1506.36 499.945C1503.9 512.488 1502.05 525.15 1500.83 537.929L1540.64 541.757C1541.75 530.27 1543.4 518.898 1545.61 507.641L1506.36 499.945ZM1500.81 538.11C1500.73 538.958 1500.6 539.134 1500.71 538.895C1500.76 538.776 1500.86 538.591 1501.01 538.374C1501.17 538.156 1501.34 537.956 1501.52 537.787L1528.74 567.099C1536.37 560.017 1539.86 550.801 1540.66 541.576L1500.81 538.11ZM1501.57 537.747C1501.46 537.844 1501.53 537.758 1501.78 537.644C1501.89 537.593 1502 537.551 1502.11 537.521C1502.21 537.492 1502.28 537.482 1502.3 537.48L1506.97 577.206C1515.28 576.229 1522.67 572.701 1528.7 567.139L1501.57 537.747ZM1503.39 537.382C1503.49 537.376 1503.61 537.376 1503.75 537.389C1503.89 537.403 1504.02 537.426 1504.12 537.453C1504.34 537.509 1504.33 537.545 1504.07 537.393L1483.49 571.693C1490.13 575.677 1497.74 577.813 1505.88 577.304L1503.39 537.382ZM1504.07 537.393C1504.79 537.823 1505.43 538.434 1505.87 539.076C1506.28 539.664 1506.29 539.938 1506.19 539.542L1467.38 549.244C1469.59 558.068 1474.64 566.381 1483.49 571.693L1504.07 537.393ZM1506.11 539.24C1504.54 533.374 1503.17 526.048 1502.09 517.122L1462.38 521.964C1463.63 532.172 1465.29 541.412 1467.46 549.546L1506.11 539.24ZM1502.09 517.122C1500.99 508.125 1500.21 498.497 1499.76 488.224L1459.8 489.962C1460.29 501.156 1461.14 511.827 1462.38 521.964L1502.09 517.122ZM1499.78 488.668C1499.56 478.272 1499.78 467.746 1500.44 457.091L1460.52 454.595C1459.79 466.34 1459.54 477.981 1459.79 489.518L1499.78 488.668ZM1500.45 457.065C1501.1 446.34 1502.3 436.137 1504.02 426.444L1464.64 419.442C1462.63 430.749 1461.26 442.479 1460.52 454.621L1500.45 457.065ZM1503.95 426.865C1505.87 417.251 1508.29 408.582 1511.15 400.807L1473.62 386.979C1469.95 396.938 1467 407.635 1464.72 419.021L1503.95 426.865ZM1510.99 401.236C1513.82 394.048 1517.04 388.812 1520.35 385.056L1490.32 358.63C1483.36 366.541 1477.94 376.004 1473.78 386.55L1510.99 401.236ZM1500.38 611.593C1500.38 614.328 1500.02 615.88 1499.76 616.609C1499.54 617.23 1499.43 617.213 1499.61 617.043L1527.16 646.043C1537.12 636.582 1540.38 623.812 1540.38 611.593H1500.38ZM1500 616.677C1499.3 617.312 1498.92 617.456 1498.88 617.471C1498.84 617.485 1498.82 617.491 1498.78 617.497C1498.74 617.503 1498.63 617.517 1498.43 617.509L1496.83 657.477C1508.3 657.936 1518.54 653.809 1526.76 646.409L1500 616.677ZM1498.47 617.51C1498.08 617.494 1497.26 617.461 1495.61 615.977L1468.85 645.709C1476.54 652.625 1485.99 657.025 1496.8 657.476L1498.47 617.51ZM1496.01 616.343C1495.99 616.324 1495.89 616.26 1495.74 615.847C1495.55 615.342 1495.23 614.151 1495.23 611.943H1455.23C1455.23 624.031 1458.81 636.179 1468.46 645.343L1496.01 616.343ZM1495.23 611.943C1495.23 610.104 1495.51 609.159 1495.65 608.798C1495.76 608.509 1495.85 608.393 1496.01 608.243L1468.46 579.243C1459.05 588.184 1455.23 599.923 1455.23 611.943H1495.23ZM1496.01 608.243C1497.72 606.617 1498.41 606.728 1498.47 606.726L1496.8 566.76C1485.65 567.225 1476.08 572.003 1468.46 579.243L1496.01 608.243ZM1499.23 606.679C1499.38 606.667 1499.43 606.678 1499.39 606.673C1499.35 606.668 1499.29 606.655 1499.25 606.637C1499.2 606.621 1499.23 606.624 1499.34 606.691C1499.45 606.761 1499.68 606.914 1500 607.209L1526.76 577.477C1518.34 569.901 1507.78 565.868 1496.04 566.807L1499.23 606.679ZM1500.43 607.582C1499.83 607.068 1499.72 606.635 1499.84 606.965C1500.01 607.439 1500.38 608.831 1500.38 611.593H1540.38C1540.38 599.561 1537.19 586.328 1526.34 577.104L1500.43 607.582Z" fill="black" mask="url(#path-8-outside-1_11_118)"/>
</svg>
