<svg width="1754" height="352" viewBox="0 0 1754 352" fill="none" xmlns="http://www.w3.org/2000/svg">
<path d="M150.776 198.144C151.578 195.859 152.473 193.59 153.549 191.414M221.297 191.054C221.482 189.071 222.624 187.167 223.122 185.233M288.051 184.474C288.098 182.724 288.157 180.798 288.833 179.159M213.447 272.736C202.776 274.03 187.453 275.613 176.637 276.085C168.122 276.457 159.521 276.89 151.029 275.926C139.778 274.648 128.513 272.061 117.643 269.014C105.578 265.633 91.5785 260.912 82.9152 251.576C76.7039 244.883 71.4587 236.356 69.2211 227.546C67.8582 222.18 67.933 216.55 68.0708 211.065C68.3013 201.892 69.2901 192.842 72.3434 184.11C75.852 174.077 81.4048 163.954 87.4616 155.136C102.563 133.15 125.119 115.196 149.359 103.433C171.395 92.7393 195.856 87.1388 219.856 82.5394C245.207 77.681 272.018 77.6448 297.255 83.5495C306.099 85.6188 315.779 88.132 323.739 92.5077C331.642 96.8521 337.936 102.046 344.581 107.899C355.509 117.523 362.084 130.289 366.328 143.865C368.864 151.979 370.193 160.562 370.6 169.012C370.938 176.021 371.649 184.117 369.614 190.915C364.533 207.888 353.093 220.777 338.282 230.523C332.594 234.266 325.877 236.558 319.329 238.391C311.837 240.489 304.694 240.486 296.981 240.678C295.295 240.72 296.269 269.948 296.269 273.055C296.269 283.229 295.73 293.539 294.297 303.624C293.66 308.106 291.829 312.528 290.818 316.942C290.67 317.591 284.424 312.57 284.136 312.37C268.031 301.205 250.257 292.639 233.742 282.119C227.627 278.224 220.824 273.452 213.447 272.736Z" stroke="white" stroke-width="20" stroke-linecap="round"/>
<path d="M80.7289 81.7847C76.9926 80.0686 73.0361 77.0001 68.8596 72.5792C64.683 68.1583 60.7572 63.1915 57.0821 57.6787C53.4071 52.1659 50.1921 46.4656 47.4372 40.5777C44.4146 34.6214 42.323 29.284 41.1624 24.5655C40.1648 19.7362 40.6107 15.4277 42.5 11.6401C44.2262 7.96346 46.7958 5.34074 50.2087 3.77198C53.5169 2.02402 57.1268 1.57301 61.0384 2.41894C64.8454 3.08567 68.0863 5.51404 70.761 9.70407C73.4942 13.604 75.7381 17.8366 77.4926 22.4017C79.2472 26.9668 81.0018 31.532 82.7563 36.0971C84.4063 40.483 86.2716 44.8477 88.3524 49.1911C90.4332 53.5345 93.0556 57.635 96.2196 61.4924C98.2787 63.8479 99.2837 66.5443 99.2347 69.5816C99.0226 72.7298 98.2519 75.5067 96.9226 77.9123C95.3255 80.2495 93.0945 81.8911 90.2293 82.8372C87.3642 83.7833 84.1974 83.4325 80.7289 81.7847ZM3.5911 93.6616C1.12566 89.83 -0.0703047 85.6362 0.00319131 81.0802C0.0766873 76.5241 1.64592 72.5787 4.71088 69.2437C8.38205 64.996 12.5751 63.3976 17.29 64.4486C21.9002 65.3204 26.0612 67.3736 29.773 70.6084C34.7066 74.7651 40.0249 78.4099 45.7279 81.543C51.4308 84.676 57.2215 87.374 63.0998 89.6369C66.6267 90.9946 69.5244 93.0304 71.7928 95.7442C73.7934 98.3898 74.5708 101.867 74.1249 106.175C73.6667 111.243 71.8066 114.886 68.5446 117.103C65.1779 119.141 61.1834 120.104 56.5609 119.991C51.9384 119.879 46.8973 119.05 41.4376 117.503C35.8733 115.778 30.612 113.597 25.6539 110.959C20.5911 108.141 16.1223 105.171 12.2474 102.047C8.20939 99.0339 5.32396 96.2388 3.5911 93.6616ZM112.57 57.8887C111.582 55.8066 110.479 52.5514 109.26 48.1229C107.877 43.8053 106.769 39.1764 105.935 34.2362C104.937 29.4068 104.312 24.825 104.059 20.4907C103.539 16.0881 103.699 12.8503 104.539 10.7773C105.776 7.43319 107.565 4.84008 109.907 2.99795C112.086 1.26669 114.468 0.2735 117.053 0.0183841C119.475 -0.12587 121.937 0.578811 124.439 2.13243C126.673 3.61771 128.435 6.04987 129.725 9.42892C130.399 10.9734 131.055 13.6569 131.692 17.4794C132.167 21.4127 132.716 25.6703 133.342 30.2522C133.862 34.6548 134.33 38.9678 134.746 43.1912C135.162 47.4147 135.514 50.5545 135.804 52.6108C136.324 57.0134 135.809 60.618 134.258 63.4245C132.603 66.0517 130.587 67.6721 128.211 68.2857C125.568 68.8308 122.861 68.2925 120.091 66.6705C117.216 64.8693 114.71 61.9421 112.57 57.8887Z" fill="white"/>
<mask id="path-3-outside-1_73_2" maskUnits="userSpaceOnUse" x="388" y="15" width="1361" height="335" fill="black">
<rect fill="white" x="388" y="15" width="1361" height="335"/>
<path d="M459.9 141.9C461.533 137.7 463.633 133.5 466.2 129.3C468.767 125.1 471.917 121.25 475.65 117.75C479.383 114.017 483.7 110.75 488.6 107.95C493.733 105.15 499.45 103.167 505.75 102C511.35 101.067 517.767 101.067 525 102C532.233 102.7 538.767 104.567 544.6 107.6C550.667 110.633 555.1 114.95 557.9 120.55C560.7 126.15 560.583 133.15 557.55 141.55C555.683 147.15 552.183 151.933 547.05 155.9C542.15 159.633 536.317 161.267 529.55 160.8C519.517 160.333 511.35 161.383 505.05 163.95C498.983 166.283 494.2 169.9 490.7 174.8C487.433 179.7 485.217 185.65 484.05 192.65C482.883 199.65 482.067 207.35 481.6 215.75C481.367 223.917 481.25 232.667 481.25 242C481.483 251.333 481.133 260.9 480.2 270.7C479.267 280.033 476.933 288.083 473.2 294.85C469.467 301.617 463.4 305.117 455 305.35C447.3 305.583 441.467 302.9 437.5 297.3C433.767 291.467 431.433 284.817 430.5 277.35C429.1 266.15 427.933 254.483 427 242.35C426.3 230.217 425.367 217.967 424.2 205.6C423.267 193.233 421.75 181.1 419.65 169.2C417.783 157.3 414.867 146.1 410.9 135.6C408.8 130 408.1 124.4 408.8 118.8C409.5 113.2 412.183 108.65 416.85 105.15C422.45 100.95 427.817 99.2 432.95 99.9C438.317 100.6 442.983 102.933 446.95 106.9C451.15 110.867 454.417 116 456.75 122.3C459.083 128.6 460.133 135.133 459.9 141.9ZM637.506 212.6C633.539 222.4 632.139 231.15 633.306 238.85C634.473 246.55 637.039 252.5 641.006 256.7C645.206 260.667 650.456 262.533 656.756 262.3C663.056 261.833 669.589 258.567 676.356 252.5C679.389 249.7 681.956 246.317 684.056 242.35C686.156 238.383 688.839 234.067 692.106 229.4C696.539 223.1 702.256 219.017 709.256 217.15C716.489 215.283 723.373 216.683 729.906 221.35C734.573 224.85 737.723 228.7 739.356 232.9C741.223 236.867 741.806 241.067 741.106 245.5C740.406 249.933 738.656 254.483 735.856 259.15C733.056 263.583 729.556 267.9 725.356 272.1C714.623 282.6 703.539 290.417 692.106 295.55C680.673 300.683 669.473 303.483 658.506 303.95C647.773 304.417 637.506 302.667 627.706 298.7C617.906 294.733 609.389 288.9 602.156 281.2C594.923 273.267 589.089 263.7 584.656 252.5C580.456 241.067 578.473 228.233 578.706 214C578.939 200.233 581.506 186.817 586.406 173.75C591.306 160.683 598.073 148.9 606.706 138.4C615.339 127.9 625.373 119.267 636.806 112.5C648.473 105.5 660.956 101.3 674.256 99.9C684.756 98.7333 694.673 99.55 704.006 102.35C713.573 105.15 721.156 110.05 726.756 117.05C733.056 124.983 736.439 133.617 736.906 142.95C737.606 152.05 736.206 161.033 732.706 169.9C729.206 178.533 723.956 186.583 716.956 194.05C710.189 201.517 702.373 207.467 693.506 211.9C684.873 216.333 675.656 218.9 665.856 219.6C656.289 220.067 646.839 217.733 637.506 212.6ZM646.956 188.45C653.489 191.017 659.673 191.833 665.506 190.9C671.573 189.967 676.823 188.1 681.256 185.3C685.689 182.5 689.306 179.117 692.106 175.15C694.906 171.183 696.539 167.567 697.006 164.3C697.473 161.033 696.539 158.583 694.206 156.95C692.106 155.083 688.373 154.85 683.006 156.25C679.273 157.183 675.539 158.817 671.806 161.15C668.306 163.25 664.923 165.817 661.656 168.85C658.623 171.883 655.823 175.15 653.256 178.65C650.689 181.917 648.589 185.183 646.956 188.45ZM871.817 187.05C873.217 176.083 871.234 167.8 865.867 162.2C860.734 156.367 852.567 154.85 841.367 157.65C836.234 159.05 831.567 160.8 827.367 162.9C823.401 164.767 819.551 166.983 815.817 169.55C812.317 171.883 808.701 174.45 804.967 177.25C801.234 179.817 797.267 182.383 793.067 184.95C788.401 187.75 784.084 188.917 780.117 188.45C776.384 187.983 772.417 186.233 768.217 183.2C762.384 179 759.467 173.867 759.467 167.8C759.467 161.5 761.567 155.083 765.767 148.55C770.201 141.783 776.151 135.133 783.617 128.6C791.317 121.833 799.834 116 809.167 111.1C818.734 105.967 828.651 102 838.917 99.2C849.184 96.4 859.101 95.4667 868.667 96.4C878.234 97.1 886.984 100.133 894.917 105.5C903.084 110.867 909.501 119.033 914.167 130C918.834 140.733 920.934 151.35 920.467 161.85C920.234 172.35 919.067 182.85 916.967 193.35C914.867 203.617 912.651 214.117 910.317 224.85C907.984 235.35 907.051 245.967 907.517 256.7C907.751 263 908.917 266.85 911.017 268.25C913.117 269.417 915.451 270 918.017 270C920.584 269.767 922.917 270 925.017 270.7C927.351 271.4 928.867 274.433 929.567 279.8C930.267 285.867 928.517 291.35 924.317 296.25C920.117 301.15 914.751 304.183 908.217 305.35C901.917 306.517 895.151 305.117 887.917 301.15C880.684 297.183 874.384 289.483 869.017 278.05C868.084 276.183 867.267 274.433 866.567 272.8C866.101 270.933 865.517 269.067 864.817 267.2C859.917 273.733 854.201 280.033 847.667 286.1C841.367 292.167 834.367 296.6 826.667 299.4C820.367 301.733 814.067 302.667 807.767 302.2C801.467 301.733 795.751 300.1 790.617 297.3C785.717 294.5 781.517 290.65 778.017 285.75C774.517 280.617 772.301 274.55 771.367 267.55C770.201 258.917 771.017 249.817 773.817 240.25C776.617 230.45 780.817 221.35 786.417 212.95C792.017 204.55 798.784 197.433 806.717 191.6C814.651 185.533 823.167 181.917 832.267 180.75C839.501 179.817 846.151 180.05 852.217 181.45C858.517 182.617 865.051 184.483 871.817 187.05ZM823.867 229.4C820.367 236.4 818.267 242 817.567 246.2C817.101 250.4 817.684 253.2 819.317 254.6C821.184 256 823.984 255.883 827.717 254.25C831.451 252.383 836.001 248.767 841.367 243.4C849.767 235 854.317 228.117 855.017 222.75C855.717 217.15 854.434 213.533 851.167 211.9C847.901 210.267 843.467 210.85 837.867 213.65C832.501 216.217 827.834 221.467 823.867 229.4ZM969.563 64.2C973.296 55.5667 978.663 49.2667 985.663 45.3C992.663 41.3333 999.546 39.7 1006.31 40.4C1013.31 40.8667 1019.15 43.6667 1023.81 48.8C1028.48 53.7 1030.23 60.7 1029.06 69.8C1026.96 87.7667 1023.93 105.383 1019.96 122.65C1016 139.683 1012.38 156.833 1009.11 174.1C1006.08 191.133 1004.1 208.167 1003.16 225.2C1002.23 242.233 1003.75 259.5 1007.71 277C1008.65 281.433 1009 285.517 1008.76 289.25C1008.53 292.75 1006.55 296.133 1002.81 299.4C998.846 302.9 994.763 304.767 990.563 305C986.596 305.233 982.746 303.6 979.013 300.1C970.846 292.4 964.546 281.9 960.113 268.6C955.68 255.067 952.646 240.367 951.013 224.5C949.613 208.633 949.263 192.3 949.963 175.5C950.896 158.467 952.413 142.483 954.513 127.55C956.613 112.617 958.946 99.55 961.513 88.35C964.313 76.9167 966.996 68.8667 969.563 64.2ZM1086.03 199.3C1080.2 198.833 1074.36 198.6 1068.53 198.6C1062.7 198.367 1056.98 197.317 1051.38 195.45C1045.08 193.583 1040.53 190.433 1037.73 186C1035.16 181.567 1034.11 177.017 1034.58 172.35C1035.05 167.683 1037.03 163.483 1040.53 159.75C1044.26 155.783 1049.28 153.45 1055.58 152.75C1060.71 152.283 1065.73 152.167 1070.63 152.4C1075.76 152.633 1080.9 152.75 1086.03 152.75C1086.03 148.317 1086.26 142.25 1086.73 134.55C1087.2 126.617 1088.01 118.217 1089.18 109.35C1090.35 100.25 1092.1 91.15 1094.43 82.05C1096.76 72.7167 1099.8 64.55 1103.53 57.55C1107.26 50.55 1111.7 45.1833 1116.83 41.45C1122.2 37.7167 1128.61 36.6667 1136.08 38.3C1141.91 39.7 1146.7 42.3833 1150.43 46.35C1154.4 50.0833 1156.96 54.8667 1158.13 60.7C1159.3 67.2333 1159.76 74.7 1159.53 83.1C1159.3 91.5 1158.71 100.133 1157.78 109C1156.85 117.867 1155.8 126.617 1154.63 135.25C1153.7 143.883 1153 151.7 1152.53 158.7H1170.03C1175.63 158.7 1180.06 160.1 1183.33 162.9C1186.6 165.467 1188.46 168.5 1188.93 172C1189.63 175.5 1188.81 179 1186.48 182.5C1184.15 186 1180.3 188.45 1174.93 189.85C1170.5 191.017 1166.06 192.067 1161.63 193C1157.43 193.7 1153.11 194.4 1148.68 195.1C1147.51 200.467 1146.35 208.283 1145.18 218.55C1144.25 228.583 1143.55 239.083 1143.08 250.05C1142.85 261.017 1142.96 271.517 1143.43 281.55C1143.9 291.583 1144.83 299.167 1146.23 304.3C1148.56 312.7 1146 319.7 1138.53 325.3C1131.06 330.667 1123.13 330.9 1114.73 326C1110.3 323.667 1106.56 319.467 1103.53 313.4C1100.5 307.567 1097.93 300.8 1095.83 293.1C1093.96 285.167 1092.45 276.767 1091.28 267.9C1090.11 258.8 1089.18 250.05 1088.48 241.65C1087.78 233.017 1087.2 224.967 1086.73 217.5C1086.5 210.033 1086.26 203.967 1086.03 199.3ZM1319.23 187.05C1320.63 176.083 1318.65 167.8 1313.28 162.2C1308.15 156.367 1299.98 154.85 1288.78 157.65C1283.65 159.05 1278.98 160.8 1274.78 162.9C1270.81 164.767 1266.96 166.983 1263.23 169.55C1259.73 171.883 1256.11 174.45 1252.38 177.25C1248.65 179.817 1244.68 182.383 1240.48 184.95C1235.81 187.75 1231.5 188.917 1227.53 188.45C1223.8 187.983 1219.83 186.233 1215.63 183.2C1209.8 179 1206.88 173.867 1206.88 167.8C1206.88 161.5 1208.98 155.083 1213.18 148.55C1217.61 141.783 1223.56 135.133 1231.03 128.6C1238.73 121.833 1247.25 116 1256.58 111.1C1266.15 105.967 1276.06 102 1286.33 99.2C1296.6 96.4 1306.51 95.4667 1316.08 96.4C1325.65 97.1 1334.4 100.133 1342.33 105.5C1350.5 110.867 1356.91 119.033 1361.58 130C1366.25 140.733 1368.35 151.35 1367.88 161.85C1367.65 172.35 1366.48 182.85 1364.38 193.35C1362.28 203.617 1360.06 214.117 1357.73 224.85C1355.4 235.35 1354.46 245.967 1354.93 256.7C1355.16 263 1356.33 266.85 1358.43 268.25C1360.53 269.417 1362.86 270 1365.43 270C1368 269.767 1370.33 270 1372.43 270.7C1374.76 271.4 1376.28 274.433 1376.98 279.8C1377.68 285.867 1375.93 291.35 1371.73 296.25C1367.53 301.15 1362.16 304.183 1355.63 305.35C1349.33 306.517 1342.56 305.117 1335.33 301.15C1328.1 297.183 1321.8 289.483 1316.43 278.05C1315.5 276.183 1314.68 274.433 1313.98 272.8C1313.51 270.933 1312.93 269.067 1312.23 267.2C1307.33 273.733 1301.61 280.033 1295.08 286.1C1288.78 292.167 1281.78 296.6 1274.08 299.4C1267.78 301.733 1261.48 302.667 1255.18 302.2C1248.88 301.733 1243.16 300.1 1238.03 297.3C1233.13 294.5 1228.93 290.65 1225.43 285.75C1221.93 280.617 1219.71 274.55 1218.78 267.55C1217.61 258.917 1218.43 249.817 1221.23 240.25C1224.03 230.45 1228.23 221.35 1233.83 212.95C1239.43 204.55 1246.2 197.433 1254.13 191.6C1262.06 185.533 1270.58 181.917 1279.68 180.75C1286.91 179.817 1293.56 180.05 1299.63 181.45C1305.93 182.617 1312.46 184.483 1319.23 187.05ZM1271.28 229.4C1267.78 236.4 1265.68 242 1264.98 246.2C1264.51 250.4 1265.1 253.2 1266.73 254.6C1268.6 256 1271.4 255.883 1275.13 254.25C1278.86 252.383 1283.41 248.767 1288.78 243.4C1297.18 235 1301.73 228.117 1302.43 222.75C1303.13 217.15 1301.85 213.533 1298.58 211.9C1295.31 210.267 1290.88 210.85 1285.28 213.65C1279.91 216.217 1275.25 221.467 1271.28 229.4ZM1416.98 64.2C1420.71 55.5667 1426.08 49.2667 1433.08 45.3C1440.08 41.3333 1446.96 39.7 1453.73 40.4C1460.73 40.8667 1466.56 43.6667 1471.23 48.8C1475.89 53.7 1477.64 60.7 1476.48 69.8C1474.38 87.7667 1471.34 105.383 1467.38 122.65C1463.41 139.683 1459.79 156.833 1456.53 174.1C1453.49 191.133 1451.51 208.167 1450.58 225.2C1449.64 242.233 1451.16 259.5 1455.13 277C1456.06 281.433 1456.41 285.517 1456.18 289.25C1455.94 292.75 1453.96 296.133 1450.23 299.4C1446.26 302.9 1442.18 304.767 1437.98 305C1434.01 305.233 1430.16 303.6 1426.43 300.1C1418.26 292.4 1411.96 281.9 1407.53 268.6C1403.09 255.067 1400.06 240.367 1398.43 224.5C1397.03 208.633 1396.68 192.3 1397.38 175.5C1398.31 158.467 1399.83 142.483 1401.93 127.55C1404.03 112.617 1406.36 99.55 1408.93 88.35C1411.73 76.9167 1414.41 68.8667 1416.98 64.2ZM1498.44 199.3C1498.44 193 1498.33 185.533 1498.09 176.9C1497.86 168.033 1497.74 158.817 1497.74 149.25C1497.98 139.45 1498.44 129.533 1499.14 119.5C1499.84 109.467 1501.01 99.9 1502.64 90.8C1504.28 81.4667 1506.49 73.0667 1509.29 65.6C1512.09 57.9 1515.83 51.6 1520.49 46.7C1523.76 43.2 1527.49 40.8667 1531.69 39.7C1536.13 38.3 1540.33 37.95 1544.29 38.65C1548.26 39.35 1551.76 41.2167 1554.79 44.25C1557.83 47.05 1559.69 50.9 1560.39 55.8C1561.33 62.5667 1561.21 71.4333 1560.04 82.4C1559.11 93.1333 1557.83 104.333 1556.19 116C1554.79 127.667 1553.39 139.1 1551.99 150.3C1550.59 161.267 1550.13 170.25 1550.59 177.25C1560.63 172.35 1570.08 166.633 1578.94 160.1C1587.81 153.333 1597.14 147.5 1606.94 142.6C1611.38 140.5 1615.69 139.8 1619.89 140.5C1624.33 140.967 1627.94 142.483 1630.74 145.05C1633.54 147.383 1635.41 150.65 1636.34 154.85C1637.28 158.817 1636.69 163.133 1634.59 167.8C1631.79 173.633 1627.83 179.233 1622.69 184.6C1617.56 189.733 1611.84 194.633 1605.54 199.3C1599.48 203.733 1593.06 207.817 1586.29 211.55C1579.76 215.05 1573.58 217.967 1567.74 220.3C1571.01 221.467 1575.09 222.983 1579.99 224.85C1585.13 226.483 1590.26 228.233 1595.39 230.1C1600.76 231.967 1605.78 233.95 1610.44 236.05C1615.11 237.917 1618.73 239.783 1621.29 241.65C1626.89 245.617 1630.04 250.633 1630.74 256.7C1631.68 262.767 1630.86 268.367 1628.29 273.5C1625.96 278.633 1622.11 282.717 1616.74 285.75C1611.61 288.783 1605.78 289.367 1599.24 287.5C1594.58 286.1 1590.14 284.233 1585.94 281.9C1581.98 279.333 1577.89 276.767 1573.69 274.2C1569.73 271.4 1565.76 268.717 1561.79 266.15C1557.83 263.583 1553.63 261.6 1549.19 260.2C1547.79 263.7 1547.68 267.783 1548.84 272.45C1550.24 277.117 1551.41 281.783 1552.34 286.45C1553.28 290.883 1553.28 295.083 1552.34 299.05C1551.64 303.017 1548.49 306.05 1542.89 308.15C1538.46 310.017 1534.49 310.133 1530.99 308.5C1527.73 307.1 1524.69 304.65 1521.89 301.15C1519.33 297.65 1516.99 293.567 1514.89 288.9C1513.03 284 1511.39 279.1 1509.99 274.2C1508.59 269.067 1507.43 264.283 1506.49 259.85C1505.79 255.417 1505.21 251.8 1504.74 249C1504.51 246.9 1503.11 244.8 1500.54 242.7C1498.21 240.6 1495.64 238.383 1492.84 236.05C1490.04 233.483 1487.36 230.917 1484.79 228.35C1482.46 225.55 1481.18 222.633 1480.94 219.6C1480.71 216.567 1481.76 213.417 1484.09 210.15C1486.66 206.65 1491.44 203.033 1498.44 199.3ZM1685.41 44.95C1690.31 39.5833 1695.44 36.55 1700.81 35.85C1706.41 35.15 1711.43 36.0833 1715.86 38.65C1720.29 41.2166 1723.68 45.1833 1726.01 50.55C1728.58 55.9166 1729.39 61.9833 1728.46 68.75C1726.59 80.8833 1724.38 92.9 1721.81 104.8C1719.24 116.7 1716.56 128.717 1713.76 140.85C1710.96 152.75 1708.39 164.767 1706.06 176.9C1703.73 188.8 1701.98 200.817 1700.81 212.95C1700.34 218.317 1698.48 222.517 1695.21 225.55C1692.18 228.35 1688.68 229.983 1684.71 230.45C1680.98 230.683 1677.36 229.75 1673.86 227.65C1670.36 225.55 1668.03 222.167 1666.86 217.5C1664.99 210.5 1663.48 202.217 1662.31 192.65C1661.14 183.083 1660.33 172.933 1659.86 162.2C1659.63 151.233 1659.86 140.15 1660.56 128.95C1661.26 117.517 1662.54 106.55 1664.41 96.05C1666.51 85.55 1669.19 75.8667 1672.46 67C1675.96 58.1333 1680.28 50.7833 1685.41 44.95ZM1700.46 284.7C1700.46 293.567 1698.13 300.217 1693.46 304.65C1688.79 308.85 1683.54 310.833 1677.71 310.6C1672.11 310.367 1666.98 308.15 1662.31 303.95C1657.64 299.517 1655.31 293.217 1655.31 285.05C1655.31 277.35 1657.64 271.283 1662.31 266.85C1666.98 262.417 1672.11 260.083 1677.71 259.85C1683.54 259.383 1688.79 261.25 1693.46 265.45C1698.13 269.417 1700.46 275.833 1700.46 284.7Z"/>
</mask>
<path d="M459.9 141.9L439.912 141.211L478.54 149.149L459.9 141.9ZM466.2 129.3L449.134 118.871L449.134 118.871L466.2 129.3ZM475.65 117.75L489.329 132.341L489.564 132.12L489.792 131.892L475.65 117.75ZM488.6 107.95L479.023 90.3921L478.849 90.4869L478.677 90.5851L488.6 107.95ZM505.75 102L502.462 82.2721L502.285 82.3016L502.108 82.3343L505.75 102ZM525 102L522.441 121.836L522.756 121.876L523.074 121.907L525 102ZM544.6 107.6L535.373 125.344L535.514 125.418L535.656 125.489L544.6 107.6ZM557.55 141.55L538.739 134.757L538.655 134.99L538.576 135.225L557.55 141.55ZM547.05 155.9L559.171 171.809L559.225 171.767L559.279 171.726L547.05 155.9ZM529.55 160.8L530.926 140.847L530.703 140.832L530.479 140.822L529.55 160.8ZM505.05 163.95L512.23 182.617L512.413 182.546L512.596 182.472L505.05 163.95ZM490.7 174.8L474.425 163.175L474.238 163.438L474.059 163.706L490.7 174.8ZM484.05 192.65L503.778 195.938L503.778 195.938L484.05 192.65ZM481.6 215.75L461.631 214.641L461.616 214.91L461.608 215.179L481.6 215.75ZM481.25 242H461.25V242.25L461.256 242.5L481.25 242ZM480.2 270.7L500.101 272.69L500.105 272.643L500.11 272.596L480.2 270.7ZM455 305.35L454.445 285.358L454.419 285.358L454.394 285.359L455 305.35ZM437.5 297.3L420.655 308.081L420.908 308.477L421.18 308.86L437.5 297.3ZM430.5 277.35L410.654 279.831L410.654 279.831L430.5 277.35ZM427 242.35L407.033 243.502L407.044 243.693L407.059 243.884L427 242.35ZM424.2 205.6L404.257 207.105L404.271 207.292L404.288 207.478L424.2 205.6ZM419.65 169.2L399.892 172.299L399.921 172.488L399.954 172.676L419.65 169.2ZM410.9 135.6L392.173 142.622L392.182 142.645L392.191 142.668L410.9 135.6ZM408.8 118.8L428.646 121.281L428.646 121.281L408.8 118.8ZM416.85 105.15L428.85 121.15L428.85 121.15L416.85 105.15ZM432.95 99.9L430.248 119.717L430.305 119.724L430.363 119.732L432.95 99.9ZM446.95 106.9L432.808 121.042L433.01 121.244L433.218 121.44L446.95 106.9ZM456.75 122.3L437.995 129.246L437.995 129.246L456.75 122.3ZM478.54 149.149C479.707 146.149 481.261 143.009 483.266 139.729L449.134 118.871C446.006 123.991 443.36 129.251 441.26 134.651L478.54 149.149ZM483.266 139.729C484.859 137.122 486.854 134.661 489.329 132.341L461.971 103.159C456.979 107.839 452.674 113.078 449.134 118.871L483.266 139.729ZM489.792 131.892C492.185 129.499 495.06 127.293 498.523 125.315L478.677 90.5851C472.34 94.2066 466.582 98.5341 461.508 103.608L489.792 131.892ZM498.177 125.508C501.287 123.812 504.971 122.484 509.392 121.666L502.108 82.3343C493.929 83.8491 486.18 86.4884 479.023 90.3921L498.177 125.508ZM509.038 121.728C512.246 121.193 516.628 121.086 522.441 121.836L527.559 82.1644C518.905 81.0477 510.454 80.94 502.462 82.2721L509.038 121.728ZM523.074 121.907C528.026 122.386 532.04 123.611 535.373 125.344L553.827 89.8557C545.493 85.5221 536.441 83.0137 526.927 82.093L523.074 121.907ZM535.656 125.489C538.194 126.758 539.311 128.093 540.011 129.494L575.789 111.606C570.889 101.807 563.14 94.5091 553.544 89.7115L535.656 125.489ZM540.011 129.494C539.809 129.09 539.926 128.998 539.915 129.667C539.902 130.451 539.703 132.087 538.739 134.757L576.361 148.343C580.449 137.023 581.927 123.883 575.789 111.606L540.011 129.494ZM538.576 135.225C538.089 136.688 537.137 138.285 534.821 140.074L559.279 171.726C567.229 165.582 573.278 157.612 576.524 147.875L538.576 135.225ZM534.929 139.991C534.289 140.479 533.379 141.017 530.926 140.847L528.174 180.753C539.254 181.517 550.011 178.788 559.171 171.809L534.929 139.991ZM530.479 140.822C518.814 140.279 507.457 141.373 497.504 145.428L512.596 182.472C515.243 181.394 520.22 180.388 528.621 180.778L530.479 140.822ZM497.87 145.283C488.452 148.906 480.384 154.833 474.425 163.175L506.975 186.425C508.016 184.967 509.515 183.661 512.23 182.617L497.87 145.283ZM474.059 163.706C468.935 171.392 465.86 180.133 464.322 189.362L503.778 195.938C504.573 191.167 505.932 188.008 507.341 185.894L474.059 163.706ZM464.322 189.362C463.016 197.201 462.131 205.64 461.631 214.641L501.569 216.859C502.003 209.06 502.751 202.099 503.778 195.938L464.322 189.362ZM461.608 215.179C461.369 223.56 461.25 232.502 461.25 242H501.25C501.25 232.831 501.365 224.273 501.592 216.321L461.608 215.179ZM461.256 242.5C461.469 250.992 461.152 259.757 460.29 268.804L500.11 272.596C501.115 262.043 501.498 251.675 501.244 241.5L461.256 242.5ZM460.299 268.71C459.579 275.913 457.867 281.24 455.688 285.188L490.712 304.512C496 294.927 498.954 284.154 500.101 272.69L460.299 268.71ZM455.688 285.188C455.514 285.505 455.431 285.571 455.495 285.503C455.569 285.426 455.7 285.316 455.856 285.226C456.005 285.14 456.039 285.152 455.865 285.197C455.676 285.246 455.228 285.336 454.445 285.358L455.555 325.342C470.289 324.933 483.208 318.112 490.712 304.512L455.688 285.188ZM454.394 285.359C453.702 285.38 453.302 285.328 453.138 285.298C452.985 285.27 453.034 285.262 453.208 285.343C453.39 285.426 453.58 285.547 453.736 285.679C453.886 285.805 453.904 285.858 453.82 285.74L421.18 308.86C429.546 320.671 442.171 325.748 455.606 325.341L454.394 285.359ZM454.345 286.519C452.353 283.406 450.942 279.64 450.346 274.869L410.654 279.831C411.925 289.993 415.18 299.527 420.655 308.081L454.345 286.519ZM450.346 274.869C448.988 264.007 447.852 252.657 446.941 240.816L407.059 243.884C408.015 256.309 409.212 268.293 410.654 279.831L450.346 274.869ZM446.967 241.198C446.253 228.817 445.301 216.325 444.112 203.722L404.288 207.478C405.433 219.609 406.347 231.616 407.033 243.502L446.967 241.198ZM444.143 204.095C443.161 191.085 441.564 178.293 439.346 165.724L399.954 172.676C401.936 183.906 403.372 195.382 404.257 207.105L444.143 204.095ZM439.408 166.101C437.345 152.943 434.095 140.405 429.609 128.532L392.191 142.668C395.638 151.795 398.222 161.657 399.892 172.299L439.408 166.101ZM429.627 128.578C428.593 125.822 428.371 123.477 428.646 121.281L388.954 116.319C387.829 125.323 389.007 134.178 392.173 142.622L429.627 128.578ZM428.646 121.281C428.666 121.116 428.686 121.074 428.671 121.121C428.663 121.143 428.651 121.176 428.632 121.219C428.612 121.262 428.589 121.305 428.565 121.347C428.54 121.389 428.518 121.421 428.502 121.443C428.486 121.464 428.481 121.469 428.492 121.457C428.511 121.436 428.614 121.327 428.85 121.15L404.85 89.15C396.007 95.7826 390.352 105.135 388.954 116.319L428.646 121.281ZM428.85 121.15C430.3 120.063 431.109 119.756 431.275 119.702C431.344 119.68 431.261 119.714 431.046 119.735C430.826 119.757 430.548 119.758 430.248 119.717L435.652 80.0834C423.69 78.4521 413.142 82.9311 404.85 89.15L428.85 121.15ZM430.363 119.732C431.187 119.839 431.838 120.072 432.808 121.042L461.092 92.7578C454.129 85.7947 445.446 81.3605 435.537 80.068L430.363 119.732ZM433.218 121.44C434.845 122.977 436.556 125.361 437.995 129.246L475.505 115.354C472.277 106.639 467.455 98.7565 460.682 92.3597L433.218 121.44ZM437.995 129.246C439.417 133.086 440.056 137.024 439.912 141.211L479.888 142.589C480.21 133.242 478.749 124.114 475.505 115.354L437.995 129.246ZM637.506 212.6L647.144 195.076L627.415 184.225L618.967 205.096L637.506 212.6ZM641.006 256.7L626.466 270.432L626.858 270.848L627.273 271.24L641.006 256.7ZM656.756 262.3L657.496 282.286L657.865 282.273L658.233 282.245L656.756 262.3ZM676.356 252.5L689.707 267.391L689.815 267.295L689.921 267.196L676.356 252.5ZM692.106 229.4L675.75 217.89L675.735 217.91L675.721 217.931L692.106 229.4ZM709.256 217.15L704.258 197.784L704.18 197.805L704.103 197.825L709.256 217.15ZM729.906 221.35L741.906 205.35L741.72 205.21L741.531 205.075L729.906 221.35ZM739.356 232.9L720.716 240.149L720.966 240.792L721.259 241.416L739.356 232.9ZM741.106 245.5L760.861 248.619L760.861 248.619L741.106 245.5ZM735.856 259.15L752.766 269.83L752.888 269.636L753.006 269.44L735.856 259.15ZM725.356 272.1L739.342 286.397L739.42 286.32L739.498 286.242L725.356 272.1ZM692.106 295.55L683.914 277.305L683.914 277.305L692.106 295.55ZM658.506 303.95L657.656 283.968L657.646 283.968L657.637 283.969L658.506 303.95ZM627.706 298.7L620.202 317.239L620.202 317.239L627.706 298.7ZM602.156 281.2L587.377 294.675L587.477 294.785L587.579 294.894L602.156 281.2ZM584.656 252.5L565.882 259.396L565.968 259.63L566.06 259.861L584.656 252.5ZM578.706 214L558.709 213.661L558.709 213.672L578.706 214ZM586.406 173.75L567.679 166.728L567.679 166.728L586.406 173.75ZM606.706 138.4L622.154 151.102L622.154 151.102L606.706 138.4ZM636.806 112.5L646.992 129.712L647.044 129.681L647.096 129.65L636.806 112.5ZM674.256 99.9L676.35 119.79L676.407 119.784L676.464 119.778L674.256 99.9ZM704.006 102.35L698.259 121.507L698.323 121.526L698.388 121.545L704.006 102.35ZM726.756 117.05L742.418 104.612L742.396 104.584L742.373 104.556L726.756 117.05ZM736.906 142.95L716.931 143.949L716.944 144.217L716.965 144.484L736.906 142.95ZM732.706 169.9L751.241 177.414L751.275 177.329L751.309 177.243L732.706 169.9ZM716.956 194.05L702.365 180.371L702.25 180.494L702.136 180.62L716.956 194.05ZM693.506 211.9L684.562 194.011L684.465 194.06L684.37 194.109L693.506 211.9ZM665.856 219.6L666.83 239.576L667.056 239.565L667.281 239.549L665.856 219.6ZM646.956 188.45L629.067 179.506L619.286 199.068L639.643 207.065L646.956 188.45ZM665.506 190.9L662.465 171.133L662.405 171.142L662.346 171.151L665.506 190.9ZM692.106 175.15L675.767 163.616L675.766 163.616L692.106 175.15ZM697.006 164.3L677.207 161.472L677.207 161.472L697.006 164.3ZM694.206 156.95L680.919 171.898L681.786 172.669L682.737 173.335L694.206 156.95ZM683.006 156.25L687.857 175.653L687.956 175.628L688.054 175.602L683.006 156.25ZM671.806 161.15L682.096 178.3L682.252 178.206L682.406 178.11L671.806 161.15ZM661.656 168.85L648.047 154.194L647.776 154.446L647.514 154.708L661.656 168.85ZM653.256 178.65L668.982 191.006L669.187 190.745L669.384 190.477L653.256 178.65ZM618.967 205.096C614.118 217.077 611.668 229.549 613.532 241.846L653.08 235.854C652.61 232.751 652.961 227.723 656.045 220.104L618.967 205.096ZM613.532 241.846C615.1 252.2 618.878 262.399 626.466 270.432L655.546 242.968C655.2 242.601 653.845 240.9 653.08 235.854L613.532 241.846ZM627.273 271.24C635.748 279.244 646.377 282.698 657.496 282.286L656.016 242.314C655.065 242.349 654.74 242.212 654.794 242.231C654.806 242.235 654.835 242.248 654.858 242.263C654.88 242.276 654.84 242.255 654.738 242.16L627.273 271.24ZM658.233 282.245C670.505 281.336 681.048 275.154 689.707 267.391L663.005 237.609C658.13 241.979 655.606 242.33 655.278 242.355L658.233 282.245ZM689.921 267.196C694.756 262.734 698.666 257.499 701.732 251.708L666.38 232.992C665.246 235.134 664.023 236.666 662.79 237.804L689.921 267.196ZM701.732 251.708C703.359 248.634 705.578 245.03 708.49 240.869L675.721 217.931C672.1 223.103 668.953 228.132 666.38 232.992L701.732 251.708ZM708.462 240.91C710.379 238.186 712.246 237.052 714.409 236.475L704.103 197.825C692.266 200.982 682.7 208.014 675.75 217.89L708.462 240.91ZM714.253 236.516C715.291 236.248 716.15 236.102 718.281 237.625L741.531 205.075C730.595 197.264 717.687 194.319 704.258 197.784L714.253 236.516ZM717.906 237.35C720.451 239.258 720.78 240.315 720.716 240.149L757.996 225.651C754.665 217.085 748.695 210.441 741.906 205.35L717.906 237.35ZM721.259 241.416C721.364 241.637 721.379 241.74 721.384 241.776C721.389 241.817 721.412 241.994 721.351 242.381L760.861 248.619C762.17 240.329 761.067 232.066 757.452 224.384L721.259 241.416ZM721.351 242.381C721.126 243.802 720.459 245.939 718.706 248.86L753.006 269.44C756.853 263.028 759.686 256.065 760.861 248.619L721.351 242.381ZM718.946 248.47C717.034 251.498 714.502 254.67 711.214 257.958L739.498 286.242C744.61 281.13 749.078 275.669 752.766 269.83L718.946 248.47ZM711.37 257.803C701.996 266.974 692.82 273.306 683.914 277.305L700.298 313.795C714.258 307.527 727.249 298.226 739.342 286.397L711.37 257.803ZM683.914 277.305C674.47 281.545 665.754 283.623 657.656 283.968L659.356 323.932C673.191 323.343 686.875 319.822 700.298 313.795L683.914 277.305ZM657.637 283.969C649.718 284.313 642.31 283.035 635.21 280.161L620.202 317.239C632.701 322.298 645.827 324.52 659.375 323.931L657.637 283.969ZM635.21 280.161C628.088 277.278 621.985 273.097 616.733 267.506L587.579 294.894C596.793 304.703 607.724 312.188 620.202 317.239L635.21 280.161ZM616.935 267.725C611.521 261.787 606.902 254.36 603.252 245.139L566.06 259.861C571.277 273.04 578.324 284.747 587.377 294.675L616.935 267.725ZM603.429 245.604C600.209 236.837 598.504 226.507 598.703 214.328L558.709 213.672C558.442 229.96 560.703 245.296 565.882 259.396L603.429 245.604ZM598.703 214.339C598.897 202.888 601.023 191.73 605.132 180.772L567.679 166.728C561.988 181.904 558.981 197.579 558.709 213.661L598.703 214.339ZM605.132 180.772C609.281 169.711 614.956 159.857 622.154 151.102L591.257 125.698C581.189 137.943 573.331 151.656 567.679 166.728L605.132 180.772ZM622.154 151.102C629.344 142.358 637.609 135.265 646.992 129.712L626.619 95.2885C613.136 103.268 601.334 113.442 591.257 125.698L622.154 151.102ZM647.096 129.65C656.308 124.123 666 120.88 676.35 119.79L672.162 80.0099C655.912 81.7205 640.638 86.8772 626.516 95.3501L647.096 129.65ZM676.464 119.778C684.518 118.883 691.712 119.543 698.259 121.507L709.753 83.1935C697.633 79.5575 684.993 78.5839 672.047 80.0223L676.464 119.778ZM698.388 121.545C704.473 123.326 708.389 126.107 711.138 129.544L742.373 104.556C733.923 93.9931 722.672 86.9742 709.624 83.1552L698.388 121.545ZM711.094 129.488C715.027 134.441 716.69 139.14 716.931 143.949L756.881 141.951C756.188 128.093 751.084 115.525 742.418 104.612L711.094 129.488ZM716.965 144.484C717.422 150.427 716.541 156.381 714.103 162.557L751.309 177.243C755.871 165.686 757.79 153.673 756.847 141.416L716.965 144.484ZM714.171 162.386C711.682 168.525 707.849 174.522 702.365 180.371L731.547 207.729C740.063 198.644 746.729 188.542 751.241 177.414L714.171 162.386ZM702.136 180.62C697.007 186.28 691.173 190.706 684.562 194.011L702.45 229.789C713.572 224.228 723.372 216.754 731.776 207.48L702.136 180.62ZM684.37 194.109C678.165 197.295 671.576 199.14 664.431 199.651L667.281 239.549C679.736 238.659 691.58 235.372 702.642 229.691L684.37 194.109ZM664.881 199.624C659.416 199.89 653.609 198.631 647.144 195.076L627.867 230.124C640.069 236.835 653.163 240.243 666.83 239.576L664.881 199.624ZM639.643 207.065C648.873 210.691 658.69 212.245 668.666 210.649L662.346 171.151C660.655 171.422 658.105 171.342 654.269 169.835L639.643 207.065ZM668.547 210.667C676.871 209.387 684.817 206.706 691.936 202.21L670.576 168.39C668.828 169.494 666.274 170.547 662.465 171.133L668.547 210.667ZM691.936 202.21C698.411 198.12 704.013 192.963 708.445 186.684L675.766 163.616C674.599 165.27 672.967 166.88 670.576 168.39L691.936 202.21ZM708.445 186.684C712.276 181.257 715.729 174.657 716.805 167.128L677.207 161.472C677.288 160.906 677.396 160.805 677.203 161.231C677.01 161.658 676.589 162.45 675.767 163.616L708.445 186.684ZM716.805 167.128C717.396 162.991 717.293 158.004 715.346 152.893C713.33 147.602 709.825 143.47 705.675 140.565L682.737 173.335C680.92 172.063 679.048 169.973 677.966 167.132C676.952 164.471 677.083 162.342 677.207 161.472L716.805 167.128ZM707.493 142.002C697.136 132.796 683.923 135.342 677.957 136.898L688.054 175.602C689.577 175.205 689.592 175.399 688.583 175.336C687.465 175.266 684.168 174.786 680.919 171.898L707.493 142.002ZM678.155 136.847C672.12 138.356 666.465 140.903 661.206 144.19L682.406 178.11C684.614 176.73 686.425 176.011 687.857 175.653L678.155 136.847ZM661.516 144C656.723 146.876 652.238 150.302 648.047 154.194L675.265 183.506C677.607 181.331 679.889 179.624 682.096 178.3L661.516 144ZM647.514 154.708C643.752 158.47 640.289 162.511 637.128 166.823L669.384 190.477C671.356 187.789 673.493 185.297 675.798 182.992L647.514 154.708ZM637.529 166.294C634.24 170.48 631.38 174.88 629.067 179.506L664.844 197.394C665.798 195.487 667.138 193.354 668.982 191.006L637.529 166.294ZM871.817 187.05L864.724 205.75L888.444 214.747L891.656 189.583L871.817 187.05ZM865.867 162.2L850.853 175.413L851.134 175.731L851.427 176.038L865.867 162.2ZM841.367 157.65L836.516 138.247L836.31 138.299L836.105 138.355L841.367 157.65ZM827.367 162.9L835.883 180.996L836.099 180.895L836.311 180.789L827.367 162.9ZM815.817 169.55L826.911 186.191L827.03 186.112L827.148 186.031L815.817 169.55ZM804.967 177.25L816.298 193.731L816.637 193.497L816.967 193.25L804.967 177.25ZM793.067 184.95L803.357 202.1L803.427 202.058L803.496 202.016L793.067 184.95ZM780.117 188.45L777.636 208.296L777.708 208.305L777.78 208.313L780.117 188.45ZM768.217 183.2L779.927 166.986L779.915 166.978L779.903 166.969L768.217 183.2ZM765.767 148.55L749.038 137.589L748.99 137.662L748.944 137.735L765.767 148.55ZM783.617 128.6L796.787 143.652L796.803 143.637L796.819 143.623L783.617 128.6ZM809.167 111.1L818.464 128.808L818.544 128.766L818.624 128.723L809.167 111.1ZM838.917 99.2L844.18 118.495L844.18 118.495L838.917 99.2ZM868.667 96.4L866.725 116.305L866.966 116.329L867.208 116.347L868.667 96.4ZM894.917 105.5L883.711 122.066L883.822 122.141L883.934 122.214L894.917 105.5ZM914.167 130L895.764 137.831L895.795 137.903L895.826 137.975L914.167 130ZM920.467 161.85L900.487 160.962L900.477 161.184L900.472 161.406L920.467 161.85ZM916.967 193.35L936.561 197.358L936.57 197.315L936.579 197.272L916.967 193.35ZM910.317 224.85L929.841 229.189L929.851 229.144L929.861 229.099L910.317 224.85ZM907.517 256.7L927.503 255.96L927.501 255.896L927.498 255.831L907.517 256.7ZM911.017 268.25L899.923 284.891L900.597 285.34L901.304 285.733L911.017 268.25ZM918.017 270V290H918.924L919.828 289.918L918.017 270ZM925.017 270.7L918.693 289.674L918.98 289.769L919.27 289.857L925.017 270.7ZM929.567 279.8L949.435 277.508L949.418 277.36L949.399 277.213L929.567 279.8ZM924.317 296.25L909.132 283.234L909.132 283.234L924.317 296.25ZM908.217 305.35L904.701 285.661L904.638 285.673L904.575 285.684L908.217 305.35ZM887.917 301.15L878.301 318.686L878.301 318.686L887.917 301.15ZM869.017 278.05L887.122 269.552L887.017 269.327L886.906 269.106L869.017 278.05ZM866.567 272.8L847.164 277.651L847.553 279.205L848.184 280.678L866.567 272.8ZM864.817 267.2L883.544 260.178L870.724 225.991L848.817 255.2L864.817 267.2ZM847.667 286.1L834.058 271.444L833.925 271.568L833.794 271.694L847.667 286.1ZM826.667 299.4L819.832 280.604L819.777 280.624L819.721 280.645L826.667 299.4ZM807.767 302.2L806.29 322.145L806.29 322.145L807.767 302.2ZM790.617 297.3L780.694 314.665L780.866 314.763L781.04 314.858L790.617 297.3ZM778.017 285.75L761.493 297.017L761.616 297.197L761.743 297.375L778.017 285.75ZM771.367 267.55L791.192 264.907L791.189 264.889L791.187 264.872L771.367 267.55ZM773.817 240.25L793.012 245.868L793.03 245.806L793.048 245.744L773.817 240.25ZM786.417 212.95L803.058 224.044L803.058 224.044L786.417 212.95ZM806.717 191.6L818.565 207.713L818.717 207.602L818.866 207.487L806.717 191.6ZM832.267 180.75L834.81 200.588L834.819 200.587L834.827 200.586L832.267 180.75ZM852.217 181.45L847.72 200.938L848.146 201.036L848.575 201.116L852.217 181.45ZM823.867 229.4L805.979 220.456L805.979 220.456L823.867 229.4ZM817.567 246.2L797.839 242.912L797.75 243.45L797.69 243.991L817.567 246.2ZM819.317 254.6L806.301 269.785L806.796 270.209L807.317 270.6L819.317 254.6ZM827.717 254.25L835.734 272.573L836.203 272.368L836.661 272.139L827.717 254.25ZM841.367 243.4L855.509 257.542L855.509 257.542L841.367 243.4ZM855.017 222.75L874.849 225.337L874.856 225.284L874.863 225.231L855.017 222.75ZM837.867 213.65L846.496 231.693L846.655 231.617L846.811 231.539L837.867 213.65ZM891.656 189.583C893.481 175.285 891.411 159.948 880.307 148.362L851.427 176.038C851.472 176.085 851.518 176.141 851.582 176.261C851.651 176.391 851.792 176.697 851.929 177.27C852.218 178.473 852.458 180.755 851.978 184.517L891.656 189.583ZM880.881 148.987C868.605 135.037 851.046 134.615 836.516 138.247L846.218 177.053C850.051 176.094 851.852 176.279 852.24 176.351C852.368 176.375 852.157 176.351 851.775 176.139C851.377 175.92 851.055 175.642 850.853 175.413L880.881 148.987ZM836.105 138.355C829.866 140.056 823.944 142.251 818.423 145.011L836.311 180.789C839.19 179.349 842.602 178.044 846.63 176.945L836.105 138.355ZM818.851 144.804C813.872 147.147 809.083 149.909 804.487 153.069L827.148 186.031C830.018 184.058 832.929 182.387 835.883 180.996L818.851 144.804ZM804.723 152.909C800.884 155.468 796.965 158.252 792.967 161.25L816.967 193.25C820.436 190.648 823.75 188.298 826.911 186.191L804.723 152.909ZM793.637 160.769C790.222 163.116 786.558 165.489 782.638 167.884L803.496 202.016C807.976 199.278 812.245 196.517 816.298 193.731L793.637 160.769ZM782.777 167.8C781.697 168.448 781.151 168.607 781.112 168.618C781.103 168.62 781.229 168.585 781.474 168.565C781.723 168.544 782.058 168.54 782.454 168.587L777.78 208.313C787.491 209.455 796.257 206.36 803.357 202.1L782.777 167.8ZM782.598 168.604C783.217 168.682 782.381 168.759 779.927 166.986L756.507 199.414C762.453 203.708 769.551 207.285 777.636 208.296L782.598 168.604ZM779.903 166.969C778.825 166.193 778.806 165.901 779.044 166.32C779.161 166.526 779.284 166.808 779.369 167.135C779.453 167.458 779.467 167.698 779.467 167.8H739.467C739.467 181.541 746.575 192.262 756.531 199.431L779.903 166.969ZM779.467 167.8C779.467 166.141 779.981 163.426 782.591 159.365L748.944 137.735C743.154 146.741 739.467 156.858 739.467 167.8H779.467ZM782.496 159.511C785.74 154.56 790.391 149.248 796.787 143.652L770.447 113.548C761.91 121.018 754.661 129.007 749.038 137.589L782.496 159.511ZM796.819 143.623C803.295 137.932 810.494 132.992 818.464 128.808L799.871 93.392C789.173 99.008 779.339 105.734 770.415 113.577L796.819 143.623ZM818.624 128.723C826.887 124.289 835.399 120.89 844.18 118.495L833.655 79.9047C821.902 83.11 810.581 87.6441 799.711 93.4768L818.624 128.723ZM844.18 118.495C852.352 116.266 859.823 115.632 866.725 116.305L870.609 76.4945C858.378 75.3012 846.015 76.5337 833.655 79.9047L844.18 118.495ZM867.208 116.347C873.291 116.792 878.68 118.662 883.711 122.066L906.123 88.9343C895.288 81.6046 883.177 77.4082 870.127 76.4533L867.208 116.347ZM883.934 122.214C888.144 124.981 892.299 129.688 895.764 137.831L932.57 122.169C926.702 108.379 918.024 96.7523 905.901 88.7859L883.934 122.214ZM895.826 137.975C899.418 146.237 900.804 153.833 900.487 160.962L940.447 162.738C941.064 148.867 938.25 135.23 932.509 122.025L895.826 137.975ZM900.472 161.406C900.265 170.715 899.231 180.051 897.356 189.428L936.579 197.272C938.904 185.649 940.202 173.985 940.462 162.294L900.472 161.406ZM897.373 189.342C895.29 199.525 893.09 209.944 890.774 220.601L929.861 229.099C932.211 218.289 934.444 207.709 936.561 197.358L897.373 189.342ZM890.793 220.511C888.081 232.718 886.993 245.085 887.536 257.569L927.498 255.831C927.108 246.848 927.887 237.982 929.841 229.189L890.793 220.511ZM887.531 257.44C887.68 261.454 888.147 265.891 889.427 270.113C890.606 274.003 893.307 280.48 899.923 284.891L922.111 251.609C924.431 253.155 925.831 254.942 926.598 256.175C927.345 257.374 927.635 258.272 927.708 258.512C927.82 258.884 927.588 258.246 927.503 255.96L887.531 257.44ZM901.304 285.733C906.578 288.663 912.292 290 918.017 290V250C918.26 250 918.671 250.029 919.193 250.16C919.722 250.292 920.248 250.499 920.73 250.767L901.304 285.733ZM919.828 289.918C920.094 289.894 919.605 289.978 918.693 289.674L931.342 251.726C926.229 250.022 921.074 249.64 916.206 250.082L919.828 289.918ZM919.27 289.857C913.35 288.08 910.731 283.874 910.016 282.444C909.363 281.137 909.523 280.761 909.735 282.387L949.399 277.213C948.911 273.473 947.963 268.896 945.793 264.556C943.562 260.093 939.018 254.02 930.764 251.543L919.27 289.857ZM909.699 282.092C909.725 282.319 909.716 282.422 909.715 282.43C909.715 282.434 909.718 282.409 909.727 282.382C909.735 282.356 909.725 282.4 909.655 282.522C909.582 282.649 909.428 282.889 909.132 283.234L939.502 309.266C947.095 300.408 950.813 289.45 949.435 277.508L909.699 282.092ZM909.132 283.234C908.027 284.524 906.832 285.281 904.701 285.661L911.733 325.039C922.669 323.086 932.208 317.776 939.502 309.266L909.132 283.234ZM904.575 285.684C903.976 285.795 901.906 286.011 897.534 283.614L878.301 318.686C888.395 324.222 899.859 327.238 911.859 325.016L904.575 285.684ZM897.534 283.614C895.518 282.508 891.587 279.064 887.122 269.552L850.912 286.548C857.181 299.903 865.849 311.858 878.301 318.686L897.534 283.614ZM886.906 269.106C886.118 267.531 885.472 266.139 884.95 264.922L848.184 280.678C849.062 282.727 850.049 284.836 851.129 286.994L886.906 269.106ZM885.97 267.949C885.313 265.321 884.501 262.729 883.544 260.178L846.091 274.222C846.534 275.404 846.888 276.546 847.164 277.651L885.97 267.949ZM848.817 255.2C844.695 260.696 839.796 266.116 834.058 271.444L861.276 300.756C868.605 293.95 875.139 286.771 880.817 279.2L848.817 255.2ZM833.794 271.694C829.37 275.954 824.731 278.823 819.832 280.604L833.502 318.196C844.003 314.377 853.365 308.379 861.54 300.506L833.794 271.694ZM819.721 280.645C815.937 282.046 812.504 282.496 809.245 282.255L806.29 322.145C815.63 322.837 824.797 321.42 833.613 318.155L819.721 280.645ZM809.245 282.255C805.552 281.981 802.632 281.072 800.194 279.742L781.04 314.858C788.869 319.128 797.382 321.486 806.29 322.145L809.245 282.255ZM800.54 279.935C798.312 278.662 796.228 276.836 794.292 274.125L761.743 297.375C766.806 304.464 773.122 310.338 780.694 314.665L800.54 279.935ZM794.542 274.483C793.026 272.26 791.769 269.239 791.192 264.907L751.543 270.193C752.832 279.861 756.008 288.973 761.493 297.017L794.542 274.483ZM791.187 264.872C790.446 259.39 790.886 253.13 793.012 245.868L754.622 234.632C751.148 246.503 749.955 258.443 751.547 270.228L791.187 264.872ZM793.048 245.744C795.285 237.914 798.617 230.706 803.058 224.044L769.776 201.856C763.018 211.994 757.95 222.986 754.587 234.756L793.048 245.744ZM803.058 224.044C807.398 217.534 812.557 212.13 818.565 207.713L794.869 175.487C785.01 182.736 776.636 191.566 769.776 201.856L803.058 224.044ZM818.866 207.487C824.257 203.365 829.51 201.267 834.81 200.588L829.724 160.912C816.824 162.566 805.044 167.702 794.568 175.713L818.866 207.487ZM834.827 200.586C840.101 199.905 844.325 200.154 847.72 200.938L856.714 161.962C847.976 159.946 838.9 159.728 829.708 160.914L834.827 200.586ZM848.575 201.116C853.559 202.038 858.935 203.554 864.724 205.75L878.91 168.35C871.166 165.412 863.476 163.195 855.859 161.784L848.575 201.116ZM805.979 220.456C802.201 228.011 799.035 235.74 797.839 242.912L837.295 249.488C837.5 248.26 838.533 244.789 841.756 238.344L805.979 220.456ZM797.69 243.991C797.148 248.864 796.388 261.288 806.301 269.785L832.333 239.415C835.828 242.41 836.921 245.867 837.234 247.371C837.526 248.771 837.344 249.313 837.445 248.409L797.69 243.991ZM807.317 270.6C818.294 278.832 830.422 274.897 835.734 272.573L819.701 235.927C819.163 236.162 820.055 235.66 821.985 235.58C824.23 235.486 827.857 236.004 831.317 238.6L807.317 270.6ZM836.661 272.139C843.29 268.824 849.652 263.399 855.509 257.542L827.225 229.258C822.349 234.134 819.611 235.942 818.773 236.361L836.661 272.139ZM855.509 257.542C860.283 252.768 864.504 247.899 867.764 242.966C870.917 238.196 873.953 232.204 874.849 225.337L835.185 220.163C835.381 218.663 835.792 218.796 834.395 220.909C833.106 222.86 830.851 225.632 827.225 229.258L855.509 257.542ZM874.863 225.231C875.943 216.591 874.875 201.393 860.111 194.011L842.223 229.789C840.811 229.083 839.372 228.027 838.132 226.595C836.904 225.179 836.157 223.726 835.731 222.526C834.957 220.343 835.303 219.219 835.172 220.269L874.863 225.231ZM860.111 194.011C848.191 188.051 836.219 192.113 828.923 195.761L846.811 231.539C848.356 230.766 848.677 230.853 848.001 230.942C847.156 231.053 844.892 231.123 842.223 229.789L860.111 194.011ZM829.238 195.607C818.312 200.833 811 210.413 805.979 220.456L841.756 238.344C844.668 232.52 846.689 231.6 846.496 231.693L829.238 195.607ZM969.563 64.2L987.087 73.8384L987.544 73.008L987.92 72.1382L969.563 64.2ZM985.663 45.3L975.803 27.8995L985.663 45.3ZM1006.31 40.4L1004.25 60.2938L1004.62 60.3314L1004.98 60.3557L1006.31 40.4ZM1023.81 48.8L1009.01 62.2535L1009.17 62.4251L1009.33 62.5931L1023.81 48.8ZM1029.06 69.8L1009.23 67.2567L1009.21 67.3673L1009.2 67.4781L1029.06 69.8ZM1019.96 122.65L1039.44 127.186L1039.45 127.157L1039.46 127.128L1019.96 122.65ZM1009.11 174.1L989.461 170.382L989.442 170.488L989.423 170.594L1009.11 174.1ZM1003.16 225.2L983.193 224.106L983.193 224.106L1003.16 225.2ZM1007.71 277L1027.28 272.88L1027.25 272.729L1027.22 272.579L1007.71 277ZM1008.76 289.25L1028.72 290.58L1028.72 290.539L1028.72 290.498L1008.76 289.25ZM1002.81 299.4L989.643 284.348L989.612 284.376L989.58 284.403L1002.81 299.4ZM990.563 305L989.453 285.031L989.421 285.033L989.388 285.035L990.563 305ZM979.013 300.1L965.293 314.652L965.313 314.671L965.334 314.691L979.013 300.1ZM960.113 268.6L941.107 274.826L941.123 274.875L941.139 274.925L960.113 268.6ZM951.013 224.5L931.09 226.258L931.103 226.403L931.118 226.548L951.013 224.5ZM949.963 175.5L929.993 174.406L929.986 174.537L929.98 174.667L949.963 175.5ZM961.513 88.35L942.087 83.5926L942.052 83.7373L942.018 83.8825L961.513 88.35ZM987.92 72.1382C990.229 66.7986 992.924 64.1733 995.523 62.7004L975.803 27.8995C964.402 34.36 956.363 44.3347 951.206 56.2618L987.92 72.1382ZM995.523 62.7004C999.585 60.3989 1002.34 60.0954 1004.25 60.2938L1008.37 20.5062C996.755 19.3045 985.741 22.2678 975.803 27.8995L995.523 62.7004ZM1004.98 60.3557C1006.89 60.4826 1007.87 60.9956 1009.01 62.2535L1038.61 35.3465C1030.42 26.3377 1019.74 21.2507 1007.64 20.4443L1004.98 60.3557ZM1009.33 62.5931C1009.12 62.3715 1009.13 62.2016 1009.22 62.5757C1009.35 63.1022 1009.57 64.5347 1009.23 67.2567L1048.9 72.3433C1050.54 59.5284 1048.47 45.6862 1038.3 35.0069L1009.33 62.5931ZM1009.2 67.4781C1007.18 84.735 1004.27 101.631 1000.47 118.172L1039.46 127.128C1043.59 109.135 1046.74 90.7983 1048.93 72.1218L1009.2 67.4781ZM1000.48 118.114C996.454 135.42 992.78 152.843 989.461 170.382L1028.76 177.818C1031.98 160.824 1035.54 143.947 1039.44 127.186L1000.48 118.114ZM989.423 170.594C986.249 188.413 984.171 206.252 983.193 224.106L1023.13 226.294C1024.02 210.081 1025.91 193.853 1028.8 177.606L989.423 170.594ZM983.193 224.106C982.153 243.084 983.852 262.207 988.208 281.421L1027.22 272.579C1023.64 256.793 1022.31 241.383 1023.13 226.294L983.193 224.106ZM988.142 281.12C988.779 284.148 988.902 286.399 988.802 288.002L1028.72 290.498C1029.09 284.634 1028.51 278.719 1027.28 272.88L988.142 281.12ZM988.807 287.92C988.92 286.222 989.455 284.965 989.846 284.298C990.186 283.719 990.3 283.773 989.643 284.348L1015.98 314.452C1022.04 309.155 1028.01 301.24 1028.72 290.58L988.807 287.92ZM989.58 284.403C988.815 285.078 988.43 285.249 988.46 285.236C988.479 285.227 988.587 285.18 988.776 285.132C988.968 285.083 989.199 285.045 989.453 285.031L991.672 324.969C1001.41 324.428 1009.59 320.088 1016.05 314.397L989.58 284.403ZM989.388 285.035C990.642 284.961 991.754 285.217 992.511 285.538C993.175 285.82 993.213 285.998 992.692 285.509L965.334 314.691C971.856 320.805 980.825 325.607 991.737 324.965L989.388 285.035ZM992.733 285.548C987.497 280.611 982.731 273.208 979.087 262.275L941.139 274.925C946.362 290.592 954.196 304.189 965.293 314.652L992.733 285.548ZM979.119 262.374C975.18 250.348 972.412 237.065 970.908 222.452L931.118 226.548C932.88 243.668 936.18 259.785 941.107 274.826L979.119 262.374ZM970.935 222.742C969.616 207.783 969.28 192.316 969.946 176.333L929.98 174.667C929.246 192.284 929.61 209.484 931.09 226.258L970.935 222.742ZM969.933 176.594C970.839 160.055 972.306 144.64 974.318 130.335L934.708 124.765C932.519 140.326 930.953 156.879 929.993 174.406L969.933 176.594ZM974.318 130.335C976.362 115.804 978.6 103.321 981.008 92.8175L942.018 83.8825C939.292 95.7789 936.864 109.43 934.708 124.765L974.318 130.335ZM980.939 93.1074C983.7 81.8332 985.889 76.017 987.087 73.8384L952.039 54.5616C948.104 61.7163 944.926 72.0001 942.087 83.5926L980.939 93.1074ZM1086.03 199.3L1106.01 198.301L1105.13 180.764L1087.63 179.364L1086.03 199.3ZM1068.53 198.6L1067.73 218.584L1068.13 218.6H1068.53V198.6ZM1051.38 195.45L1057.71 176.476L1057.39 176.37L1057.06 176.274L1051.38 195.45ZM1037.73 186L1020.42 196.021L1020.62 196.354L1020.82 196.68L1037.73 186ZM1034.58 172.35L1054.48 174.34L1054.48 174.34L1034.58 172.35ZM1040.53 159.75L1025.97 146.043L1025.95 146.057L1025.94 146.071L1040.53 159.75ZM1055.58 152.75L1053.77 132.832L1053.57 132.85L1053.37 132.872L1055.58 152.75ZM1070.63 152.4L1069.68 172.377L1069.7 172.378L1069.72 172.379L1070.63 152.4ZM1086.03 152.75V172.75H1106.03V152.75H1086.03ZM1086.73 134.55L1106.69 135.76L1106.7 135.742L1106.7 135.724L1086.73 134.55ZM1089.18 109.35L1109.01 111.959L1109.01 111.926L1109.02 111.893L1089.18 109.35ZM1094.43 82.05L1113.8 87.0175L1113.82 86.9591L1113.83 86.9007L1094.43 82.05ZM1103.53 57.55L1121.18 66.9618L1121.18 66.9618L1103.53 57.55ZM1116.83 41.45L1105.41 25.0319L1105.24 25.1518L1105.07 25.2753L1116.83 41.45ZM1136.08 38.3L1140.75 18.8522L1140.55 18.8051L1140.35 18.762L1136.08 38.3ZM1150.43 46.35L1135.87 60.0573L1136.28 60.4986L1136.72 60.914L1150.43 46.35ZM1158.13 60.7L1177.82 57.1842L1177.78 56.9805L1177.74 56.7777L1158.13 60.7ZM1159.53 83.1L1139.54 82.5446L1139.54 82.5447L1159.53 83.1ZM1157.78 109L1177.67 111.094L1177.67 111.094L1157.78 109ZM1154.63 135.25L1134.81 132.572L1134.78 132.836L1134.75 133.1L1154.63 135.25ZM1152.53 158.7L1132.58 157.37L1131.15 178.7H1152.53V158.7ZM1183.33 162.9L1170.32 178.085L1170.64 178.363L1170.97 178.626L1183.33 162.9ZM1188.93 172L1169.11 174.643L1169.19 175.286L1169.32 175.922L1188.93 172ZM1186.48 182.5L1203.12 193.594L1203.12 193.594L1186.48 182.5ZM1174.93 189.85L1169.88 170.498L1169.86 170.503L1169.84 170.509L1174.93 189.85ZM1161.63 193L1164.92 212.728L1165.34 212.658L1165.75 212.571L1161.63 193ZM1148.68 195.1L1145.56 175.345L1132.04 177.479L1129.14 190.851L1148.68 195.1ZM1145.18 218.55L1125.31 216.292L1125.29 216.494L1125.27 216.698L1145.18 218.55ZM1143.08 250.05L1123.1 249.2L1123.09 249.412L1123.09 249.625L1143.08 250.05ZM1143.43 281.55L1123.45 282.479L1123.45 282.479L1143.43 281.55ZM1146.23 304.3L1126.94 309.562L1126.95 309.608L1126.96 309.653L1146.23 304.3ZM1138.53 325.3L1150.2 341.54L1150.37 341.422L1150.53 341.3L1138.53 325.3ZM1114.73 326L1124.81 308.724L1124.43 308.505L1124.05 308.302L1114.73 326ZM1103.53 313.4L1121.42 304.456L1121.35 304.314L1121.28 304.173L1103.53 313.4ZM1095.83 293.1L1076.36 297.681L1076.44 298.023L1076.54 298.362L1095.83 293.1ZM1091.28 267.9L1071.44 270.443L1071.45 270.476L1071.45 270.509L1091.28 267.9ZM1088.48 241.65L1068.55 243.266L1068.55 243.289L1068.55 243.311L1088.48 241.65ZM1086.73 217.5L1066.74 218.125L1066.75 218.436L1066.77 218.748L1086.73 217.5ZM1087.63 179.364C1081.26 178.855 1074.9 178.6 1068.53 178.6V218.6C1073.83 218.6 1079.13 218.812 1084.44 219.236L1087.63 179.364ZM1069.33 178.616C1065.4 178.459 1061.54 177.755 1057.71 176.476L1045.06 214.424C1052.42 216.879 1060 218.275 1067.73 218.584L1069.33 178.616ZM1057.06 176.274C1055.58 175.834 1054.87 175.41 1054.63 175.244C1054.44 175.113 1054.53 175.139 1054.64 175.32L1020.82 196.68C1026.82 206.172 1035.97 211.743 1045.7 214.626L1057.06 176.274ZM1055.04 175.979C1054.37 174.826 1054.47 174.442 1054.48 174.34L1014.68 170.36C1013.76 179.591 1015.96 188.308 1020.42 196.021L1055.04 175.979ZM1054.48 174.34C1054.48 174.307 1054.49 174.287 1054.49 174.277C1054.49 174.272 1054.49 174.269 1054.49 174.267C1054.49 174.266 1054.49 174.265 1054.49 174.265C1054.49 174.264 1054.49 174.264 1054.49 174.264C1054.49 174.264 1054.49 174.264 1054.49 174.264C1054.49 174.265 1054.49 174.265 1054.49 174.265C1054.49 174.265 1054.49 174.265 1054.49 174.264C1054.49 174.262 1054.5 174.255 1054.5 174.24C1054.52 174.206 1054.65 173.929 1055.12 173.429L1025.94 146.071C1019.72 152.701 1015.62 160.915 1014.68 170.36L1054.48 174.34ZM1055.09 173.457C1055.19 173.355 1055.29 173.271 1055.53 173.159C1055.81 173.03 1056.49 172.772 1057.79 172.628L1053.37 132.872C1043.17 134.006 1033.48 138.064 1025.97 146.043L1055.09 173.457ZM1057.39 172.668C1061.65 172.28 1065.75 172.19 1069.68 172.377L1071.58 132.423C1065.72 132.143 1059.78 132.286 1053.77 132.832L1057.39 172.668ZM1069.72 172.379C1075.16 172.626 1080.59 172.75 1086.03 172.75V132.75C1081.2 132.75 1076.37 132.64 1071.54 132.421L1069.72 172.379ZM1106.03 152.75C1106.03 148.909 1106.24 143.304 1106.69 135.76L1066.77 133.34C1066.29 141.196 1066.03 147.724 1066.03 152.75H1106.03ZM1106.7 135.724C1107.13 128.326 1107.9 120.407 1109.01 111.959L1069.35 106.741C1068.13 116.026 1067.26 124.908 1066.77 133.376L1106.7 135.724ZM1109.02 111.893C1110.08 103.629 1111.67 95.3388 1113.8 87.0175L1075.06 77.0825C1072.52 86.9612 1070.62 96.8705 1069.34 106.807L1109.02 111.893ZM1113.83 86.9007C1115.85 78.8306 1118.36 72.2519 1121.18 66.9618L1085.88 48.1382C1081.24 56.8481 1077.68 66.6028 1075.03 77.1993L1113.83 86.9007ZM1121.18 66.9618C1123.83 61.9816 1126.44 59.1899 1128.59 57.6247L1105.07 25.2753C1096.95 31.1768 1090.69 39.1184 1085.88 48.1382L1121.18 66.9618ZM1128.25 57.8681C1128.5 57.6953 1128.65 57.6405 1128.9 57.6C1129.22 57.5475 1130.11 57.4678 1131.81 57.838L1140.35 18.762C1128.45 16.1589 1116.13 17.5765 1105.41 25.0319L1128.25 57.8681ZM1131.41 57.7477C1133.86 58.3344 1135.07 59.2115 1135.87 60.0573L1164.99 32.6427C1158.32 25.5552 1149.97 21.0655 1140.75 18.8522L1131.41 57.7477ZM1136.72 60.914C1137.38 61.5358 1138.09 62.469 1138.52 64.6223L1177.74 56.7777C1175.84 47.2643 1171.41 38.6309 1164.14 31.786L1136.72 60.914ZM1138.44 64.2158C1139.32 69.1067 1139.74 75.1666 1139.54 82.5446L1179.52 83.6553C1179.78 74.2333 1179.28 65.36 1177.82 57.1842L1138.44 64.2158ZM1139.54 82.5447C1139.32 90.4007 1138.77 98.5202 1137.89 106.906L1177.67 111.094C1178.65 101.746 1179.27 92.5992 1179.52 83.6553L1139.54 82.5447ZM1137.89 106.906C1136.98 115.582 1135.95 124.137 1134.81 132.572L1174.45 137.928C1175.64 129.096 1176.72 120.151 1177.67 111.094L1137.89 106.906ZM1134.75 133.1C1133.79 141.945 1133.06 150.041 1132.58 157.37L1172.49 160.03C1172.93 153.359 1173.6 145.821 1174.52 137.4L1134.75 133.1ZM1152.53 178.7H1170.03V138.7H1152.53V178.7ZM1170.03 178.7C1171.19 178.7 1171.62 178.848 1171.53 178.822C1171.48 178.806 1171.32 178.749 1171.09 178.62C1170.85 178.49 1170.58 178.311 1170.32 178.085L1196.35 147.715C1188.48 140.971 1178.94 138.7 1170.03 138.7V178.7ZM1170.97 178.626C1171.05 178.689 1170.64 178.38 1170.15 177.582C1169.62 176.732 1169.25 175.698 1169.11 174.643L1208.76 169.357C1207.48 159.787 1202.28 152.351 1195.69 147.174L1170.97 178.626ZM1169.32 175.922C1169.11 174.853 1169.13 173.716 1169.37 172.705C1169.59 171.759 1169.9 171.318 1169.84 171.406L1203.12 193.594C1207.83 186.529 1210.47 177.7 1208.54 168.078L1169.32 175.922ZM1169.84 171.406C1170.07 171.054 1170.33 170.755 1170.58 170.517C1170.82 170.281 1171.02 170.146 1171.11 170.089C1171.27 169.986 1170.97 170.214 1169.88 170.498L1179.98 209.202C1188.55 206.966 1197.3 202.33 1203.12 193.594L1169.84 171.406ZM1169.84 170.509C1165.73 171.592 1161.62 172.565 1157.51 173.429L1165.75 212.571C1170.51 211.568 1175.27 210.442 1180.02 209.191L1169.84 170.509ZM1158.34 173.272C1154.2 173.962 1149.94 174.653 1145.56 175.345L1151.8 214.855C1156.29 214.147 1160.66 213.438 1164.92 212.728L1158.34 173.272ZM1129.14 190.851C1127.75 197.217 1126.5 205.829 1125.31 216.292L1165.05 220.808C1166.2 210.738 1167.27 203.716 1168.22 199.349L1129.14 190.851ZM1125.27 216.698C1124.3 227.092 1123.58 237.928 1123.1 249.2L1163.06 250.9C1163.52 240.239 1164.2 230.074 1165.09 220.402L1125.27 216.698ZM1123.09 249.625C1122.84 261.002 1122.96 271.956 1123.45 282.479L1163.41 280.621C1162.97 271.078 1162.85 261.031 1163.08 250.475L1123.09 249.625ZM1123.45 282.479C1123.94 292.93 1124.95 302.272 1126.94 309.562L1165.53 299.038C1164.71 296.062 1163.86 290.237 1163.41 280.621L1123.45 282.479ZM1126.96 309.653C1127.1 310.151 1127.06 310.253 1127.06 310.034C1127.07 309.928 1127.08 309.767 1127.11 309.568C1127.15 309.368 1127.21 309.162 1127.28 308.965C1127.35 308.768 1127.43 308.612 1127.49 308.503C1127.55 308.395 1127.59 308.355 1127.57 308.379C1127.52 308.432 1127.25 308.763 1126.53 309.3L1150.53 341.3C1156.58 336.764 1161.92 330.681 1164.83 322.735C1167.79 314.673 1167.59 306.474 1165.5 298.947L1126.96 309.653ZM1126.86 309.06C1126.3 309.461 1126.02 309.564 1126.01 309.567C1126 309.569 1126.04 309.554 1126.12 309.538C1126.21 309.522 1126.3 309.511 1126.39 309.509C1126.6 309.502 1126.64 309.54 1126.44 309.482C1126.21 309.417 1125.67 309.228 1124.81 308.724L1104.65 343.276C1111.36 347.185 1119.1 349.74 1127.57 349.491C1136.13 349.24 1143.76 346.172 1150.2 341.54L1126.86 309.06ZM1124.05 308.302C1124.42 308.501 1123.23 308.081 1121.42 304.456L1085.64 322.344C1089.9 330.852 1096.17 338.833 1105.42 343.698L1124.05 308.302ZM1121.28 304.173C1119.02 299.836 1116.93 294.445 1115.13 287.838L1076.54 298.362C1078.93 307.155 1081.97 315.297 1085.79 322.627L1121.28 304.173ZM1115.3 288.519C1113.6 281.296 1112.2 273.558 1111.11 265.291L1071.45 270.509C1072.7 279.976 1074.33 289.038 1076.36 297.681L1115.3 288.519ZM1111.12 265.357C1109.99 256.525 1109.09 248.07 1108.41 239.989L1068.55 243.311C1069.28 252.03 1070.24 261.075 1071.44 270.443L1111.12 265.357ZM1108.42 240.034C1107.72 231.505 1107.15 223.579 1106.69 216.252L1066.77 218.748C1067.25 226.355 1067.84 234.529 1068.55 243.266L1108.42 240.034ZM1106.72 216.875C1106.49 209.348 1106.25 203.143 1106.01 198.301L1066.06 200.299C1066.28 204.79 1066.51 210.719 1066.74 218.125L1106.72 216.875ZM1319.23 187.05L1312.14 205.75L1335.86 214.747L1339.07 189.583L1319.23 187.05ZM1313.28 162.2L1298.27 175.413L1298.55 175.731L1298.84 176.038L1313.28 162.2ZM1288.78 157.65L1283.93 138.247L1283.72 138.299L1283.52 138.355L1288.78 157.65ZM1274.78 162.9L1283.3 180.996L1283.51 180.895L1283.72 180.789L1274.78 162.9ZM1263.23 169.55L1274.32 186.191L1274.44 186.112L1274.56 186.031L1263.23 169.55ZM1252.38 177.25L1263.71 193.731L1264.05 193.497L1264.38 193.25L1252.38 177.25ZM1240.48 184.95L1250.77 202.1L1250.84 202.058L1250.91 202.016L1240.48 184.95ZM1227.53 188.45L1225.05 208.296L1225.12 208.305L1225.19 208.313L1227.53 188.45ZM1215.63 183.2L1227.34 166.986L1227.33 166.978L1227.32 166.969L1215.63 183.2ZM1213.18 148.55L1196.45 137.589L1196.4 137.662L1196.36 137.735L1213.18 148.55ZM1231.03 128.6L1244.2 143.652L1244.22 143.637L1244.23 143.623L1231.03 128.6ZM1256.58 111.1L1265.88 128.808L1265.96 128.766L1266.04 128.723L1256.58 111.1ZM1286.33 99.2L1291.59 118.495L1291.59 118.495L1286.33 99.2ZM1316.08 96.4L1314.14 116.305L1314.38 116.329L1314.62 116.347L1316.08 96.4ZM1342.33 105.5L1331.12 122.066L1331.23 122.141L1331.35 122.214L1342.33 105.5ZM1361.58 130L1343.18 137.831L1343.21 137.903L1343.24 137.975L1361.58 130ZM1367.88 161.85L1347.9 160.962L1347.89 161.184L1347.88 161.406L1367.88 161.85ZM1364.38 193.35L1383.97 197.358L1383.98 197.315L1383.99 197.272L1364.38 193.35ZM1357.73 224.85L1377.25 229.189L1377.26 229.144L1377.27 229.099L1357.73 224.85ZM1354.93 256.7L1374.92 255.96L1374.91 255.896L1374.91 255.831L1354.93 256.7ZM1358.43 268.25L1347.34 284.891L1348.01 285.34L1348.72 285.733L1358.43 268.25ZM1365.43 270V290H1366.34L1367.24 289.918L1365.43 270ZM1372.43 270.7L1366.1 289.674L1366.39 289.769L1366.68 289.857L1372.43 270.7ZM1376.98 279.8L1396.85 277.508L1396.83 277.36L1396.81 277.213L1376.98 279.8ZM1371.73 296.25L1356.54 283.234L1356.54 283.234L1371.73 296.25ZM1355.63 305.35L1352.11 285.661L1352.05 285.673L1351.99 285.684L1355.63 305.35ZM1335.33 301.15L1325.71 318.686L1325.71 318.686L1335.33 301.15ZM1316.43 278.05L1334.53 269.552L1334.43 269.327L1334.32 269.106L1316.43 278.05ZM1313.98 272.8L1294.58 277.651L1294.97 279.205L1295.6 280.678L1313.98 272.8ZM1312.23 267.2L1330.96 260.178L1318.14 225.991L1296.23 255.2L1312.23 267.2ZM1295.08 286.1L1281.47 271.444L1281.34 271.568L1281.21 271.694L1295.08 286.1ZM1274.08 299.4L1267.24 280.604L1267.19 280.624L1267.13 280.645L1274.08 299.4ZM1255.18 302.2L1253.7 322.145L1253.7 322.145L1255.18 302.2ZM1238.03 297.3L1228.11 314.665L1228.28 314.763L1228.45 314.858L1238.03 297.3ZM1225.43 285.75L1208.9 297.017L1209.03 297.197L1209.15 297.375L1225.43 285.75ZM1218.78 267.55L1238.6 264.907L1238.6 264.889L1238.6 264.872L1218.78 267.55ZM1221.23 240.25L1240.42 245.868L1240.44 245.806L1240.46 245.744L1221.23 240.25ZM1233.83 212.95L1250.47 224.044L1250.47 224.044L1233.83 212.95ZM1254.13 191.6L1265.98 207.713L1266.13 207.602L1266.28 207.487L1254.13 191.6ZM1279.68 180.75L1282.22 200.588L1282.23 200.587L1282.24 200.586L1279.68 180.75ZM1299.63 181.45L1295.13 200.938L1295.56 201.036L1295.99 201.116L1299.63 181.45ZM1271.28 229.4L1253.39 220.456L1253.39 220.456L1271.28 229.4ZM1264.98 246.2L1245.25 242.912L1245.16 243.45L1245.1 243.991L1264.98 246.2ZM1266.73 254.6L1253.71 269.785L1254.21 270.209L1254.73 270.6L1266.73 254.6ZM1275.13 254.25L1283.15 272.573L1283.62 272.368L1284.07 272.139L1275.13 254.25ZM1288.78 243.4L1302.92 257.542L1302.92 257.542L1288.78 243.4ZM1302.43 222.75L1322.26 225.337L1322.27 225.284L1322.27 225.231L1302.43 222.75ZM1285.28 213.65L1293.91 231.693L1294.07 231.617L1294.22 231.539L1285.28 213.65ZM1339.07 189.583C1340.89 175.285 1338.82 159.948 1327.72 148.362L1298.84 176.038C1298.88 176.085 1298.93 176.141 1298.99 176.261C1299.06 176.391 1299.2 176.697 1299.34 177.27C1299.63 178.473 1299.87 180.755 1299.39 184.517L1339.07 189.583ZM1328.29 148.987C1316.02 135.037 1298.46 134.615 1283.93 138.247L1293.63 177.053C1297.46 176.094 1299.26 176.279 1299.65 176.351C1299.78 176.375 1299.57 176.351 1299.19 176.139C1298.79 175.92 1298.47 175.642 1298.27 175.413L1328.29 148.987ZM1283.52 138.355C1277.28 140.056 1271.36 142.251 1265.84 145.011L1283.72 180.789C1286.6 179.349 1290.01 178.044 1294.04 176.945L1283.52 138.355ZM1266.26 144.804C1261.28 147.147 1256.5 149.909 1251.9 153.069L1274.56 186.031C1277.43 184.058 1280.34 182.387 1283.3 180.996L1266.26 144.804ZM1252.14 152.909C1248.3 155.468 1244.38 158.252 1240.38 161.25L1264.38 193.25C1267.85 190.648 1271.16 188.298 1274.32 186.191L1252.14 152.909ZM1241.05 160.769C1237.63 163.116 1233.97 165.489 1230.05 167.884L1250.91 202.016C1255.39 199.278 1259.66 196.517 1263.71 193.731L1241.05 160.769ZM1230.19 167.8C1229.11 168.448 1228.56 168.607 1228.52 168.618C1228.51 168.62 1228.64 168.585 1228.89 168.565C1229.14 168.544 1229.47 168.54 1229.87 168.587L1225.19 208.313C1234.9 209.455 1243.67 206.36 1250.77 202.1L1230.19 167.8ZM1230.01 168.604C1230.63 168.682 1229.79 168.759 1227.34 166.986L1203.92 199.414C1209.87 203.708 1216.96 207.285 1225.05 208.296L1230.01 168.604ZM1227.32 166.969C1226.24 166.193 1226.22 165.901 1226.46 166.32C1226.57 166.526 1226.7 166.808 1226.78 167.135C1226.86 167.458 1226.88 167.698 1226.88 167.8H1186.88C1186.88 181.541 1193.99 192.262 1203.94 199.431L1227.32 166.969ZM1226.88 167.8C1226.88 166.141 1227.39 163.426 1230 159.365L1196.36 137.735C1190.57 146.741 1186.88 156.858 1186.88 167.8H1226.88ZM1229.91 159.511C1233.15 154.56 1237.8 149.248 1244.2 143.652L1217.86 113.548C1209.32 121.018 1202.07 129.007 1196.45 137.589L1229.91 159.511ZM1244.23 143.623C1250.71 137.932 1257.91 132.992 1265.88 128.808L1247.28 93.392C1236.59 99.008 1226.75 105.734 1217.83 113.577L1244.23 143.623ZM1266.04 128.723C1274.3 124.289 1282.81 120.89 1291.59 118.495L1281.07 79.9047C1269.31 83.11 1257.99 87.6441 1247.12 93.4768L1266.04 128.723ZM1291.59 118.495C1299.76 116.266 1307.23 115.632 1314.14 116.305L1318.02 76.4945C1305.79 75.3012 1293.43 76.5337 1281.07 79.9047L1291.59 118.495ZM1314.62 116.347C1320.7 116.792 1326.09 118.662 1331.12 122.066L1353.54 88.9343C1342.7 81.6046 1330.59 77.4082 1317.54 76.4533L1314.62 116.347ZM1331.35 122.214C1335.56 124.981 1339.71 129.688 1343.18 137.831L1379.98 122.169C1374.11 108.379 1365.44 96.7523 1353.31 88.7859L1331.35 122.214ZM1343.24 137.975C1346.83 146.237 1348.22 153.833 1347.9 160.962L1387.86 162.738C1388.48 148.867 1385.66 135.23 1379.92 122.025L1343.24 137.975ZM1347.88 161.406C1347.68 170.715 1346.64 180.051 1344.77 189.428L1383.99 197.272C1386.32 185.649 1387.61 173.985 1387.87 162.294L1347.88 161.406ZM1344.79 189.342C1342.7 199.525 1340.5 209.944 1338.19 220.601L1377.27 229.099C1379.62 218.289 1381.86 207.709 1383.97 197.358L1344.79 189.342ZM1338.21 220.511C1335.49 232.718 1334.41 245.085 1334.95 257.569L1374.91 255.831C1374.52 246.848 1375.3 237.982 1377.25 229.189L1338.21 220.511ZM1334.94 257.44C1335.09 261.454 1335.56 265.891 1336.84 270.113C1338.02 274.003 1340.72 280.48 1347.34 284.891L1369.52 251.609C1371.84 253.155 1373.24 254.942 1374.01 256.175C1374.76 257.374 1375.05 258.272 1375.12 258.512C1375.23 258.884 1375 258.246 1374.92 255.96L1334.94 257.44ZM1348.72 285.733C1353.99 288.663 1359.7 290 1365.43 290V250C1365.67 250 1366.08 250.029 1366.61 250.16C1367.13 250.292 1367.66 250.499 1368.14 250.767L1348.72 285.733ZM1367.24 289.918C1367.51 289.894 1367.02 289.978 1366.1 289.674L1378.75 251.726C1373.64 250.022 1368.49 249.64 1363.62 250.082L1367.24 289.918ZM1366.68 289.857C1360.76 288.08 1358.14 283.874 1357.43 282.444C1356.77 281.137 1356.94 280.761 1357.15 282.387L1396.81 277.213C1396.32 273.473 1395.38 268.896 1393.21 264.556C1390.97 260.093 1386.43 254.02 1378.18 251.543L1366.68 289.857ZM1357.11 282.092C1357.14 282.319 1357.13 282.422 1357.13 282.43C1357.13 282.434 1357.13 282.409 1357.14 282.382C1357.15 282.356 1357.14 282.4 1357.07 282.522C1356.99 282.649 1356.84 282.889 1356.54 283.234L1386.91 309.266C1394.51 300.408 1398.23 289.45 1396.85 277.508L1357.11 282.092ZM1356.54 283.234C1355.44 284.524 1354.24 285.281 1352.11 285.661L1359.15 325.039C1370.08 323.086 1379.62 317.776 1386.91 309.266L1356.54 283.234ZM1351.99 285.684C1351.39 285.795 1349.32 286.011 1344.95 283.614L1325.71 318.686C1335.81 324.222 1347.27 327.238 1359.27 325.016L1351.99 285.684ZM1344.95 283.614C1342.93 282.508 1339 279.064 1334.53 269.552L1298.32 286.548C1304.59 299.903 1313.26 311.858 1325.71 318.686L1344.95 283.614ZM1334.32 269.106C1333.53 267.531 1332.88 266.139 1332.36 264.922L1295.6 280.678C1296.47 282.727 1297.46 284.836 1298.54 286.994L1334.32 269.106ZM1333.38 267.949C1332.72 265.321 1331.91 262.729 1330.96 260.178L1293.5 274.222C1293.95 275.404 1294.3 276.546 1294.58 277.651L1333.38 267.949ZM1296.23 255.2C1292.11 260.696 1287.21 266.116 1281.47 271.444L1308.69 300.756C1316.02 293.95 1322.55 286.771 1328.23 279.2L1296.23 255.2ZM1281.21 271.694C1276.78 275.954 1272.14 278.823 1267.24 280.604L1280.91 318.196C1291.42 314.377 1300.78 308.379 1308.95 300.506L1281.21 271.694ZM1267.13 280.645C1263.35 282.046 1259.92 282.496 1256.66 282.255L1253.7 322.145C1263.04 322.837 1272.21 321.42 1281.03 318.155L1267.13 280.645ZM1256.66 282.255C1252.96 281.981 1250.04 281.072 1247.61 279.742L1228.45 314.858C1236.28 319.128 1244.79 321.486 1253.7 322.145L1256.66 282.255ZM1247.95 279.935C1245.72 278.662 1243.64 276.836 1241.7 274.125L1209.15 297.375C1214.22 304.464 1220.53 310.338 1228.11 314.665L1247.95 279.935ZM1241.95 274.483C1240.44 272.26 1239.18 269.239 1238.6 264.907L1198.95 270.193C1200.24 279.861 1203.42 288.973 1208.9 297.017L1241.95 274.483ZM1238.6 264.872C1237.86 259.39 1238.3 253.13 1240.42 245.868L1202.03 234.632C1198.56 246.503 1197.37 258.443 1198.96 270.228L1238.6 264.872ZM1240.46 245.744C1242.7 237.914 1246.03 230.706 1250.47 224.044L1217.19 201.856C1210.43 211.994 1205.36 222.986 1202 234.756L1240.46 245.744ZM1250.47 224.044C1254.81 217.534 1259.97 212.13 1265.98 207.713L1242.28 175.487C1232.42 182.736 1224.05 191.566 1217.19 201.856L1250.47 224.044ZM1266.28 207.487C1271.67 203.365 1276.92 201.267 1282.22 200.588L1277.14 160.912C1264.24 162.566 1252.46 167.702 1241.98 175.713L1266.28 207.487ZM1282.24 200.586C1287.51 199.905 1291.74 200.154 1295.13 200.938L1304.13 161.962C1295.39 159.946 1286.31 159.728 1277.12 160.914L1282.24 200.586ZM1295.99 201.116C1300.97 202.038 1306.35 203.554 1312.14 205.75L1326.32 168.35C1318.58 165.412 1310.89 163.195 1303.27 161.784L1295.99 201.116ZM1253.39 220.456C1249.61 228.011 1246.45 235.74 1245.25 242.912L1284.71 249.488C1284.91 248.26 1285.95 244.789 1289.17 238.344L1253.39 220.456ZM1245.1 243.991C1244.56 248.864 1243.8 261.288 1253.71 269.785L1279.75 239.415C1283.24 242.41 1284.33 245.867 1284.65 247.371C1284.94 248.771 1284.76 249.313 1284.86 248.409L1245.1 243.991ZM1254.73 270.6C1265.71 278.832 1277.83 274.897 1283.15 272.573L1267.11 235.927C1266.58 236.162 1267.47 235.66 1269.4 235.58C1271.64 235.486 1275.27 236.004 1278.73 238.6L1254.73 270.6ZM1284.07 272.139C1290.7 268.824 1297.06 263.399 1302.92 257.542L1274.64 229.258C1269.76 234.134 1267.02 235.942 1266.19 236.361L1284.07 272.139ZM1302.92 257.542C1307.7 252.768 1311.92 247.899 1315.18 242.966C1318.33 238.196 1321.37 232.204 1322.26 225.337L1282.6 220.163C1282.79 218.663 1283.2 218.796 1281.81 220.909C1280.52 222.86 1278.26 225.632 1274.64 229.258L1302.92 257.542ZM1322.27 225.231C1323.35 216.591 1322.29 201.393 1307.52 194.011L1289.64 229.789C1288.22 229.083 1286.78 228.027 1285.54 226.595C1284.32 225.179 1283.57 223.726 1283.14 222.526C1282.37 220.343 1282.72 219.219 1282.58 220.269L1322.27 225.231ZM1307.52 194.011C1295.6 188.051 1283.63 192.113 1276.34 195.761L1294.22 231.539C1295.77 230.766 1296.09 230.853 1295.41 230.942C1294.57 231.053 1292.3 231.123 1289.64 229.789L1307.52 194.011ZM1276.65 195.607C1265.72 200.833 1258.41 210.413 1253.39 220.456L1289.17 238.344C1292.08 232.52 1294.1 231.6 1293.91 231.693L1276.65 195.607ZM1416.98 64.2L1434.5 73.8384L1434.96 73.008L1435.33 72.1382L1416.98 64.2ZM1433.08 45.3L1423.21 27.8995L1433.08 45.3ZM1453.73 40.4L1451.67 60.2938L1452.03 60.3314L1452.39 60.3557L1453.73 40.4ZM1471.23 48.8L1456.43 62.2535L1456.58 62.4251L1456.74 62.5931L1471.23 48.8ZM1476.48 69.8L1456.64 67.2567L1456.62 67.3673L1456.61 67.4781L1476.48 69.8ZM1467.38 122.65L1486.85 127.186L1486.86 127.157L1486.87 127.128L1467.38 122.65ZM1456.53 174.1L1436.87 170.382L1436.85 170.488L1436.83 170.594L1456.53 174.1ZM1450.58 225.2L1430.6 224.106L1430.6 224.106L1450.58 225.2ZM1455.13 277L1474.7 272.88L1474.66 272.729L1474.63 272.579L1455.13 277ZM1456.18 289.25L1476.13 290.58L1476.13 290.539L1476.14 290.498L1456.18 289.25ZM1450.23 299.4L1437.05 284.348L1437.02 284.376L1436.99 284.403L1450.23 299.4ZM1437.98 305L1436.87 285.031L1436.83 285.033L1436.8 285.035L1437.98 305ZM1426.43 300.1L1412.7 314.652L1412.73 314.671L1412.75 314.691L1426.43 300.1ZM1407.53 268.6L1388.52 274.826L1388.53 274.875L1388.55 274.925L1407.53 268.6ZM1398.43 224.5L1378.5 226.258L1378.52 226.403L1378.53 226.548L1398.43 224.5ZM1397.38 175.5L1377.4 174.406L1377.4 174.537L1377.39 174.667L1397.38 175.5ZM1408.93 88.35L1389.5 83.5926L1389.46 83.7373L1389.43 83.8825L1408.93 88.35ZM1435.33 72.1382C1437.64 66.7986 1440.34 64.1733 1442.94 62.7004L1423.21 27.8995C1411.81 34.36 1403.78 44.3347 1398.62 56.2618L1435.33 72.1382ZM1442.94 62.7004C1447 60.3989 1449.75 60.0954 1451.67 60.2938L1455.78 20.5062C1444.17 19.3045 1433.15 22.2678 1423.21 27.8995L1442.94 62.7004ZM1452.39 60.3557C1454.3 60.4826 1455.28 60.9956 1456.43 62.2535L1486.02 35.3465C1477.83 26.3377 1467.15 21.2507 1455.06 20.4443L1452.39 60.3557ZM1456.74 62.5931C1456.53 62.3715 1456.54 62.2016 1456.63 62.5757C1456.77 63.1022 1456.99 64.5347 1456.64 67.2567L1496.31 72.3433C1497.96 59.5284 1495.88 45.6862 1485.71 35.0069L1456.74 62.5931ZM1456.61 67.4781C1454.59 84.735 1451.68 101.631 1447.88 118.172L1486.87 127.128C1491 109.135 1494.16 90.7983 1496.34 72.1218L1456.61 67.4781ZM1447.9 118.114C1443.87 135.42 1440.19 152.843 1436.87 170.382L1476.18 177.818C1479.39 160.824 1482.95 143.947 1486.85 127.186L1447.9 118.114ZM1436.83 170.594C1433.66 188.413 1431.58 206.252 1430.6 224.106L1470.55 226.294C1471.43 210.081 1473.32 193.853 1476.22 177.606L1436.83 170.594ZM1430.6 224.106C1429.57 243.084 1431.26 262.207 1435.62 281.421L1474.63 272.579C1471.05 256.793 1469.72 241.383 1470.55 226.294L1430.6 224.106ZM1435.55 281.12C1436.19 284.148 1436.31 286.399 1436.21 288.002L1476.14 290.498C1476.5 284.634 1475.93 278.719 1474.7 272.88L1435.55 281.12ZM1436.22 287.92C1436.33 286.222 1436.87 284.965 1437.26 284.298C1437.6 283.719 1437.71 283.773 1437.05 284.348L1463.4 314.452C1469.45 309.155 1475.42 301.24 1476.13 290.58L1436.22 287.92ZM1436.99 284.403C1436.23 285.078 1435.84 285.249 1435.87 285.236C1435.89 285.227 1436 285.18 1436.19 285.132C1436.38 285.083 1436.61 285.045 1436.87 285.031L1439.08 324.969C1448.82 324.428 1457.01 320.088 1463.46 314.397L1436.99 284.403ZM1436.8 285.035C1438.05 284.961 1439.17 285.217 1439.92 285.538C1440.59 285.82 1440.63 285.998 1440.1 285.509L1412.75 314.691C1419.27 320.805 1428.24 325.607 1439.15 324.965L1436.8 285.035ZM1440.15 285.548C1434.91 280.611 1430.14 273.208 1426.5 262.275L1388.55 274.925C1393.77 290.592 1401.61 304.189 1412.7 314.652L1440.15 285.548ZM1426.53 262.374C1422.59 250.348 1419.82 237.065 1418.32 222.452L1378.53 226.548C1380.29 243.668 1383.59 259.785 1388.52 274.826L1426.53 262.374ZM1418.35 222.742C1417.03 207.783 1416.69 192.316 1417.36 176.333L1377.39 174.667C1376.66 192.284 1377.02 209.484 1378.5 226.258L1418.35 222.742ZM1417.35 176.594C1418.25 160.055 1419.72 144.64 1421.73 130.335L1382.12 124.765C1379.93 140.326 1378.37 156.879 1377.4 174.406L1417.35 176.594ZM1421.73 130.335C1423.77 115.804 1426.01 103.321 1428.42 92.8175L1389.43 83.8825C1386.7 95.7789 1384.28 109.43 1382.12 124.765L1421.73 130.335ZM1428.35 93.1074C1431.11 81.8332 1433.3 76.017 1434.5 73.8384L1399.45 54.5616C1395.52 61.7163 1392.34 72.0001 1389.5 83.5926L1428.35 93.1074ZM1498.44 199.3L1507.85 216.947L1518.44 211.3V199.3H1498.44ZM1498.09 176.9L1478.1 177.426L1478.1 177.433L1478.1 177.44L1498.09 176.9ZM1497.74 149.25L1477.75 148.774L1477.74 149.012V149.25H1497.74ZM1499.14 119.5L1479.19 118.108L1479.19 118.108L1499.14 119.5ZM1502.64 90.8L1522.33 94.3333L1522.34 94.2904L1522.34 94.2476L1502.64 90.8ZM1509.29 65.6L1528.02 72.6225L1528.05 72.5288L1528.09 72.4349L1509.29 65.6ZM1520.49 46.7L1534.98 60.4931L1535.05 60.4201L1535.11 60.3464L1520.49 46.7ZM1531.69 39.7L1537.05 58.9704L1537.38 58.8768L1537.72 58.7716L1531.69 39.7ZM1544.29 38.65L1540.82 58.3457L1540.82 58.3457L1544.29 38.65ZM1554.79 44.25L1540.65 58.3921L1540.93 58.6749L1541.23 58.946L1554.79 44.25ZM1560.39 55.8L1580.21 53.0673L1580.2 53.0194L1580.19 52.9716L1560.39 55.8ZM1560.04 82.4L1540.16 80.2843L1540.13 80.4757L1540.12 80.6674L1560.04 82.4ZM1556.19 116L1536.39 113.227L1536.36 113.422L1536.34 113.617L1556.19 116ZM1551.99 150.3L1571.83 152.833L1571.84 152.807L1571.84 152.781L1551.99 150.3ZM1550.59 177.25L1530.64 178.58L1532.62 208.286L1559.37 195.221L1550.59 177.25ZM1578.94 160.1L1590.81 176.201L1590.94 176.101L1591.08 175.999L1578.94 160.1ZM1606.94 142.6L1598.38 124.525L1598.19 124.616L1598 124.711L1606.94 142.6ZM1619.89 140.5L1616.6 160.228L1617.2 160.327L1617.8 160.39L1619.89 140.5ZM1630.74 145.05L1617.23 159.793L1617.58 160.112L1617.94 160.414L1630.74 145.05ZM1636.34 154.85L1616.82 159.189L1616.85 159.31L1616.87 159.431L1636.34 154.85ZM1634.59 167.8L1652.62 176.455L1652.73 176.232L1652.83 176.007L1634.59 167.8ZM1622.69 184.6L1636.84 198.742L1636.99 198.585L1637.15 198.424L1622.69 184.6ZM1605.54 199.3L1617.34 215.448L1617.4 215.41L1617.45 215.371L1605.54 199.3ZM1586.29 211.55L1595.74 229.18L1595.85 229.121L1595.95 229.062L1586.29 211.55ZM1567.74 220.3L1560.32 201.73L1511.24 221.359L1561.02 239.135L1567.74 220.3ZM1579.99 224.85L1572.87 243.54L1573.4 243.739L1573.93 243.909L1579.99 224.85ZM1595.39 230.1L1588.56 248.896L1588.69 248.944L1588.82 248.99L1595.39 230.1ZM1610.44 236.05L1602.24 254.288L1602.62 254.462L1603.02 254.62L1610.44 236.05ZM1621.29 241.65L1609.53 257.825L1609.63 257.898L1609.73 257.97L1621.29 241.65ZM1630.74 256.7L1610.87 258.992L1610.92 259.368L1610.98 259.741L1630.74 256.7ZM1628.29 273.5L1610.4 264.556L1610.24 264.887L1610.09 265.224L1628.29 273.5ZM1616.74 285.75L1606.9 268.339L1606.73 268.434L1606.57 268.531L1616.74 285.75ZM1599.24 287.5L1593.5 306.657L1593.62 306.694L1593.75 306.73L1599.24 287.5ZM1585.94 281.9L1575.08 298.691L1575.64 299.057L1576.23 299.383L1585.94 281.9ZM1573.69 274.2L1562.16 290.539L1562.7 290.921L1563.26 291.266L1573.69 274.2ZM1561.79 266.15L1550.93 282.941L1550.93 282.941L1561.79 266.15ZM1549.19 260.2L1555.22 241.128L1537.52 235.539L1530.62 252.772L1549.19 260.2ZM1548.84 272.45L1529.44 277.301L1529.55 277.752L1529.69 278.197L1548.84 272.45ZM1552.34 286.45L1532.73 290.372L1532.75 290.471L1532.77 290.57L1552.34 286.45ZM1552.34 299.05L1532.87 294.469L1532.75 295.019L1532.65 295.574L1552.34 299.05ZM1542.89 308.15L1535.87 289.423L1535.5 289.563L1535.13 289.717L1542.89 308.15ZM1530.99 308.5L1539.45 290.376L1539.16 290.242L1538.87 290.117L1530.99 308.5ZM1521.89 301.15L1505.76 312.977L1506.01 313.316L1506.28 313.644L1521.89 301.15ZM1514.89 288.9L1496.2 296.02L1496.41 296.57L1496.65 297.107L1514.89 288.9ZM1509.99 274.2L1490.7 279.462L1490.73 279.579L1490.76 279.694L1509.99 274.2ZM1506.49 259.85L1486.74 262.969L1486.82 263.472L1486.92 263.97L1506.49 259.85ZM1504.74 249L1484.87 251.209L1484.93 251.75L1485.02 252.288L1504.74 249ZM1500.54 242.7L1487.16 257.566L1487.51 257.881L1487.88 258.179L1500.54 242.7ZM1492.84 236.05L1479.33 250.793L1479.68 251.112L1480.04 251.414L1492.84 236.05ZM1484.79 228.35L1469.43 241.154L1470.01 241.851L1470.65 242.492L1484.79 228.35ZM1480.94 219.6L1500.88 218.066L1500.88 218.066L1480.94 219.6ZM1484.09 210.15L1467.96 198.323L1467.89 198.424L1467.82 198.525L1484.09 210.15ZM1518.44 199.3C1518.44 192.768 1518.32 185.112 1518.09 176.36L1478.1 177.44C1478.33 185.954 1478.44 193.232 1478.44 199.3H1518.44ZM1518.09 176.374C1517.86 167.696 1517.74 158.655 1517.74 149.25H1477.74C1477.74 158.979 1477.86 168.371 1478.1 177.426L1518.09 176.374ZM1517.74 149.726C1517.96 140.239 1518.42 130.628 1519.09 120.892L1479.19 118.108C1478.47 128.438 1477.99 138.661 1477.75 148.774L1517.74 149.726ZM1519.09 120.892C1519.75 111.515 1520.83 102.666 1522.33 94.3333L1482.96 87.2667C1481.19 97.1337 1479.94 107.418 1479.19 118.108L1519.09 120.892ZM1522.34 94.2476C1523.8 85.9133 1525.73 78.7382 1528.02 72.6225L1490.57 58.5775C1487.26 67.3951 1484.75 77.02 1482.94 87.3524L1522.34 94.2476ZM1528.09 72.4349C1530.14 66.7921 1532.57 63.0213 1534.98 60.4931L1506.01 32.9069C1499.08 40.1786 1494.05 49.0079 1490.5 58.7651L1528.09 72.4349ZM1535.11 60.3464C1536.12 59.2651 1536.74 59.0559 1537.05 58.9704L1526.34 20.4296C1518.25 22.6775 1511.4 27.1349 1505.87 33.0536L1535.11 60.3464ZM1537.72 58.7716C1539.55 58.1909 1540.48 58.2858 1540.82 58.3457L1547.77 18.9543C1540.17 17.6142 1532.7 18.4091 1525.67 20.6284L1537.72 58.7716ZM1540.82 58.3457C1540.8 58.343 1540.75 58.3326 1540.68 58.3075C1540.61 58.2822 1540.54 58.2516 1540.48 58.2221C1540.43 58.1929 1540.41 58.1777 1540.43 58.1938C1540.45 58.2107 1540.53 58.2695 1540.65 58.3921L1568.94 30.1078C1563.2 24.3722 1556.05 20.4149 1547.77 18.9543L1540.82 58.3457ZM1541.23 58.946C1541.05 58.7842 1540.89 58.6015 1540.75 58.4108C1540.61 58.2214 1540.52 58.0629 1540.47 57.9629C1540.37 57.7618 1540.49 57.9113 1540.59 58.6284L1580.19 52.9716C1578.98 44.4588 1575.41 36.0648 1568.36 29.5539L1541.23 58.946ZM1540.58 58.5327C1541.2 63.0184 1541.24 70.0742 1540.16 80.2843L1579.93 84.5157C1581.18 72.7924 1581.45 62.1149 1580.21 53.0673L1540.58 58.5327ZM1540.12 80.6674C1539.22 91.0226 1537.98 101.875 1536.39 113.227L1576 118.773C1577.68 106.792 1579 95.244 1579.97 84.1326L1540.12 80.6674ZM1536.34 113.617C1534.94 125.252 1533.54 136.653 1532.15 147.819L1571.84 152.781C1573.24 141.547 1574.65 130.081 1576.05 118.383L1536.34 113.617ZM1532.15 147.767C1530.67 159.374 1530.05 169.777 1530.64 178.58L1570.55 175.92C1570.2 170.723 1570.51 163.16 1571.83 152.833L1532.15 147.767ZM1559.37 195.221C1570.47 189.8 1580.96 183.459 1590.81 176.201L1567.08 143.999C1559.2 149.807 1550.78 154.9 1541.82 159.279L1559.37 195.221ZM1591.08 175.999C1598.96 169.98 1607.23 164.817 1615.89 160.489L1598 124.711C1587.06 130.183 1576.66 136.686 1566.81 144.201L1591.08 175.999ZM1615.5 160.675C1616.23 160.333 1616.61 160.257 1616.71 160.242C1616.77 160.231 1616.71 160.246 1616.6 160.228L1623.18 120.772C1614.37 119.303 1605.92 120.952 1598.38 124.525L1615.5 160.675ZM1617.8 160.39C1618.34 160.447 1618.41 160.523 1618.2 160.431C1618.09 160.387 1617.93 160.311 1617.75 160.195C1617.57 160.079 1617.39 159.942 1617.23 159.793L1644.26 130.307C1637.78 124.366 1629.92 121.444 1621.99 120.61L1617.8 160.39ZM1617.94 160.414C1617.45 160.004 1617.09 159.543 1616.88 159.173C1616.68 158.834 1616.73 158.772 1616.82 159.189L1655.87 150.511C1654.15 142.802 1650.33 135.338 1643.55 129.686L1617.94 160.414ZM1616.87 159.431C1616.81 159.175 1616.78 158.937 1616.78 158.735C1616.77 158.536 1616.78 158.413 1616.79 158.384C1616.79 158.334 1616.75 158.718 1616.35 159.593L1652.83 176.007C1656.27 168.372 1657.99 159.512 1655.81 150.269L1616.87 159.431ZM1616.56 159.145C1614.8 162.82 1612.13 166.712 1608.24 170.776L1637.15 198.424C1643.53 191.755 1648.79 184.446 1652.62 176.455L1616.56 159.145ZM1608.55 170.458C1604.17 174.841 1599.21 179.103 1593.64 183.229L1617.45 215.371C1624.48 210.164 1630.95 204.626 1636.84 198.742L1608.55 170.458ZM1593.74 183.152C1588.38 187.072 1582.68 190.702 1576.63 194.038L1595.95 229.062C1603.44 224.931 1610.57 220.395 1617.34 215.448L1593.74 183.152ZM1576.85 193.92C1570.86 197.13 1565.35 199.716 1560.32 201.73L1575.17 238.87C1581.8 236.217 1588.66 232.97 1595.74 229.18L1576.85 193.92ZM1561.02 239.135C1564.1 240.237 1568.05 241.7 1572.87 243.54L1587.11 206.16C1582.14 204.266 1577.92 202.696 1574.47 201.465L1561.02 239.135ZM1573.93 243.909C1578.8 245.458 1583.68 247.121 1588.56 248.896L1602.23 211.304C1596.84 209.346 1591.45 207.508 1586.06 205.791L1573.93 243.909ZM1588.82 248.99C1593.69 250.684 1598.16 252.454 1602.24 254.288L1618.65 217.812C1613.39 215.446 1607.83 213.249 1601.96 211.21L1588.82 248.99ZM1603.02 254.62C1606.93 256.184 1608.85 257.328 1609.53 257.825L1633.06 225.475C1628.61 222.239 1623.29 219.65 1617.87 217.48L1603.02 254.62ZM1609.73 257.97C1610.72 258.67 1610.95 259.07 1610.92 259.023C1610.91 259.01 1610.89 258.965 1610.87 258.91C1610.85 258.856 1610.86 258.871 1610.87 258.992L1650.61 254.408C1649.18 241.965 1642.45 232.128 1632.85 225.33L1609.73 257.97ZM1610.98 259.741C1611.33 262.015 1610.99 263.39 1610.4 264.556L1646.18 282.444C1650.73 273.344 1652.03 263.518 1650.51 253.659L1610.98 259.741ZM1610.09 265.224C1609.67 266.141 1608.95 267.184 1606.9 268.339L1626.58 303.161C1635.27 298.25 1642.25 291.125 1646.5 281.776L1610.09 265.224ZM1606.57 268.531C1606.48 268.583 1606.46 268.584 1606.5 268.572C1606.54 268.559 1606.56 268.559 1606.53 268.562C1606.49 268.565 1605.96 268.617 1604.74 268.27L1593.75 306.73C1604.75 309.874 1616.38 309.195 1626.92 302.969L1606.57 268.531ZM1604.99 268.343C1601.68 267.351 1598.58 266.042 1595.66 264.417L1576.23 299.383C1581.71 302.425 1587.47 304.849 1593.5 306.657L1604.99 268.343ZM1596.81 265.109C1592.69 262.445 1588.46 259.787 1584.12 257.134L1563.26 291.266C1567.32 293.746 1571.26 296.222 1575.08 298.691L1596.81 265.109ZM1585.23 257.861C1581.05 254.91 1576.86 252.075 1572.66 249.359L1550.93 282.941C1554.66 285.358 1558.41 287.89 1562.16 290.539L1585.23 257.861ZM1572.66 249.359C1567.21 245.834 1561.39 243.077 1555.22 241.128L1543.17 279.272C1545.87 280.123 1548.44 281.332 1550.93 282.941L1572.66 249.359ZM1530.62 252.772C1527.28 261.134 1527.54 269.686 1529.44 277.301L1568.25 267.599C1568.03 266.733 1568.05 266.385 1568.05 266.459C1568.05 266.501 1568.04 266.64 1568 266.857C1567.95 267.076 1567.88 267.34 1567.76 267.628L1530.62 252.772ZM1529.69 278.197C1530.91 282.277 1531.92 286.335 1532.73 290.372L1571.95 282.528C1570.9 277.232 1569.58 271.956 1568 266.703L1529.69 278.197ZM1532.77 290.57C1533.17 292.455 1533.06 293.666 1532.87 294.469L1571.81 303.631C1573.49 296.501 1573.38 289.312 1571.91 282.33L1532.77 290.57ZM1532.65 295.574C1532.85 294.425 1533.25 293.274 1533.83 292.212C1534.41 291.164 1535.06 290.4 1535.58 289.894C1536.55 288.959 1537 289.001 1535.87 289.423L1549.92 326.877C1558.65 323.602 1569.58 316.481 1572.04 302.526L1532.65 295.574ZM1535.13 289.717C1534.72 289.89 1535.06 289.674 1536 289.646C1537.05 289.615 1538.29 289.836 1539.45 290.376L1522.54 326.624C1532.37 331.211 1542.39 330.064 1550.65 326.583L1535.13 289.717ZM1538.87 290.117C1539.32 290.309 1538.78 290.243 1537.51 288.656L1506.28 313.644C1510.61 319.057 1516.13 323.891 1523.11 326.883L1538.87 290.117ZM1538.02 289.323C1536.41 287.132 1534.76 284.302 1533.13 280.693L1496.65 297.107C1499.23 302.831 1502.24 308.168 1505.76 312.977L1538.02 289.323ZM1533.58 281.78C1531.91 277.399 1530.46 273.041 1529.22 268.706L1490.76 279.694C1492.32 285.159 1494.14 290.601 1496.2 296.02L1533.58 281.78ZM1529.29 268.938C1527.97 264.119 1526.9 259.721 1526.06 255.73L1486.92 263.97C1487.95 268.846 1489.21 274.014 1490.7 279.462L1529.29 268.938ZM1526.25 256.731C1525.54 252.269 1524.95 248.591 1524.47 245.712L1485.02 252.288C1485.47 255.009 1486.04 258.564 1486.74 262.969L1526.25 256.731ZM1524.62 246.791C1523.56 237.204 1517.59 230.808 1513.21 227.221L1487.88 258.179C1488.08 258.343 1487.56 257.969 1486.88 256.944C1486.15 255.848 1485.16 253.899 1484.87 251.209L1524.62 246.791ZM1513.92 227.834C1511.37 225.54 1508.61 223.156 1505.65 220.686L1480.04 251.414C1482.67 253.61 1485.05 255.66 1487.16 257.566L1513.92 227.834ZM1506.36 221.307C1503.76 218.927 1501.29 216.56 1498.94 214.208L1470.65 242.492C1473.43 245.273 1476.32 248.04 1479.33 250.793L1506.36 221.307ZM1500.16 215.546C1500.02 215.382 1500.18 215.528 1500.39 216.008C1500.61 216.516 1500.82 217.227 1500.88 218.066L1461 221.134C1461.61 229.074 1464.97 235.809 1469.43 241.154L1500.16 215.546ZM1500.88 218.066C1500.99 219.441 1500.77 220.566 1500.53 221.287C1500.31 221.95 1500.13 222.113 1500.37 221.775L1467.82 198.525C1463.64 204.378 1460.31 212.103 1461 221.134L1500.88 218.066ZM1500.22 221.977C1500.01 222.261 1500.28 221.815 1501.67 220.766C1503 219.755 1505 218.467 1507.85 216.947L1489.03 181.653C1481.23 185.816 1473.22 191.15 1467.96 198.323L1500.22 221.977ZM1685.41 44.95L1670.64 31.4646L1670.52 31.5999L1670.39 31.7374L1685.41 44.95ZM1700.81 35.85L1698.33 16.0044L1698.27 16.0111L1698.22 16.018L1700.81 35.85ZM1715.86 38.65L1725.88 21.3415L1725.88 21.3415L1715.86 38.65ZM1726.01 50.55L1707.67 58.5245L1707.81 58.8545L1707.97 59.1791L1726.01 50.55ZM1728.46 68.75L1748.23 71.7911L1748.25 71.6371L1748.27 71.4827L1728.46 68.75ZM1721.81 104.8L1702.26 100.583L1702.26 100.583L1721.81 104.8ZM1713.76 140.85L1733.23 145.431L1733.24 145.389L1733.25 145.347L1713.76 140.85ZM1706.06 176.9L1725.68 180.748L1725.69 180.713L1725.7 180.677L1706.06 176.9ZM1700.81 212.95L1680.9 211.036L1680.89 211.127L1680.88 211.217L1700.81 212.95ZM1695.21 225.55L1708.77 240.246L1708.8 240.226L1708.82 240.206L1695.21 225.55ZM1684.71 230.45L1685.96 250.411L1686.5 250.377L1687.05 250.313L1684.71 230.45ZM1673.86 227.65L1684.15 210.5L1684.15 210.5L1673.86 227.65ZM1666.86 217.5L1686.26 212.649L1686.22 212.498L1686.18 212.347L1666.86 217.5ZM1659.86 162.2L1639.86 162.625L1639.87 162.847L1639.88 163.069L1659.86 162.2ZM1660.56 128.95L1680.52 130.198L1680.52 130.185L1680.52 130.172L1660.56 128.95ZM1664.41 96.05L1644.8 92.1277L1644.75 92.3381L1644.72 92.5493L1664.41 96.05ZM1672.46 67L1653.86 59.6567L1653.77 59.8703L1653.69 60.0859L1672.46 67ZM1693.46 304.65L1706.84 319.516L1707.04 319.336L1707.23 319.15L1693.46 304.65ZM1677.71 310.6L1676.88 330.583L1676.89 330.583L1676.91 330.584L1677.71 310.6ZM1662.31 303.95L1648.53 318.45L1648.73 318.636L1648.93 318.816L1662.31 303.95ZM1662.31 266.85L1648.53 252.35L1648.53 252.35L1662.31 266.85ZM1677.71 259.85L1678.54 279.833L1678.92 279.817L1679.3 279.786L1677.71 259.85ZM1693.46 265.45L1680.08 280.316L1680.29 280.505L1680.51 280.689L1693.46 265.45ZM1700.18 58.4354C1702.99 55.3543 1704.11 55.5893 1703.4 55.682L1698.22 16.018C1686.78 17.5106 1677.63 23.8124 1670.64 31.4646L1700.18 58.4354ZM1703.29 55.6955C1705.02 55.4789 1705.57 55.8033 1705.84 55.9585L1725.88 21.3415C1717.28 16.3633 1707.79 14.8211 1698.33 16.0044L1703.29 55.6955ZM1705.84 55.9585C1706.06 56.0858 1706.79 56.4969 1707.67 58.5245L1744.35 42.5755C1740.56 33.8697 1734.53 26.3475 1725.88 21.3415L1705.84 55.9585ZM1707.97 59.1791C1708.6 60.5112 1709.13 62.5386 1708.65 66.0173L1748.27 71.4827C1749.66 61.428 1748.55 51.3221 1744.05 41.9209L1707.97 59.1791ZM1708.69 65.7089C1706.88 77.4515 1704.74 89.0761 1702.26 100.583L1741.36 109.017C1744.01 96.7239 1746.3 84.3151 1748.23 71.7911L1708.69 65.7089ZM1702.26 100.583C1699.71 112.388 1697.05 124.311 1694.27 136.353L1733.25 145.347C1736.07 133.123 1738.77 121.012 1741.36 109.017L1702.26 100.583ZM1694.29 136.269C1691.43 148.439 1688.8 160.723 1686.42 173.123L1725.7 180.677C1727.98 168.81 1730.49 157.061 1733.23 145.431L1694.29 136.269ZM1686.43 173.052C1683.97 185.595 1682.13 198.257 1680.9 211.036L1720.72 214.864C1721.82 203.376 1723.48 192.005 1725.68 180.748L1686.43 173.052ZM1680.88 211.217C1680.81 212.065 1680.68 212.241 1680.78 212.002C1680.84 211.883 1680.93 211.698 1681.09 211.481C1681.24 211.263 1681.42 211.063 1681.6 210.894L1708.82 240.206C1716.44 233.124 1719.93 223.908 1720.73 214.683L1680.88 211.217ZM1681.64 210.854C1681.54 210.951 1681.61 210.865 1681.85 210.751C1681.96 210.7 1682.08 210.658 1682.18 210.628C1682.29 210.599 1682.35 210.589 1682.37 210.587L1687.05 250.313C1695.35 249.335 1702.75 245.808 1708.77 240.246L1681.64 210.854ZM1683.46 210.489C1683.56 210.483 1683.69 210.483 1683.83 210.496C1683.97 210.51 1684.09 210.533 1684.19 210.559C1684.41 210.615 1684.4 210.652 1684.15 210.5L1663.57 244.8C1670.21 248.784 1677.81 250.92 1685.96 250.411L1683.46 210.489ZM1684.15 210.5C1684.86 210.929 1685.51 211.541 1685.95 212.183C1686.35 212.771 1686.36 213.045 1686.26 212.649L1647.46 222.351C1649.66 231.175 1654.72 239.488 1663.57 244.8L1684.15 210.5ZM1686.18 212.347C1684.62 206.481 1683.25 199.155 1682.16 190.229L1642.46 195.071C1643.7 205.279 1645.36 214.519 1647.53 222.653L1686.18 212.347ZM1682.16 190.229C1681.06 181.232 1680.29 171.604 1679.84 161.331L1639.88 163.069C1640.36 174.263 1641.22 184.934 1642.46 195.071L1682.16 190.229ZM1679.85 161.775C1679.63 151.378 1679.85 140.853 1680.52 130.198L1640.6 127.702C1639.86 139.447 1639.62 151.088 1639.86 162.625L1679.85 161.775ZM1680.52 130.172C1681.18 119.447 1682.38 109.244 1684.1 99.5507L1644.72 92.5493C1642.71 103.856 1641.34 115.586 1640.6 127.728L1680.52 130.172ZM1684.02 99.9723C1685.94 90.3583 1688.36 81.6886 1691.23 73.9141L1653.69 60.0859C1650.02 70.0447 1647.07 80.7417 1644.8 92.1277L1684.02 99.9723ZM1691.06 74.3433C1693.9 67.1553 1697.12 61.9186 1700.42 58.1626L1670.39 31.7374C1663.43 39.6481 1658.02 49.1114 1653.86 59.6567L1691.06 74.3433ZM1680.46 284.7C1680.46 287.435 1680.09 288.987 1679.84 289.716C1679.62 290.337 1679.5 290.32 1679.68 290.15L1707.23 319.15C1717.19 309.689 1720.46 296.919 1720.46 284.7H1680.46ZM1680.08 289.784C1679.37 290.419 1678.99 290.563 1678.95 290.578C1678.92 290.592 1678.89 290.598 1678.85 290.604C1678.82 290.61 1678.71 290.624 1678.51 290.616L1676.91 330.584C1688.37 331.043 1698.62 326.916 1706.84 319.516L1680.08 289.784ZM1678.54 290.617C1678.15 290.601 1677.34 290.568 1675.69 289.084L1648.93 318.816C1656.61 325.732 1666.06 330.132 1676.88 330.583L1678.54 290.617ZM1676.08 289.45C1676.06 289.43 1675.97 289.367 1675.81 288.954C1675.63 288.449 1675.31 287.258 1675.31 285.05H1635.31C1635.31 297.138 1638.89 309.286 1648.53 318.45L1676.08 289.45ZM1675.31 285.05C1675.31 283.211 1675.59 282.266 1675.73 281.905C1675.84 281.616 1675.93 281.5 1676.08 281.35L1648.53 252.35C1639.12 261.291 1635.31 273.03 1635.31 285.05H1675.31ZM1676.08 281.35C1677.8 279.724 1678.49 279.835 1678.54 279.833L1676.88 239.867C1665.73 240.332 1656.16 245.11 1648.53 252.35L1676.08 281.35ZM1679.3 279.786C1679.46 279.774 1679.51 279.785 1679.47 279.78C1679.43 279.775 1679.37 279.762 1679.32 279.744C1679.27 279.728 1679.3 279.731 1679.41 279.798C1679.53 279.868 1679.75 280.021 1680.08 280.316L1706.84 250.584C1698.42 243.008 1687.85 238.975 1676.11 239.914L1679.3 279.786ZM1680.51 280.689C1679.9 280.175 1679.79 279.742 1679.91 280.072C1680.08 280.546 1680.46 281.938 1680.46 284.7H1720.46C1720.46 272.668 1717.26 259.435 1706.41 250.211L1680.51 280.689Z" fill="white" mask="url(#path-3-outside-1_73_2)"/>
</svg>
